<svg xmlns="http://www.w3.org/2000/svg" xmlns:svg="http://www.w3.org/2000/svg" id="svg2" width="2450.667" height="1954.667" version="1.1" viewBox="0 0 2450.667 1954.667" xml:space="preserve"><metadata id="metadata8"/><g id="g10" transform="matrix(1.3333333,0,0,-1.3333333,0,1954.6667)"><g id="g12" transform="scale(0.1)"><path id="path14" d="M 8147.97,13231 4867.93,11701.7" style="fill:none;stroke:#000;stroke-width:28.3465004;stroke-linecap:butt;stroke-linejoin:miter;stroke-miterlimit:4;stroke-dasharray:none;stroke-opacity:1"/><path id="path16" d="m 5195.74,11715.7 -361.72,-30.4 255.86,257.5 c -18.08,-90 24.96,-181.6 105.86,-227.1 z" style="fill:#000;fill-opacity:1;fill-rule:evenodd;stroke:none"/><path id="path18" d="m 5195.75,11715.7 -361.72,-30.4 255.86,257.5 c -18.09,-90 24.96,-181.6 105.86,-227.1 z" style="fill:none;stroke:#000;stroke-width:19.48819923;stroke-linecap:butt;stroke-linejoin:round;stroke-miterlimit:4;stroke-dasharray:none;stroke-opacity:1"/><path id="path20" d="m 2815.43,13271.3 925.66,-1569.6" style="fill:none;stroke:#000;stroke-width:28.3465004;stroke-linecap:butt;stroke-linejoin:miter;stroke-miterlimit:4;stroke-dasharray:none;stroke-opacity:1"/><path id="path22" d="m 3695.47,12026.6 65.15,-357.1 -280.97,229.8 c 91.37,-9.3 178.36,42.4 215.82,127.3 z" style="fill:#000;fill-opacity:1;fill-rule:evenodd;stroke:none"/><path id="path24" d="m 3695.47,12026.6 65.15,-357.1 -280.97,229.8 c 91.37,-9.3 178.35,42.4 215.82,127.3 z" style="fill:none;stroke:#000;stroke-width:19.48819923;stroke-linecap:butt;stroke-linejoin:round;stroke-miterlimit:4;stroke-dasharray:none;stroke-opacity:1"/><path id="path26" d="M 9798.01,13633.5 12796.3,11480.4" style="fill:none;stroke:#000;stroke-width:28.3465004;stroke-linecap:butt;stroke-linejoin:miter;stroke-miterlimit:4;stroke-dasharray:none;stroke-opacity:1"/><path id="path28" d="m 12623.5,11759.3 203.6,-300.5 -349.7,96.9 c 87.3,28.4 146.1,110.7 146.1,203.6 z" style="fill:#000;fill-opacity:1;fill-rule:evenodd;stroke:none"/><path id="path30" d="m 12623.5,11759.3 203.6,-300.5 -349.7,96.9 c 87.3,28.4 146.1,110.7 146.1,203.6 z" style="fill:none;stroke:#000;stroke-width:19.48819923;stroke-linecap:butt;stroke-linejoin:round;stroke-miterlimit:4;stroke-dasharray:none;stroke-opacity:1"/><path id="path32" d="M 15915.3,13190.8 14748.2,11540.7" style="fill:none;stroke:#000;stroke-width:28.3465004;stroke-linecap:butt;stroke-linejoin:miter;stroke-miterlimit:4;stroke-dasharray:none;stroke-opacity:1"/><path id="path34" d="m 15025.9,11715.5 -299,-205.8 94.4,350.5 c 29,-87.2 111.8,-145.4 204.6,-144.7 z" style="fill:#000;fill-opacity:1;fill-rule:evenodd;stroke:none"/><path id="path36" d="m 15025.9,11715.5 -299,-205.8 94.4,350.5 c 29,-87.2 111.8,-145.3 204.6,-144.7 z" style="fill:none;stroke:#000;stroke-width:19.48819923;stroke-linecap:butt;stroke-linejoin:round;stroke-miterlimit:4;stroke-dasharray:none;stroke-opacity:1"/><path id="path38" d="m 10099.8,11029.8 h 2394.6" style="fill:none;stroke:#000;stroke-width:28.3465004;stroke-linecap:butt;stroke-linejoin:miter;stroke-miterlimit:4;stroke-dasharray:none;stroke-opacity:1"/><path id="path40" d="m 12191.4,11155.6 340.7,-125.3 -340.7,-125.3 c 54.5,73.9 54.2,175.2 0,250.6 z" style="fill:#000;fill-opacity:1;fill-rule:evenodd;stroke:none"/><path id="path42" d="m 12191.4,11155.6 340.7,-125.3 -340.7,-125.3 c 54.5,73.9 54.2,175.2 0,250.6 z" style="fill:none;stroke:#000;stroke-width:19.48819923;stroke-linecap:butt;stroke-linejoin:round;stroke-miterlimit:4;stroke-dasharray:none;stroke-opacity:1"/><path id="path44" d="m 7741.33,10939.2 h 2797.03 v 1348.24 H 7741.33 Z" style="fill:#fff;fill-opacity:1;fill-rule:nonzero;stroke:none"/><path id="path46" d="m 7741.33,10939.2 h 2797.03 v 1348.24 H 7741.33 Z" style="fill:none;stroke:#000;stroke-width:28.3465004;stroke-linecap:butt;stroke-linejoin:miter;stroke-miterlimit:4;stroke-dasharray:none;stroke-opacity:1"/><g id="g48" transform="scale(10)"><text id="text52" transform="matrix(1,0,0,-1,829.041,1185.4)" style="font-variant:normal;font-weight:400;font-size:32px;font-family:Helvetica;-inkscape-font-specification:DejaVuSans;writing-mode:lr-tb;fill:#000;fill-opacity:1;fill-rule:nonzero;stroke:none"><tspan id="tspan50" x="0 20.32 39.904 60.192 72.704 90.304 109.984 120.16 136.32 145.216 154.112" y="0">Source File</tspan></text></g><path id="path54" d="M 9148.91,14263.3 V 12365.7" style="fill:none;stroke:#000;stroke-width:28.3465004;stroke-linecap:butt;stroke-linejoin:miter;stroke-miterlimit:4;stroke-dasharray:113.386,113.386;stroke-dashoffset:0;stroke-opacity:1"/><path id="path56" d="m 9274.69,12668.8 -125.31,-340.7 -125.28,340.7 c 73.99,-54.4 175.16,-54.1 250.59,0 z" style="fill:#000;fill-opacity:1;fill-rule:evenodd;stroke:none"/><path id="path58" d="m 9274.69,12668.8 -125.31,-340.7 -125.28,340.7 c 73.99,-54.4 175.16,-54.1 250.59,0 z" style="fill:none;stroke:#000;stroke-width:19.48819923;stroke-linecap:butt;stroke-linejoin:round;stroke-miterlimit:4;stroke-dasharray:none;stroke-opacity:1"/><path id="path60" d="M 7383.28,11030.8 H 5511.88" style="fill:none;stroke:#000;stroke-width:28.3465004;stroke-linecap:butt;stroke-linejoin:miter;stroke-miterlimit:4;stroke-dasharray:none;stroke-opacity:1"/><path id="path62" d="m 5814.92,10905 -340.7,125.3 340.7,125.3 c -54.45,-74 -54.14,-175.2 0,-250.6 z" style="fill:#000;fill-opacity:1;fill-rule:evenodd;stroke:none"/><path id="path64" d="m 5814.92,10905 -340.7,125.3 340.7,125.3 c -54.45,-74 -54.14,-175.2 0,-250.6 z" style="fill:none;stroke:#000;stroke-width:19.48819923;stroke-linecap:butt;stroke-linejoin:round;stroke-miterlimit:4;stroke-dasharray:none;stroke-opacity:1"/><path id="path66" d="M 4626.48,10132.1 5451.52,9085.74" style="fill:none;stroke:#000;stroke-width:28.3465004;stroke-linecap:butt;stroke-linejoin:miter;stroke-miterlimit:4;stroke-dasharray:none;stroke-opacity:1"/><path id="path68" d="m 5362.66,9401.56 112.54,-345.08 -309.3,189.97 c 91.8,3.04 171.05,65.93 196.76,155.11 z" style="fill:#000;fill-opacity:1;fill-rule:evenodd;stroke:none"/><path id="path70" d="m 5362.65,9401.56 112.54,-345.08 -309.3,189.97 c 91.8,3.05 171.06,65.93 196.76,155.11 z" style="fill:none;stroke:#000;stroke-width:19.48819923;stroke-linecap:butt;stroke-linejoin:round;stroke-miterlimit:4;stroke-dasharray:none;stroke-opacity:1"/><path id="path72" d="M 13500.6,10112 11951.1,9065.62" style="fill:none;stroke:#000;stroke-width:28.3465004;stroke-linecap:butt;stroke-linejoin:miter;stroke-miterlimit:4;stroke-dasharray:none;stroke-opacity:1"/><path id="path74" d="m 12272.7,9130.98 -352.5,-86.84 212.3,294.49 c -3.7,-91.75 53.1,-175.47 140.2,-207.65 z" style="fill:#000;fill-opacity:1;fill-rule:evenodd;stroke:none"/><path id="path76" d="m 12272.7,9130.97 -352.5,-86.83 212.3,294.49 c -3.8,-91.76 53.1,-175.47 140.2,-207.66 z" style="fill:none;stroke:#000;stroke-width:19.48819923;stroke-linecap:butt;stroke-linejoin:round;stroke-miterlimit:4;stroke-dasharray:none;stroke-opacity:1"/><path id="path78" d="M 15959.1,13170.6 V 6429.53" style="fill:none;stroke:#ddd;stroke-width:28.3465004;stroke-linecap:butt;stroke-linejoin:miter;stroke-miterlimit:4;stroke-dasharray:none;stroke-opacity:1"/><path id="path80" d="m 16084.8,6732.58 -125.2,-340.7 -125.3,340.7 c 73.9,-54.42 175.1,-54.1 250.5,0 z" style="fill:#ddd;fill-opacity:1;fill-rule:evenodd;stroke:none"/><path id="path82" d="m 16084.8,6732.58 -125.2,-340.71 -125.3,340.71 c 73.9,-54.42 175.1,-54.1 250.5,0 z" style="fill:none;stroke:#ddd;stroke-width:19.48819923;stroke-linecap:butt;stroke-linejoin:round;stroke-miterlimit:4;stroke-dasharray:none;stroke-opacity:1"/><path id="path84" d="M 2069.3,13150.5 V 6389.3" style="fill:none;stroke:#ddd;stroke-width:28.3465004;stroke-linecap:butt;stroke-linejoin:miter;stroke-miterlimit:4;stroke-dasharray:none;stroke-opacity:1"/><path id="path86" d="m 2195.08,6692.34 -125.28,-340.7 -125.27,340.7 c 73.95,-54.45 175.16,-54.14 250.55,0 z" style="fill:#ddd;fill-opacity:1;fill-rule:evenodd;stroke:none"/><path id="path88" d="m 2195.08,6692.34 -125.28,-340.7 -125.27,340.7 c 73.95,-54.45 175.16,-54.14 250.55,0 z" style="fill:none;stroke:#ddd;stroke-width:19.48819923;stroke-linecap:butt;stroke-linejoin:round;stroke-miterlimit:4;stroke-dasharray:none;stroke-opacity:1"/><path id="path90" d="M 6578.4,6027.07 10421.8,4578.24" style="fill:none;stroke:#000;stroke-width:28.3465004;stroke-linecap:butt;stroke-linejoin:miter;stroke-miterlimit:4;stroke-dasharray:113.386,113.386;stroke-dashoffset:0;stroke-opacity:1"/><path id="path92" d="m 10182.6,4802.81 274.6,-237.38 -362.9,2.97 c 77,50 112.4,144.8 88.3,234.41 z" style="fill:#000;fill-opacity:1;fill-rule:evenodd;stroke:none"/><path id="path94" d="m 10182.6,4802.8 274.6,-237.38 -362.9,2.97 c 77,50 112.4,144.81 88.3,234.41 z" style="fill:none;stroke:#000;stroke-width:19.48819923;stroke-linecap:butt;stroke-linejoin:round;stroke-miterlimit:4;stroke-dasharray:none;stroke-opacity:1"/><path id="path96" d="M 10804.1,5986.84 6900.35,4578.24" style="fill:none;stroke:#000;stroke-width:28.3465004;stroke-linecap:butt;stroke-linejoin:miter;stroke-miterlimit:4;stroke-dasharray:113.386,113.386;stroke-dashoffset:0;stroke-opacity:1"/><path id="path98" d="m 7228.09,4562.77 -362.97,2.23 277.93,233.48 c -26.1,-88.05 8.55,-183.13 85.04,-235.71 z" style="fill:#000;fill-opacity:1;fill-rule:evenodd;stroke:none"/><path id="path100" d="m 7228.08,4562.77 -362.96,2.23 277.93,233.48 c -26.1,-88.05 8.56,-183.12 85.03,-235.71 z" style="fill:none;stroke:#000;stroke-width:19.48819923;stroke-linecap:butt;stroke-linejoin:round;stroke-miterlimit:4;stroke-dasharray:none;stroke-opacity:1"/><path id="path102" d="M 6135.66,6027.07 V 4618.48" style="fill:none;stroke:#000;stroke-width:28.3465004;stroke-linecap:butt;stroke-linejoin:miter;stroke-miterlimit:4;stroke-dasharray:none;stroke-opacity:1"/><path id="path104" d="m 6261.45,4921.52 -125.28,-340.66 -125.27,340.66 c 73.98,-54.41 175.15,-54.1 250.55,0 z" style="fill:#000;fill-opacity:1;fill-rule:evenodd;stroke:none"/><path id="path106" d="m 6261.45,4921.52 -125.28,-340.66 -125.27,340.66 c 73.98,-54.41 175.15,-54.1 250.55,0 z" style="fill:none;stroke:#000;stroke-width:19.48819923;stroke-linecap:butt;stroke-linejoin:round;stroke-miterlimit:4;stroke-dasharray:none;stroke-opacity:1"/><path id="path108" d="M 11226.7,5986.84 V 4638.63" style="fill:none;stroke:#000;stroke-width:28.3465004;stroke-linecap:butt;stroke-linejoin:miter;stroke-miterlimit:4;stroke-dasharray:none;stroke-opacity:1"/><path id="path110" d="m 11352.5,4941.64 -125.3,-340.66 -125.3,340.66 c 74,-54.41 175.2,-54.1 250.6,0 z" style="fill:#000;fill-opacity:1;fill-rule:evenodd;stroke:none"/><path id="path112" d="m 11352.5,4941.64 -125.3,-340.66 -125.3,340.66 c 74,-54.41 175.2,-54.1 250.6,0 z" style="fill:none;stroke:#000;stroke-width:19.48819923;stroke-linecap:butt;stroke-linejoin:round;stroke-miterlimit:4;stroke-dasharray:none;stroke-opacity:1"/><path id="path114" d="m 14386,3491.6 -1972.1,20.16" style="fill:none;stroke:#000;stroke-width:28.3465004;stroke-linecap:butt;stroke-linejoin:miter;stroke-miterlimit:4;stroke-dasharray:none;stroke-opacity:1"/><path id="path116" d="m 12715.7,3382.89 -339.4,128.75 341.9,121.8 c -55.1,-73.44 -55.9,-174.61 -2.5,-250.55 z" style="fill:#000;fill-opacity:1;fill-rule:evenodd;stroke:none"/><path id="path118" d="m 12715.7,3382.89 -339.4,128.75 341.9,121.79 c -55.1,-73.43 -55.9,-174.6 -2.5,-250.54 z" style="fill:none;stroke:#000;stroke-width:19.48819923;stroke-linecap:butt;stroke-linejoin:round;stroke-miterlimit:4;stroke-dasharray:none;stroke-opacity:1"/><path id="path120" d="m 3942.3,3511.76 1086.65,20.12" style="fill:none;stroke:#000;stroke-width:28.3465004;stroke-linecap:butt;stroke-linejoin:miter;stroke-miterlimit:4;stroke-dasharray:none;stroke-opacity:1"/><path id="path122" d="m 4723.63,3651.99 342.93,-118.94 -338.32,-131.57 c 53.05,74.97 50.86,176.14 -4.61,250.51 z" style="fill:#000;fill-opacity:1;fill-rule:evenodd;stroke:none"/><path id="path124" d="m 4723.63,3651.99 342.93,-118.94 -338.32,-131.57 c 53.05,74.97 50.87,176.14 -4.61,250.51 z" style="fill:none;stroke:#000;stroke-width:19.48819923;stroke-linecap:butt;stroke-linejoin:round;stroke-miterlimit:4;stroke-dasharray:none;stroke-opacity:1"/><path id="path126" d="M 6216.17,2887.93 V 1579.96" style="fill:none;stroke:#000;stroke-width:28.3465004;stroke-linecap:butt;stroke-linejoin:miter;stroke-miterlimit:4;stroke-dasharray:none;stroke-opacity:1"/><path id="path128" d="m 6341.95,1883.01 -125.27,-340.71 -125.27,340.71 c 73.94,-54.46 175.15,-54.14 250.54,0 z" style="fill:#000;fill-opacity:1;fill-rule:evenodd;stroke:none"/><path id="path130" d="m 6341.95,1883.01 -125.27,-340.71 -125.27,340.71 c 73.94,-54.46 175.15,-54.14 250.54,0 z" style="fill:none;stroke:#000;stroke-width:19.48819923;stroke-linecap:butt;stroke-linejoin:round;stroke-miterlimit:4;stroke-dasharray:none;stroke-opacity:1"/><path id="path132" d="M 11226.7,2928.2 V 1600.08" style="fill:none;stroke:#000;stroke-width:28.3465004;stroke-linecap:butt;stroke-linejoin:miter;stroke-miterlimit:4;stroke-dasharray:none;stroke-opacity:1"/><path id="path134" d="m 11352.5,1903.12 -125.3,-340.7 -125.3,340.7 c 74,-54.41 175.2,-54.1 250.6,0 z" style="fill:#000;fill-opacity:1;fill-rule:evenodd;stroke:none"/><path id="path136" d="m 11352.5,1903.12 -125.3,-340.7 -125.3,340.7 c 74,-54.41 175.2,-54.1 250.6,0 z" style="fill:none;stroke:#000;stroke-width:19.48819923;stroke-linecap:butt;stroke-linejoin:round;stroke-miterlimit:4;stroke-dasharray:none;stroke-opacity:1"/><path id="path138" d="M 5129.22,7650.94 H 7142.15 V 8983.52 H 5129.22 Z" style="fill:#fff;fill-opacity:1;fill-rule:nonzero;stroke:none"/><path id="path140" d="M 5129.22,7650.94 H 7142.15 V 8983.52 H 5129.22 Z" style="fill:none;stroke:#000;stroke-width:28.04610062;stroke-linecap:butt;stroke-linejoin:miter;stroke-miterlimit:4;stroke-dasharray:none;stroke-opacity:1"/><path id="path142" d="M 5129.22,6290.27 H 7142.15 V 7651.21 H 5129.22 Z" style="fill:#fff;fill-opacity:1;fill-rule:nonzero;stroke:none"/><path id="path144" d="M 5129.22,6290.27 H 7142.15 V 7651.21 H 5129.22 Z" style="fill:none;stroke:#000;stroke-width:28.04610062;stroke-linecap:butt;stroke-linejoin:miter;stroke-miterlimit:4;stroke-dasharray:none;stroke-opacity:1"/><g id="g146" transform="scale(10)"><text id="text156" transform="matrix(1,0,0,-1,555.675,853.831)" style="font-variant:normal;font-weight:400;font-size:32px;font-family:Helvetica;-inkscape-font-specification:DejaVuSans;writing-mode:lr-tb;fill:#000;fill-opacity:1;fill-rule:nonzero;stroke:none"><tspan id="tspan148" x="0 25.184 45.504 54.4 74.08 91.68" y="0">Object</tspan><tspan id="tspan150" x="13.531 31.131 50.715 71.035" y="28.346">code</tspan><tspan id="tspan152" x="-3.688 15.064 28.216 37.112 56.056 75.672 88.216" y="140.859">Private</tspan><tspan id="tspan154" x="-7.25 13.038 32.718 41.614 61.934 81.614 94.766" y="169.206">helpers</tspan></text></g><path id="path158" d="m 1449.88,13651.2 h 2697.85 v 997.07 H 1449.88 Z" style="fill:#fff;fill-opacity:1;fill-rule:nonzero;stroke:none"/><path id="path160" d="m 1449.88,13651.2 h 2697.85 v 997.07 H 1449.88 Z" style="fill:none;stroke:#000;stroke-width:23.40530014;stroke-linecap:butt;stroke-linejoin:miter;stroke-miterlimit:4;stroke-dasharray:none;stroke-opacity:1"/><g id="g162" transform="scale(10)"><text id="text166" transform="matrix(1,0,0,-1,196,1426.77)" style="font-variant:normal;font-weight:400;font-size:32px;font-family:Helvetica;-inkscape-font-specification:DejaVuSans;writing-mode:lr-tb;fill:#000;fill-opacity:1;fill-rule:nonzero;stroke:none"><tspan id="tspan164" x="0 26.816 47.104 66.784 86.4 106.72 126.4 139.552" y="0">&lt;header&gt;</tspan></text></g><g id="g168" transform="scale(1.08573)"><path id="path170" d="M 13815.2,13491.7 H 16300 v -918.4 h -2484.8" style="fill:#fff;fill-opacity:1;fill-rule:nonzero;stroke:none"/></g><g id="g172" transform="scale(1.08573)"><path id="path174" d="M 13815.2,13491.7 H 16300 v -918.4 h -2484.8 z" style="fill:none;stroke:#000;stroke-width:21.55730057;stroke-linecap:butt;stroke-linejoin:miter;stroke-miterlimit:4;stroke-dasharray:none;stroke-opacity:1"/></g><g id="g176" transform="scale(10)"><text id="text180" transform="matrix(1,0,0,-1,1550.96,1426.77)" style="font-variant:normal;font-weight:400;font-size:32px;font-family:Helvetica;-inkscape-font-specification:DejaVuSans;writing-mode:lr-tb;fill:#000;fill-opacity:1;fill-rule:nonzero;stroke:none"><tspan id="tspan178" x="0 26.816 47.104 66.784 86.4 106.72 126.4 139.552" y="0">&lt;header&gt;</tspan></text></g><path id="path182" d="m 7856.17,13651.2 h 2697.85 v 997.07 H 7856.17 Z" style="fill:#fff;fill-opacity:1;fill-rule:nonzero;stroke:none"/><path id="path184" d="m 7856.17,13651.2 h 2697.85 v 997.07 H 7856.17 Z" style="fill:none;stroke:#000;stroke-width:23.40530014;stroke-linecap:butt;stroke-linejoin:miter;stroke-miterlimit:4;stroke-dasharray:none;stroke-opacity:1"/><g id="g186" transform="scale(10)"><text id="text190" transform="matrix(1,0,0,-1,848.692,1426.77)" style="font-variant:normal;font-weight:400;font-size:32px;font-family:Helvetica;-inkscape-font-specification:DejaVuSans;writing-mode:lr-tb;fill:#000;fill-opacity:1;fill-rule:nonzero;stroke:none"><tspan id="tspan188" x="0 14.72 35.008 54.688 74.304 94.624 114.304 127.552" y="0">&quot;header&quot;</tspan></text></g><path id="path192" d="m 1075.94,13352.1 h 2697.85 v 997.07 H 1075.94 Z" style="fill:#fff;fill-opacity:1;fill-rule:nonzero;stroke:none"/><path id="path194" d="m 1075.94,13352.1 h 2697.85 v 997.07 H 1075.94 Z" style="fill:none;stroke:#000;stroke-width:23.40530014;stroke-linecap:butt;stroke-linejoin:miter;stroke-miterlimit:4;stroke-dasharray:none;stroke-opacity:1"/><g id="g196" transform="scale(10)"><text id="text200" transform="matrix(1,0,0,-1,158.605,1396.85)" style="font-variant:normal;font-weight:400;font-size:32px;font-family:Helvetica;-inkscape-font-specification:DejaVuSans;writing-mode:lr-tb;fill:#000;fill-opacity:1;fill-rule:nonzero;stroke:none"><tspan id="tspan198" x="0 26.816 47.104 66.784 86.4 106.72 126.4 139.552" y="0">&lt;header&gt;</tspan></text></g><g id="g202" transform="scale(1.06279)"><path id="path204" d="M 13761.5,13501.4 H 16300 v -938.1 h -2538.5" style="fill:#fff;fill-opacity:1;fill-rule:nonzero;stroke:none"/></g><g id="g206" transform="scale(1.06279)"><path id="path208" d="M 13761.5,13501.4 H 16300 v -938.1 h -2538.5 z" style="fill:none;stroke:#000;stroke-width:22.02260017;stroke-linecap:butt;stroke-linejoin:miter;stroke-miterlimit:4;stroke-dasharray:none;stroke-opacity:1"/></g><g id="g210" transform="scale(10)"><text id="text214" transform="matrix(1,0,0,-1,1513.57,1396.85)" style="font-variant:normal;font-weight:400;font-size:32px;font-family:Helvetica;-inkscape-font-specification:DejaVuSans;writing-mode:lr-tb;fill:#000;fill-opacity:1;fill-rule:nonzero;stroke:none"><tspan id="tspan212" x="0 26.816 47.104 66.784 86.4 106.72 126.4 139.552" y="0">&lt;header&gt;</tspan></text></g><path id="path216" d="m 7482.23,13352.1 h 2697.85 v 997.07 H 7482.23 Z" style="fill:#fff;fill-opacity:1;fill-rule:nonzero;stroke:none"/><path id="path218" d="m 7482.23,13352.1 h 2697.85 v 997.07 H 7482.23 Z" style="fill:none;stroke:#000;stroke-width:23.40530014;stroke-linecap:butt;stroke-linejoin:miter;stroke-miterlimit:4;stroke-dasharray:none;stroke-opacity:1"/><g id="g220" transform="scale(10)"><text id="text224" transform="matrix(1,0,0,-1,811.298,1396.85)" style="font-variant:normal;font-weight:400;font-size:32px;font-family:Helvetica;-inkscape-font-specification:DejaVuSans;writing-mode:lr-tb;fill:#000;fill-opacity:1;fill-rule:nonzero;stroke:none"><tspan id="tspan222" x="0 14.72 35.008 54.688 74.304 94.624 114.304 127.552" y="0">&quot;header&quot;</tspan></text></g><path id="path226" d="m 7427.19,10625.1 h 2797.07 v 1348.24 H 7427.19 Z" style="fill:#fff;fill-opacity:1;fill-rule:nonzero;stroke:none"/><path id="path228" d="m 7427.19,10625.1 h 2797.07 v 1348.24 H 7427.19 Z" style="fill:none;stroke:#000;stroke-width:28.3465004;stroke-linecap:butt;stroke-linejoin:miter;stroke-miterlimit:4;stroke-dasharray:none;stroke-opacity:1"/><g id="g230" transform="scale(10)"><text id="text234" transform="matrix(1,0,0,-1,797.629,1153.99)" style="font-variant:normal;font-weight:400;font-size:32px;font-family:Helvetica;-inkscape-font-specification:DejaVuSans;writing-mode:lr-tb;fill:#000;fill-opacity:1;fill-rule:nonzero;stroke:none"><tspan id="tspan232" x="0 20.32 39.904 60.192 72.704 90.304 109.984 120.16 136.32 145.216 154.112" y="0">Source File</tspan></text></g><path id="path236" d="M 8834.77,13949.2 V 12051.6" style="fill:none;stroke:#000;stroke-width:28.3465004;stroke-linecap:butt;stroke-linejoin:miter;stroke-miterlimit:4;stroke-dasharray:113.386,113.386;stroke-dashoffset:0;stroke-opacity:1"/><path id="path238" d="M 8960.55,12354.7 8835.27,12014 8710,12354.7 c 73.98,-54.4 175.16,-54.1 250.55,0 z" style="fill:#000;fill-opacity:1;fill-rule:evenodd;stroke:none"/><path id="path240" d="M 8960.55,12354.7 8835.27,12014 8710,12354.7 c 73.98,-54.4 175.16,-54.1 250.55,0 z" style="fill:none;stroke:#000;stroke-width:19.48819923;stroke-linecap:butt;stroke-linejoin:round;stroke-miterlimit:4;stroke-dasharray:none;stroke-opacity:1"/><path id="path242" d="m 7121.68,10313.2 h 2797.07 v 1348.24 H 7121.68 Z" style="fill:#fff;fill-opacity:1;fill-rule:nonzero;stroke:none"/><path id="path244" d="m 7121.68,10313.2 h 2797.07 v 1348.24 H 7121.68 Z" style="fill:none;stroke:#000;stroke-width:28.3465004;stroke-linecap:butt;stroke-linejoin:miter;stroke-miterlimit:4;stroke-dasharray:none;stroke-opacity:1"/><g id="g246" transform="scale(10)"><text id="text250" transform="matrix(1,0,0,-1,767.079,1122.8)" style="font-variant:normal;font-weight:400;font-size:32px;font-family:Helvetica;-inkscape-font-specification:DejaVuSans;writing-mode:lr-tb;fill:#000;fill-opacity:1;fill-rule:nonzero;stroke:none"><tspan id="tspan248" x="0 20.32 39.904 60.192 72.704 90.304 109.984 120.16 136.32 145.216 154.112" y="0">Source File</tspan></text></g><path id="path252" d="M 8529.26,13637.3 V 11739.8" style="fill:none;stroke:#000;stroke-width:28.3465004;stroke-linecap:butt;stroke-linejoin:miter;stroke-miterlimit:4;stroke-dasharray:113.386,113.386;stroke-dashoffset:0;stroke-opacity:1"/><path id="path254" d="m 8655.04,12042.8 -125.27,-340.6 -125.28,340.6 c 73.99,-54.4 175.16,-54.1 250.55,0 z" style="fill:#000;fill-opacity:1;fill-rule:evenodd;stroke:none"/><path id="path256" d="m 8655.04,12042.8 -125.27,-340.7 -125.28,340.7 c 73.99,-54.4 175.16,-54.1 250.55,0 z" style="fill:none;stroke:#000;stroke-width:19.48819923;stroke-linecap:butt;stroke-linejoin:round;stroke-miterlimit:4;stroke-dasharray:none;stroke-opacity:1"/><path id="path258" d="m 748.711,13061.3 h 2697.85 v 997.07 H 748.711 Z" style="fill:#fff;fill-opacity:1;fill-rule:nonzero;stroke:none"/><path id="path260" d="m 748.711,13061.3 h 2697.85 v 997.07 H 748.711 Z" style="fill:none;stroke:#000;stroke-width:23.40530014;stroke-linecap:butt;stroke-linejoin:miter;stroke-miterlimit:4;stroke-dasharray:none;stroke-opacity:1"/><g id="g262" transform="scale(10)"><text id="text266" transform="matrix(1,0,0,-1,125.883,1367.77)" style="font-variant:normal;font-weight:400;font-size:32px;font-family:Helvetica;-inkscape-font-specification:DejaVuSans;writing-mode:lr-tb;fill:#000;fill-opacity:1;fill-rule:nonzero;stroke:none"><tspan id="tspan264" x="0 26.816 47.104 66.784 86.4 106.72 126.4 139.552" y="0">&lt;header&gt;</tspan></text></g><g id="g268" transform="scale(1.04271)"><path id="path270" d="M 13712.7,13482.5 H 16300 v -956.2 h -2587.3" style="fill:#fff;fill-opacity:1;fill-rule:nonzero;stroke:none"/></g><g id="g272" transform="scale(1.04271)"><path id="path274" d="M 13712.7,13482.5 H 16300 v -956.2 h -2587.3 z" style="fill:none;stroke:#000;stroke-width:22.44669914;stroke-linecap:butt;stroke-linejoin:miter;stroke-miterlimit:4;stroke-dasharray:none;stroke-opacity:1"/></g><g id="g276" transform="scale(10)"><text id="text280" transform="matrix(1,0,0,-1,1480.84,1367.77)" style="font-variant:normal;font-weight:400;font-size:32px;font-family:Helvetica;-inkscape-font-specification:DejaVuSans;writing-mode:lr-tb;fill:#000;fill-opacity:1;fill-rule:nonzero;stroke:none"><tspan id="tspan278" x="0 26.816 47.104 66.784 86.4 106.72 126.4 139.552" y="0">&lt;header&gt;</tspan></text></g><path id="path282" d="m 7155,13061.3 h 2697.85 v 997.07 H 7155 Z" style="fill:#fff;fill-opacity:1;fill-rule:nonzero;stroke:none"/><path id="path284" d="m 7155,13061.3 h 2697.85 v 997.07 H 7155 Z" style="fill:none;stroke:#000;stroke-width:23.40530014;stroke-linecap:butt;stroke-linejoin:miter;stroke-miterlimit:4;stroke-dasharray:none;stroke-opacity:1"/><g id="g286" transform="scale(10)"><text id="text290" transform="matrix(1,0,0,-1,778.575,1367.77)" style="font-variant:normal;font-weight:400;font-size:32px;font-family:Helvetica;-inkscape-font-specification:DejaVuSans;writing-mode:lr-tb;fill:#000;fill-opacity:1;fill-rule:nonzero;stroke:none"><tspan id="tspan288" x="0 14.72 35.008 54.688 74.304 94.624 114.304 127.552" y="0">&quot;header&quot;</tspan></text></g><path id="path292" d="M 4804.57,7252.58 H 6817.46 V 8585.16 H 4804.57 Z" style="fill:#fff;fill-opacity:1;fill-rule:nonzero;stroke:none"/><path id="path294" d="M 4804.57,7252.58 H 6817.46 V 8585.16 H 4804.57 Z" style="fill:none;stroke:#000;stroke-width:28.04610062;stroke-linecap:butt;stroke-linejoin:miter;stroke-miterlimit:4;stroke-dasharray:none;stroke-opacity:1"/><path id="path296" d="M 4804.57,5891.95 H 6817.46 V 7252.89 H 4804.57 Z" style="fill:#fff;fill-opacity:1;fill-rule:nonzero;stroke:none"/><path id="path298" d="M 4804.57,5891.95 H 6817.46 V 7252.89 H 4804.57 Z" style="fill:none;stroke:#000;stroke-width:28.04610062;stroke-linecap:butt;stroke-linejoin:miter;stroke-miterlimit:4;stroke-dasharray:none;stroke-opacity:1"/><g id="g300" transform="scale(10)"><text id="text310" transform="matrix(1,0,0,-1,523.21,813.996)" style="font-variant:normal;font-weight:400;font-size:32px;font-family:Helvetica;-inkscape-font-specification:DejaVuSans;writing-mode:lr-tb;fill:#000;fill-opacity:1;fill-rule:nonzero;stroke:none"><tspan id="tspan302" x="0 25.184 45.504 54.4 74.08 91.68" y="0">Object</tspan><tspan id="tspan304" x="13.531 31.131 50.715 71.035" y="28.346">code</tspan><tspan id="tspan306" x="-3.688 15.064 28.216 37.112 56.056 75.672 88.216" y="140.859">Private</tspan><tspan id="tspan308" x="-7.25 13.038 32.718 41.614 61.934 81.614 94.766" y="169.206">helpers</tspan></text></g><path id="path312" d="m 10571.8,7650.94 h 2012.89 V 8983.52 H 10571.8 Z" style="fill:#fff;fill-opacity:1;fill-rule:nonzero;stroke:none"/><path id="path314" d="m 10571.8,7650.94 h 2012.89 V 8983.52 H 10571.8 Z" style="fill:none;stroke:#000;stroke-width:28.04610062;stroke-linecap:butt;stroke-linejoin:miter;stroke-miterlimit:4;stroke-dasharray:none;stroke-opacity:1"/><path id="path316" d="m 10571.8,6290.27 h 2012.89 V 7651.21 H 10571.8 Z" style="fill:#fff;fill-opacity:1;fill-rule:nonzero;stroke:none"/><path id="path318" d="m 10571.8,6290.27 h 2012.89 V 7651.21 H 10571.8 Z" style="fill:none;stroke:#000;stroke-width:28.04610062;stroke-linecap:butt;stroke-linejoin:miter;stroke-miterlimit:4;stroke-dasharray:none;stroke-opacity:1"/><g id="g320" transform="scale(10)"><text id="text330" transform="matrix(1,0,0,-1,1099.93,853.831)" style="font-variant:normal;font-weight:400;font-size:32px;font-family:Helvetica;-inkscape-font-specification:DejaVuSans;writing-mode:lr-tb;fill:#000;fill-opacity:1;fill-rule:nonzero;stroke:none"><tspan id="tspan322" x="0 25.184 45.504 54.4 74.08 91.68" y="0">Object</tspan><tspan id="tspan324" x="13.531 31.131 50.715 71.035" y="28.346">code</tspan><tspan id="tspan326" x="-3.688 15.064 28.216 37.112 56.056 75.672 88.216" y="140.859">Private</tspan><tspan id="tspan328" x="-7.25 13.038 32.718 41.614 61.934 81.614 94.766" y="169.206">helpers</tspan></text></g><path id="path332" d="m 10247.1,7252.58 h 2012.89 V 8585.16 H 10247.1 Z" style="fill:#fff;fill-opacity:1;fill-rule:nonzero;stroke:none"/><g id="g334" transform="scale(0.999999,-1)"><path id="path336" d="M 10247.1,-8585.15 H 12260 v 1332.57 h -2012.9 z" style="fill:none;stroke:#000;stroke-width:28.04610062;stroke-linecap:butt;stroke-linejoin:miter;stroke-miterlimit:4;stroke-dasharray:none;stroke-opacity:1"/></g><path id="path338" d="m 10247.1,5891.95 h 2012.89 V 7252.89 H 10247.1 Z" style="fill:#fff;fill-opacity:1;fill-rule:nonzero;stroke:none"/><g id="g340" transform="scale(0.999999,-1)"><path id="path342" d="M 10247.1,-7252.88 H 12260 v 1360.94 h -2012.9 z" style="fill:none;stroke:#000;stroke-width:28.04610062;stroke-linecap:butt;stroke-linejoin:miter;stroke-miterlimit:4;stroke-dasharray:none;stroke-opacity:1"/></g><g id="g344" transform="scale(10)"><text id="text354" transform="matrix(0.999998,0,0,-1,1067.46,813.996)" style="font-variant:normal;font-weight:400;font-size:32px;font-family:Helvetica;-inkscape-font-specification:DejaVuSans;writing-mode:lr-tb;fill:#000;fill-opacity:1;fill-rule:nonzero;stroke:none"><tspan id="tspan346" x="0 25.184 45.504 54.4 74.08 91.68" y="0">Object</tspan><tspan id="tspan348" x="13.531 31.131 50.715 71.035" y="28.346">code</tspan><tspan id="tspan350" x="-3.688 15.064 28.216 37.112 56.056 75.672 88.216" y="140.859">Private</tspan><tspan id="tspan352" x="-7.25 13.038 32.718 41.614 61.934 81.614 94.766" y="169.206">helpers</tspan></text></g><path id="path356" d="m 5471.64,10816.3 c 0,-477.9 -531.56,-865.28 -1187.26,-865.28 -655.67,0 -1187.23,387.38 -1187.23,865.28 0,477.9 531.56,865.3 1187.23,865.3 655.7,0 1187.26,-387.4 1187.26,-865.3 z" style="fill:#fff;fill-opacity:1;fill-rule:nonzero;stroke:none"/><path id="path358" d="m 5471.64,10816.3 c 0,-477.9 -531.56,-865.28 -1187.26,-865.28 -655.67,0 -1187.23,387.38 -1187.23,865.28 0,477.9 531.56,865.3 1187.23,865.3 655.7,0 1187.26,-387.4 1187.26,-865.3 z" style="fill:none;stroke:#000;stroke-width:28.3465004;stroke-linecap:butt;stroke-linejoin:miter;stroke-miterlimit:4;stroke-dasharray:none;stroke-opacity:1"/><g id="g360" transform="scale(10)"><text id="text366" transform="matrix(1,0,0,-1,345.164,1087.67)" style="font-variant:normal;font-weight:400;font-size:32px;font-family:Helvetica;-inkscape-font-specification:DejaVuSans;writing-mode:lr-tb;fill:#000;fill-opacity:1;fill-rule:nonzero;stroke:none"><tspan id="tspan362" x="0 14.88 28.032 47.648 67.936 84.704 93.6 113.216 125.76 145.344" y="0">Translator</tspan><tspan id="tspan364" x="55.656 82.472" y="28.346">#1</tspan></text></g><path id="path368" d="m 14989.7,10816.3 c 0,-477.9 -531.6,-865.28 -1187.3,-865.28 -655.7,0 -1187.2,387.38 -1187.2,865.28 0,477.9 531.5,865.3 1187.2,865.3 655.7,0 1187.3,-387.4 1187.3,-865.3 z" style="fill:#fff;fill-opacity:1;fill-rule:nonzero;stroke:none"/><path id="path370" d="m 14989.7,10816.3 c 0,-477.9 -531.6,-865.28 -1187.3,-865.28 -655.7,0 -1187.2,387.38 -1187.2,865.28 0,477.9 531.5,865.3 1187.2,865.3 655.7,0 1187.3,-387.4 1187.3,-865.3 z" style="fill:none;stroke:#000;stroke-width:28.3465004;stroke-linecap:butt;stroke-linejoin:miter;stroke-miterlimit:4;stroke-dasharray:none;stroke-opacity:1"/><g id="g372" transform="scale(10)"><text id="text378" transform="matrix(1,0,0,-1,1296.97,1087.67)" style="font-variant:normal;font-weight:400;font-size:32px;font-family:Helvetica;-inkscape-font-specification:DejaVuSans;writing-mode:lr-tb;fill:#000;fill-opacity:1;fill-rule:nonzero;stroke:none"><tspan id="tspan374" x="0 14.88 28.032 47.648 67.936 84.704 93.6 113.216 125.76 145.344" y="0">Translator</tspan><tspan id="tspan376" x="55.656 82.472" y="28.346">#2</tspan></text></g><path id="path380" d="m 7504.02,3672.73 c 0,-477.89 -540.54,-865.27 -1207.34,-865.27 -666.84,0 -1207.38,387.38 -1207.38,865.27 0,477.86 540.54,865.28 1207.38,865.28 666.8,0 1207.34,-387.42 1207.34,-865.28 z" style="fill:#fff;fill-opacity:1;fill-rule:nonzero;stroke:none"/><path id="path382" d="m 7504.02,3672.73 c 0,-477.89 -540.54,-865.27 -1207.34,-865.27 -666.84,0 -1207.38,387.38 -1207.38,865.27 0,477.86 540.54,865.28 1207.38,865.28 666.8,0 1207.34,-387.42 1207.34,-865.28 z" style="fill:none;stroke:#000;stroke-width:28.3465004;stroke-linecap:butt;stroke-linejoin:miter;stroke-miterlimit:4;stroke-dasharray:none;stroke-opacity:1"/><g id="g384" transform="scale(10)"><text id="text390" transform="matrix(1,0,0,-1,577.848,383.371)" style="font-variant:normal;font-weight:400;font-size:32px;font-family:Helvetica;-inkscape-font-specification:DejaVuSans;writing-mode:lr-tb;fill:#000;fill-opacity:1;fill-rule:nonzero;stroke:none"><tspan id="tspan386" x="0 20.32 32.864 52.48 65.024 73.92" y="0">Static</tspan><tspan id="tspan388" x="-27.094 -18.198 -9.302 10.986 28.426 48.106 61.258 71.434 98.25" y="28.346">linker #1</tspan></text></g><path id="path392" d="m 12313.4,3672.73 c 0,-477.89 -540.6,-865.27 -1207.4,-865.27 -666.8,0 -1207.37,387.38 -1207.37,865.27 0,477.86 540.57,865.28 1207.37,865.28 666.8,0 1207.4,-387.42 1207.4,-865.28 z" style="fill:#fff;fill-opacity:1;fill-rule:nonzero;stroke:none"/><path id="path394" d="m 12313.4,3672.73 c 0,-477.89 -540.6,-865.27 -1207.4,-865.27 -666.8,0 -1207.37,387.38 -1207.37,865.27 0,477.86 540.57,865.28 1207.37,865.28 666.8,0 1207.4,-387.42 1207.4,-865.28 z" style="fill:none;stroke:#000;stroke-width:28.3465004;stroke-linecap:butt;stroke-linejoin:miter;stroke-miterlimit:4;stroke-dasharray:none;stroke-opacity:1"/><g id="g396" transform="scale(10)"><text id="text402" transform="matrix(1,0,0,-1,1058.78,383.371)" style="font-variant:normal;font-weight:400;font-size:32px;font-family:Helvetica;-inkscape-font-specification:DejaVuSans;writing-mode:lr-tb;fill:#000;fill-opacity:1;fill-rule:nonzero;stroke:none"><tspan id="tspan398" x="0 20.32 32.864 52.48 65.024 73.92" y="0">Static</tspan><tspan id="tspan400" x="-27.094 -18.198 -9.302 10.986 28.426 48.106 61.258 71.434 98.25" y="28.346">linker #2</tspan></text></g><path id="path404" d="M 5149.65,473.199 H 7846.1 v 1026.25 H 5149.65 Z" style="fill:#fff;fill-opacity:1;fill-rule:nonzero;stroke:none"/><path id="path406" d="M 5149.65,473.199 H 7846.1 v 1026.25 H 5149.65 Z" style="fill:none;stroke:#000;stroke-width:28.3465004;stroke-linecap:butt;stroke-linejoin:miter;stroke-miterlimit:4;stroke-dasharray:none;stroke-opacity:1"/><g id="g408" transform="scale(10)"><text id="text412" transform="matrix(1,0,0,-1,559.339,91.5914)" style="font-variant:normal;font-weight:400;font-size:32px;font-family:Helvetica;-inkscape-font-specification:DejaVuSans;writing-mode:lr-tb;fill:#000;fill-opacity:1;fill-rule:nonzero;stroke:none"><tspan id="tspan410" x="0 20.224 38.208 57.888 75.488 95.776 108.32 128.032 148.352 157.248" y="0">Executable</tspan></text></g><path id="path414" d="m 9556.52,483.281 h 2696.45 v 1026.25 H 9556.52 Z" style="fill:#fff;fill-opacity:1;fill-rule:nonzero;stroke:none"/><path id="path416" d="m 9556.52,483.281 h 2696.45 v 1026.25 H 9556.52 Z" style="fill:none;stroke:#000;stroke-width:28.3465004;stroke-linecap:butt;stroke-linejoin:miter;stroke-miterlimit:4;stroke-dasharray:none;stroke-opacity:1"/><g id="g418" transform="scale(10)"><text id="text422" transform="matrix(1,0,0,-1,1000.03,92.5977)" style="font-variant:normal;font-weight:400;font-size:32px;font-family:Helvetica;-inkscape-font-specification:DejaVuSans;writing-mode:lr-tb;fill:#000;fill-opacity:1;fill-rule:nonzero;stroke:none"><tspan id="tspan420" x="0 20.224 38.208 57.888 75.488 95.776 108.32 128.032 148.352 157.248" y="0">Executable</tspan></text></g><path id="path424" d="M 1034.69,3539.42 H 4124.34 V 6288.91 H 1034.69 Z" style="fill:#fff;fill-opacity:1;fill-rule:nonzero;stroke:none"/><path id="path426" d="M 1034.69,3539.42 H 4124.34 V 6288.91 H 1034.69 Z" style="fill:none;stroke:#000;stroke-width:28.46279907;stroke-linecap:butt;stroke-linejoin:miter;stroke-miterlimit:4;stroke-dasharray:none;stroke-opacity:1"/><path id="path428" d="M 1031.68,1807.26 H 4127.34 V 3542.3 H 1031.68 Z" style="fill:#ddd;fill-opacity:1;fill-rule:nonzero;stroke:none"/><path id="path430" d="M 1031.68,1807.26 H 4127.34 V 3542.3 H 1031.68 Z" style="fill:none;stroke:#000;stroke-width:22.4503994;stroke-linecap:butt;stroke-linejoin:miter;stroke-miterlimit:4;stroke-dasharray:none;stroke-opacity:1"/><g id="g432" transform="scale(10)"><text id="text448" transform="matrix(1,0,0,-1,178.915,558.438)" style="font-variant:normal;font-weight:400;font-size:32px;font-family:Helvetica;-inkscape-font-specification:DejaVuSans;writing-mode:lr-tb;fill:#000;fill-opacity:1;fill-rule:nonzero;stroke:none"><tspan id="tspan434" x="0 16.672 36.96 57.248 74.944 87.488 96.384 115.968 136.256" y="0">Functions</tspan><tspan id="tspan436" x="42.125 66.061 91.245" y="34.016">NOT</tspan><tspan id="tspan438" x="-27.406 -10.734 1.81 21.426 41.714 62.034 81.746 94.354 114.674 123.57 140.37 160.05" y="68.032">standardized</tspan><tspan id="tspan440" x="-27.313 -6.993 11.951 22.127 34.671 54.959 74.639 84.815 106.703 127.024 148.912 170.864" y="102.047">by the AEABI</tspan><tspan id="tspan442" x="18.72 40.608 60.832 82.72 104.672" y="263.607">AEABI</tspan><tspan id="tspan444" x="-4.624 12.048 24.592 44.208 64.496 84.816 104.528 117.136" y="297.623">standard</tspan><tspan id="tspan446" x="-7.343 3.921 24.209 44.497 62.097 74.737 83.633 103.217 123.505" y="331.639">functions</tspan></text></g><path id="path450" d="m 11.2891,1807.35 h 997.891 V 6291.8 H 11.2891 Z" style="fill:#fff;fill-opacity:1;fill-rule:nonzero;stroke:none"/><path id="path452" d="m 11.2891,1807.35 h 997.891 V 6291.8 H 11.2891 Z" style="fill:none;stroke:#ddd;stroke-width:22.61249924;stroke-linecap:butt;stroke-linejoin:miter;stroke-miterlimit:4;stroke-dasharray:none;stroke-opacity:1"/><g id="g454" transform="scale(10)"><text id="text458" transform="matrix(0,1,1,0,66.0906,271.916)" style="font-variant:normal;font-weight:400;font-size:32px;font-family:Helvetica;-inkscape-font-specification:DejaVuSans;writing-mode:lr-tb;fill:#000;fill-opacity:1;fill-rule:nonzero;stroke:none"><tspan id="tspan456" x="0 20.832 41.12 61.408 72.96 85.504 94.4 125.568 145.248 155.52 164.416 173.312 193.632 206.784 226.4 239.552" y="0">Run-time library</tspan></text></g><g id="g460" transform="scale(1.12657)"><path id="path462" d="M 15414.3,5584.87 H 16300 V 1604.23 h -885.7" style="fill:#fff;fill-opacity:1;fill-rule:nonzero;stroke:none"/></g><g id="g464" transform="scale(1.12657)"><path id="path466" d="M 15414.3,5584.87 H 16300 V 1604.23 h -885.7 z" style="fill:none;stroke:#ddd;stroke-width:20.07209969;stroke-linecap:butt;stroke-linejoin:miter;stroke-miterlimit:4;stroke-dasharray:none;stroke-opacity:1"/></g><g id="g468" transform="scale(10)"><text id="text472" transform="matrix(0,-1,-1,0,1783.82,532.596)" style="font-variant:normal;font-weight:400;font-size:32px;font-family:Helvetica;-inkscape-font-specification:DejaVuSans;writing-mode:lr-tb;fill:#000;fill-opacity:1;fill-rule:nonzero;stroke:none"><tspan id="tspan470" x="0 20.832 41.12 61.408 72.96 85.504 94.4 125.568 145.248 155.52 164.416 173.312 193.632 206.784 226.4 239.552" y="0">Run-time library</tspan></text></g><g id="g474" transform="scale(1.06516)"><path id="path476" d="M 13399.4,5904.18 H 16300 V 3322.89 h -2900.6" style="fill:#fff;fill-opacity:1;fill-rule:nonzero;stroke:none"/></g><g id="g478" transform="scale(1.06516)"><path id="path480" d="M 13399.4,5904.18 H 16300 V 3322.89 h -2900.6 z" style="fill:none;stroke:#000;stroke-width:26.72159958;stroke-linecap:butt;stroke-linejoin:miter;stroke-miterlimit:4;stroke-dasharray:none;stroke-opacity:1"/></g><g id="g482" transform="scale(1.06535)"><path id="path484" d="M 13394.2,3325.02 H 16300 V 1696.41 h -2905.8" style="fill:#ddd;fill-opacity:1;fill-rule:nonzero;stroke:none"/></g><g id="g486" transform="scale(1.06535)"><path id="path488" d="M 13394.2,3325.02 H 16300 V 1696.41 h -2905.8 z" style="fill:none;stroke:#000;stroke-width:21.07329941;stroke-linecap:butt;stroke-linejoin:miter;stroke-miterlimit:4;stroke-dasharray:none;stroke-opacity:1"/></g><g id="g490" transform="scale(10)"><text id="text506" transform="matrix(1,0,0,-1,1502.69,558.438)" style="font-variant:normal;font-weight:400;font-size:32px;font-family:Helvetica;-inkscape-font-specification:DejaVuSans;writing-mode:lr-tb;fill:#000;fill-opacity:1;fill-rule:nonzero;stroke:none"><tspan id="tspan492" x="0 16.672 36.96 57.248 74.944 87.488 96.384 115.968 136.256" y="0">Functions</tspan><tspan id="tspan494" x="42.125 66.061 91.245" y="34.016">NOT</tspan><tspan id="tspan496" x="-27.406 -10.734 1.81 21.426 41.714 62.034 81.746 94.354 114.674 123.57 140.37 160.05" y="68.031">standardized</tspan><tspan id="tspan498" x="-27.313 -6.993 11.951 22.127 34.671 54.959 74.639 84.815 106.703 127.024 148.912 170.864" y="102.047">by the AEABI</tspan><tspan id="tspan500" x="18.719 40.607 60.831 82.719 104.671" y="263.608">AEABI</tspan><tspan id="tspan502" x="-4.624 12.048 24.592 44.208 64.496 84.816 104.528 117.136" y="297.623">standard</tspan><tspan id="tspan504" x="-7.343 3.921 24.209 44.497 62.097 74.737 83.633 103.217 123.505" y="331.639">functions</tspan></text></g><path id="path508" d="m 18.3594,7596.64 h 3420.86 V 9669.3 H 18.3594 Z" style="fill:#fff;fill-opacity:1;fill-rule:nonzero;stroke:none"/><path id="path510" d="m 18.3594,7596.64 h 3420.86 V 9669.3 H 18.3594 Z" style="fill:none;stroke:#ddd;stroke-width:22.4503994;stroke-linecap:butt;stroke-linejoin:miter;stroke-miterlimit:4;stroke-dasharray:none;stroke-opacity:1"/><g id="g512" transform="scale(10)"><text id="text522" transform="matrix(1,0,0,-1,19.948,912.598)" style="font-variant:normal;font-weight:400;font-size:32px;font-family:Helvetica;-inkscape-font-specification:DejaVuSans;writing-mode:lr-tb;fill:#000;fill-opacity:1;fill-rule:nonzero;stroke:none"><tspan id="tspan514" x="0 20.32 39.264 55.936 68.48 88.16 119.328 129.504 149.888 169.568 189.184 209.504 229.184 242.336" y="0">System headers</tspan><tspan id="tspan516" x="0 20.32 40 56.672 74.272 87.424 96.32 116.64 136.32 146.496 166.816 186.4 198.944" y="34.016">describe both</tspan><tspan id="tspan518" x="0 21.888 42.112 64 85.952 95.392 105.568 125.184 145.472 165.792 175.968 196.352 215.936 236.224" y="68.032">AEABI and non-</tspan><tspan id="tspan520" x="0 21.888 42.112 64 85.952 95.392 105.568 116.832 137.12 157.408 175.008 187.648 196.544 216.128 236.416" y="102.048">AEABI functions</tspan></text></g><path id="path524" d="M 4507.07,211.602 H 13889.8" style="fill:none;stroke:#000;stroke-width:28.3465004;stroke-linecap:butt;stroke-linejoin:miter;stroke-miterlimit:4;stroke-dasharray:none;stroke-opacity:1"/><path id="path526" d="M 4507.07,131.133 H 13889.8" style="fill:none;stroke:#000;stroke-width:28.3465004;stroke-linecap:butt;stroke-linejoin:miter;stroke-miterlimit:4;stroke-dasharray:none;stroke-opacity:1"/><g id="g528" transform="scale(10)"><text id="text532" transform="matrix(1,0,0,-1,1424.51,1.03906)" style="font-variant:normal;font-weight:400;font-size:32px;font-family:Helvetica;-inkscape-font-specification:DejaVuSans;writing-mode:lr-tb;fill:#000;fill-opacity:1;fill-rule:nonzero;stroke:none"><tspan id="tspan530" x="0 19.296 28.192 47.808 60.352 71.616 91.2 103.808 134.976 145.152 167.04 188.992 198.432" y="0">Platform ABI…</tspan></text></g></g></g></svg>