<svg xmlns="http://www.w3.org/2000/svg" xmlns:svg="http://www.w3.org/2000/svg" id="svg2" width="501.333" height="550.667" version="1.1" viewBox="0 0 501.333 550.667" xml:space="preserve"><metadata id="metadata8"/><g id="g10" transform="matrix(1.3333333,0,0,-1.3333333,0,550.66667)"><g id="g12" transform="scale(0.1)"><path id="path14" d="M 4.37891,685.512 H 3543.5589 v 1975.82 H 4.37891 Z" style="fill:#d3ffc1;fill-opacity:1;fill-rule:nonzero;stroke:none"/><path id="path16" d="M 4.37891,685.512 H 3543.5589 v 1975.82 H 4.37891 Z" style="fill:none;stroke:#000;stroke-width:8.73071003;stroke-linecap:butt;stroke-linejoin:miter;stroke-miterlimit:4;stroke-dasharray:none;stroke-opacity:1"/><path id="path18" d="M 172.809,3021.83 H 981.911 V 4125.74 H 172.809 Z" style="fill:#fec288;fill-opacity:1;fill-rule:nonzero;stroke:none"/><path id="path20" d="M 172.809,3021.83 H 981.911 V 4125.74 H 172.809 Z" style="fill:none;stroke:#090000;stroke-width:8.50393963;stroke-linecap:butt;stroke-linejoin:miter;stroke-miterlimit:4;stroke-dasharray:none;stroke-opacity:1"/><path id="path22" d="m 1038.4,3021.84 h 1560.2 v 862.422 H 1038.4 Z" style="fill:#fec288;fill-opacity:1;fill-rule:nonzero;stroke:none"/><path id="path24" d="m 1038.4,3021.84 h 1560.2 v 862.422 H 1038.4 Z" style="fill:none;stroke:#090000;stroke-width:8.50393963;stroke-linecap:butt;stroke-linejoin:miter;stroke-miterlimit:4;stroke-dasharray:none;stroke-opacity:1"/><path id="path26" d="m 2651.99,3021.95 h 860.621 V 4125.62 H 2651.99 Z" style="fill:#fec288;fill-opacity:1;fill-rule:nonzero;stroke:none"/><path id="path28" d="m 2651.99,3021.95 h 860.621 V 4125.62 H 2651.99 Z" style="fill:none;stroke:#090000;stroke-width:8.72789955;stroke-linecap:butt;stroke-linejoin:miter;stroke-miterlimit:4;stroke-dasharray:none;stroke-opacity:1"/><path id="path30" d="m 172.809,1676.41 h 3339.92 v 950.23 H 172.809 Z" style="fill:#d6d6d6;fill-opacity:1;fill-rule:nonzero;stroke:none"/><path id="path32" d="m 172.809,1676.41 h 3339.92 v 950.23 H 172.809 Z" style="fill:none;stroke:#090000;stroke-width:8.50393963;stroke-linecap:butt;stroke-linejoin:miter;stroke-miterlimit:4;stroke-dasharray:none;stroke-opacity:1"/><path id="path34" d="m 415.859,3496.96 h 539.41 v 578.629 h -539.41 z" style="fill:#fff;fill-opacity:1;fill-rule:nonzero;stroke:none"/><path id="path36" d="m 415.859,3496.96 h 539.41 v 578.629 h -539.41 z" style="fill:none;stroke:#090000;stroke-width:8.50393963;stroke-linecap:butt;stroke-linejoin:miter;stroke-miterlimit:4;stroke-dasharray:none;stroke-opacity:1"/><path id="path38" d="m 348.441,3369.96 h 537.848 v 577.027 H 348.441 Z" style="fill:#fff;fill-opacity:1;fill-rule:nonzero;stroke:none"/><path id="path40" d="m 348.441,3369.96 h 537.848 v 577.027 H 348.441 Z" style="fill:none;stroke:#090000;stroke-width:8.50393963;stroke-linecap:butt;stroke-linejoin:miter;stroke-miterlimit:4;stroke-dasharray:none;stroke-opacity:1"/><path id="path42" d="M 277.891,3238.24 H 820.43 V 3818.4 H 277.891 Z" style="fill:#fff;fill-opacity:1;fill-rule:nonzero;stroke:none"/><path id="path44" d="M 277.891,3238.24 H 820.43 V 3818.4 H 277.891 Z" style="fill:none;stroke:#090000;stroke-width:8.50393963;stroke-linecap:butt;stroke-linejoin:miter;stroke-miterlimit:4;stroke-dasharray:none;stroke-opacity:1"/><path id="path46" d="m 1140.31,3239.8 h 539.41 v 567.621 h -539.41 z" style="fill:#fff;fill-opacity:1;fill-rule:nonzero;stroke:none"/><path id="path48" d="m 1140.31,3239.8 h 539.41 v 567.621 h -539.41 z" style="fill:none;stroke:#090000;stroke-width:8.50393963;stroke-linecap:butt;stroke-linejoin:miter;stroke-miterlimit:4;stroke-dasharray:none;stroke-opacity:1"/><path id="path50" d="m 1952.54,3241.37 h 536.289 v 564.488 H 1952.54 Z" style="fill:#fff;fill-opacity:1;fill-rule:nonzero;stroke:none"/><path id="path52" d="m 1952.54,3241.37 h 536.289 v 564.488 H 1952.54 Z" style="fill:none;stroke:#090000;stroke-width:8.50393963;stroke-linecap:butt;stroke-linejoin:miter;stroke-miterlimit:4;stroke-dasharray:none;stroke-opacity:1"/><path id="path54" d="m 2874.57,3507.93 h 539.379 v 578.629 H 2874.57 Z" style="fill:#fff;fill-opacity:1;fill-rule:nonzero;stroke:none"/><path id="path56" d="m 2874.57,3507.93 h 539.379 v 578.629 H 2874.57 Z" style="fill:none;stroke:#090000;stroke-width:8.50393963;stroke-linecap:butt;stroke-linejoin:miter;stroke-miterlimit:4;stroke-dasharray:none;stroke-opacity:1"/><path id="path58" d="m 2808.71,3379.38 h 537.809 v 577.031 H 2808.71 Z" style="fill:#fff;fill-opacity:1;fill-rule:nonzero;stroke:none"/><path id="path60" d="m 2808.71,3379.38 h 537.809 v 577.031 H 2808.71 Z" style="fill:none;stroke:#090000;stroke-width:8.50393963;stroke-linecap:butt;stroke-linejoin:miter;stroke-miterlimit:4;stroke-dasharray:none;stroke-opacity:1"/><path id="path62" d="m 2742.85,3252.35 h 537.809 v 577.027 H 2742.85 Z" style="fill:#fff;fill-opacity:1;fill-rule:nonzero;stroke:none"/><path id="path64" d="m 2742.85,3252.35 h 537.809 v 577.027 H 2742.85 Z" style="fill:none;stroke:#090000;stroke-width:8.50393963;stroke-linecap:butt;stroke-linejoin:miter;stroke-miterlimit:4;stroke-dasharray:none;stroke-opacity:1"/><path id="path66" d="m 226.129,1947.69 h 801.293 v 620.938 H 226.129 Z" style="fill:#fff;fill-opacity:1;fill-rule:nonzero;stroke:none"/><path id="path68" d="m 226.129,1947.69 h 801.293 v 620.938 H 226.129 Z" style="fill:none;stroke:#090000;stroke-width:8.50393963;stroke-linecap:butt;stroke-linejoin:miter;stroke-miterlimit:4;stroke-dasharray:none;stroke-opacity:1"/><path id="path70" d="m 1027.42,1947.69 h 804.379 v 620.938 H 1027.42 Z" style="fill:#fff;fill-opacity:1;fill-rule:nonzero;stroke:none"/><path id="path72" d="m 1027.42,1947.69 h 804.379 v 620.938 H 1027.42 Z" style="fill:none;stroke:#090000;stroke-width:8.50393963;stroke-linecap:butt;stroke-linejoin:miter;stroke-miterlimit:4;stroke-dasharray:none;stroke-opacity:1"/><path id="path74" d="m 1830.27,1947.69 h 821.602 v 620.938 H 1830.27 Z" style="fill:#fff;fill-opacity:1;fill-rule:nonzero;stroke:none"/><path id="path76" d="m 1830.27,1947.69 h 821.602 v 620.938 H 1830.27 Z" style="fill:none;stroke:#090000;stroke-width:8.51189995;stroke-linecap:butt;stroke-linejoin:miter;stroke-miterlimit:4;stroke-dasharray:none;stroke-opacity:1"/><path id="path78" d="m 2651.88,1947.69 h 807.539 v 620.938 H 2651.88 Z" style="fill:#fff;fill-opacity:1;fill-rule:nonzero;stroke:none"/><path id="path80" d="m 2651.88,1947.69 h 807.539 v 620.938 H 2651.88 Z" style="fill:none;stroke:#090000;stroke-width:8.51461029;stroke-linecap:butt;stroke-linejoin:miter;stroke-miterlimit:4;stroke-dasharray:none;stroke-opacity:1"/><path id="path82" d="m 226.129,1812.82 h 1604.14 v 134.879 H 226.129 Z" style="fill:#fff;fill-opacity:1;fill-rule:nonzero;stroke:none"/><path id="path84" d="m 226.129,1812.82 h 1604.14 v 134.879 H 226.129 Z" style="fill:none;stroke:#090000;stroke-width:8.47593975;stroke-linecap:butt;stroke-linejoin:miter;stroke-miterlimit:4;stroke-dasharray:none;stroke-opacity:1"/><path id="path86" d="M 1830.27,1812.86 H 3459.41 V 1947.7 H 1830.27 Z" style="fill:#fff;fill-opacity:1;fill-rule:nonzero;stroke:none"/><path id="path88" d="M 1830.27,1812.86 H 3459.41 V 1947.7 H 1830.27 Z" style="fill:none;stroke:#090000;stroke-width:8.48351955;stroke-linecap:butt;stroke-linejoin:miter;stroke-miterlimit:4;stroke-dasharray:none;stroke-opacity:1"/><g id="g90" transform="scale(10)"><text id="text98" transform="matrix(1,0,0,-1,53.2641,397.992)" style="font-variant:normal;font-size:6px;font-family:Helvetica;-inkscape-font-specification:f-0-0;writing-mode:lr-tb;fill:#000;fill-opacity:1;fill-rule:nonzero;stroke:none"><tspan id="tspan92" x="0 4.332 7.998 12.666 16.668 18.336 20.004 21.672 23.34 25.008" y="0">RTOS ... N</tspan><tspan id="tspan94" x="-4.955 -.623 3.043 7.711 11.713 13.381" y="12.544">RTOS 2</tspan><tspan id="tspan96" x="-9.973 -5.641 -1.975 2.693 6.695 8.363" y="26.855">RTOS 1</tspan></text><text id="text108" transform="matrix(1,0,0,-1,40.19691,353.4597)" style="font-variant:normal;font-size:6px;font-family:Helvetica;-inkscape-font-specification:f-1-0;writing-mode:lr-tb;fill:#000;fill-opacity:1;fill-rule:nonzero;stroke:none"><tspan id="tspan100" x="0 4.332 7.668 11.004 12.354 15.354 18.69 20.358 23.694" y="0">Choice of</tspan><tspan id="tspan102" x="1.664 5.666 9.668 13.688 18.02 22.022" y="6">AAPCS,</tspan><tspan id="tspan104" x="-5.672 -.674 2.662 7.678 11.014 13.012 16.012 17.68 22.678 26.014 29.368" y="12">memory map,</tspan><tspan id="tspan106" x="6.182 9.518 11.186 14.186 15.854 17.522" y="18">etc...</tspan></text><text id="text116" transform="matrix(1,0,0,-1,30.52543,314.3335)" style="font-variant:normal;font-size:6px;font-family:Helvetica;-inkscape-font-specification:f-0-0;writing-mode:lr-tb;fill:#000;fill-opacity:1;fill-rule:nonzero;stroke:none"><tspan id="tspan110" x="0 4.332 7.668 10.002 13.338 15.006 17.004 19.866 23.532 26.868 29.202 32.538 34.206 39.54 42.876 44.874 48.21 49.878 52.722" y="0">Bare (&quot;bare metal&quot;)</tspan><tspan id="tspan112" x="5.859 9.525 11.193 14.529 16.527 18.525 22.209 24.543 29.877 31.545 33.543 36.879 42.213 43.881 45.549" y="6">platform family</tspan><tspan id="tspan114" x="89.783 93.785 97.121 98.789 104.123 105.791 110.459 114.461 116.129 120.461 124.793" y="-56.804">Palm OS ABI</tspan></text><text id="text126" transform="matrix(1,0,0,-1,287.19261,355.4979)" style="font-variant:normal;font-size:6px;font-family:Helvetica;-inkscape-font-specification:f-1-0;writing-mode:lr-tb;fill:#000;fill-opacity:1;fill-rule:nonzero;stroke:none"><tspan id="tspan118" x="0 4.002 7.338 10.674 12.024 13.356 16.356 19.692 21.36 22.692 26.028" y="0">Application</tspan><tspan id="tspan120" x="-1.078 1.922 3.59 6.926 10.262 13.598 16.934 18.95 22.286 25.286 26.954" y="6">standards +</tspan><tspan id="tspan122" x="8.344 11.68 15.016 16.348 17.698" y="12">build</tspan><tspan id="tspan124" x="-.498 2.838 6.174 8.172 11.526 16.524 19.86 21.528 24.864 26.862" y="18">parameters</tspan></text><text id="text132" transform="matrix(1,0,0,-1,204.23406,371.137)" style="font-variant:normal;font-size:6px;font-family:Helvetica;-inkscape-font-specification:f-0-0;writing-mode:lr-tb;fill:#000;fill-opacity:1;fill-rule:nonzero;stroke:none"><tspan id="tspan128" x="0 4.002 7.338 12.672 16.338 18.006 21.342 25.008 26.676 31.344" y="0">Symbian OS</tspan><tspan id="tspan130" x="12.51 16.842 21.174" y="6">ABI</tspan></text><text id="text150" transform="matrix(1,0,0,-1,126.93726,356.57059)" style="font-variant:normal;font-size:6px;font-family:Helvetica;-inkscape-font-specification:f-1-0;writing-mode:lr-tb;fill:#000;fill-opacity:1;fill-rule:nonzero;stroke:none"><tspan id="tspan134" x="0 4.002 7.338 10.674 12.024 13.356 16.356 19.692 21.36 22.692 26.028" y="0">Application</tspan><tspan id="tspan136" x="-1.078 1.922 3.59 6.926 10.262 13.598 16.934 18.95 22.286 25.286 26.954" y="6">standards +</tspan><tspan id="tspan138" x="8.344 11.68 15.016 16.348 17.698" y="12">build</tspan><tspan id="tspan140" x="-.498 2.838 6.174 8.172 11.526 16.524 19.86 21.528 24.864 26.862" y="18">parameters</tspan><tspan id="tspan142" x="79.029 83.031 86.367 89.703 91.053 92.385 95.385 98.721 100.389 101.721 105.057" y=".157">Application</tspan><tspan id="tspan144" x="77.951 80.951 82.619 85.955 89.291 92.627 95.963 97.979 101.315 104.315 105.983" y="6.157">standards +</tspan><tspan id="tspan146" x="87.373 90.709 94.045 95.377 96.727" y="12.157">build</tspan><tspan id="tspan148" x="78.531 81.867 85.203 87.201 90.555 95.553 98.889 100.557 103.893 105.891" y="18.157">parameters</tspan></text><text id="text174" transform="matrix(1,0,0,-1,312.55746,399.08979)" style="font-variant:normal;font-size:6px;font-family:Helvetica;-inkscape-font-specification:f-0-0;writing-mode:lr-tb;fill:#000;fill-opacity:1;fill-rule:nonzero;stroke:none"><tspan id="tspan152" x="0 1.668 3.336" y="0">...</tspan><tspan id="tspan154" x="-11.064 -6.396 -2.064" y="13.329">QNX</tspan><tspan id="tspan156" x="-28.02 -23.688 -21.354 -16.02 -14.352 -10.686 -9.018 -5.352 -1.686" y="27.953">Arm Linux</tspan><tspan id="tspan158" x="-18.352 -14.02 -9.688" y="33.953">ABI</tspan><tspan id="tspan160" x="-272.474 -269.63 -265.298 -261.962 -259.628 -256.292 -254.624 -250.958 -249.29 -245.954 -243.938 -241.94 -238.274 -235.94 -230.606 -182.144 -177.812 -174.146 -170.48 -168.482 -166.814 -165.146 -161.81 -99.822 -95.49 -91.824 -88.158 -86.16 -84.492 -82.824 -79.488 -20.076 -16.074 -12.072 -9.738 -6.402 -4.386 -2.718 -1.05 2.286" y="153.04">&quot;Bare platform&quot;DLL-likeDLL-likeSVr4-like</tspan><tspan id="tspan162" x="-241.455 -237.453 -235.785 -232.119 -228.453 -226.785 -223.449 -221.781 -218.445 -214.779 -211.113 -208.779 -205.443 -202.089 -198.753 -197.085 -193.749 -190.083 -186.747 -183.411 -91.748 -86.75 -83.084 -81.416 -79.418 -77.75 -74.084 -72.416 -69.08 -67.412 -64.076 -62.408 -60.074 -58.076 -54.41 -51.074 -49.406 -47.738 -44.402 -40.736 -37.07 -34.736 -31.382 -28.046 -24.71 -23.042 -19.706 -16.04 -12.704 -9.368 -6.014" y="212.625">Single address spaceMultiple virtual address spaces</tspan><tspan id="tspan164" x="-158.855 -154.523 -151.187 -147.851 -144.497 -142.829 -138.827 -137.159 -133.823 -131.825 -129.827 -126.161 -123.827 -118.493 -116.825 -112.493 -108.161" y="226.744">Base Platform ABI</tspan><tspan id="tspan166" x="-145.205 -140.873 -137.207 -133.541 -131.543 -127.859 -124.523 -121.187 -117.851" y="84.756">DLL-based</tspan><tspan id="tspan168" x="-151.199 -147.533 -145.865 -142.529 -140.531 -138.533 -134.849 -132.515 -127.181 -125.513 -123.515 -120.179 -114.845 -113.177 -111.509" y="90.756">platform family</tspan><tspan id="tspan170" x="-14.09 -10.088 -6.086 -3.752" y="84.756">SVr4</tspan><tspan id="tspan172" x="-28.756 -25.09 -23.422 -20.086 -18.088 -16.09 -12.406 -10.072 -4.738 -3.07 -1.072 2.264 7.598 9.266 10.934" y="90.756">platform family</tspan></text><text id="text210" transform="matrix(1,0,0,-1,29.82799,231.83809)" style="font-variant:normal;font-size:6px;font-family:Helvetica;-inkscape-font-specification:f-1-0;writing-mode:lr-tb;fill:#000;fill-opacity:1;fill-rule:nonzero;stroke:none"><tspan id="tspan176" x="0 4.332 7.668 9.336 12.672 15.672 19.008 22.362 27.36 28.692 31.692 35.028 36.36 37.71 40.71 42.378 43.71 47.046 50.382 53.718 57.072" y="0">No dynamically loaded</tspan><tspan id="tspan178" x="0 3.336 6.336 9.672 12.672 16.008 17.676 21.012 24.366 25.698 29.034 32.034 33.702 35.37 39.036 42.372" y="6">executables. The</tspan><tspan id="tspan180" x="0 4.332 7.998 12.666 16.668 18.336 19.668 22.668 24.336 27.336 29.004 32.34 34.008 35.34 38.34 41.676 43.008 44.358" y="12">RTOS is statically</tspan><tspan id="tspan182" x="0 1.332 2.664 6 9 12.354 15.69 17.358 21.69 23.022 24.69 28.026 29.694 31.362 34.698" y="18">linked with the</tspan><tspan id="tspan184" x="0 3.336 6.336 9.672 12.672 16.008 17.676 21.012 24.366 25.698 29.034 30.702 32.034 35.37 37.038 41.37 46.038 51.036" y="24">executable in ROM.</tspan><tspan id="tspan186" x="80.284 84.286 85.954 88.954 92.29 95.626 97.641 100.977 104.313 105.981 107.313 108.645 111.981 113.997 117.333 119.331 122.331 123.999 125.997 130.347 133.683 137.019" y="0">A shared library (DLL)</tspan><tspan id="tspan188" x="80.284 83.284 86.62 89.956 91.624 94.96 98.296 99.964 101.632 104.968 106.966 110.32 113.656 116.992 120.328 123.664 125.332 128.668" y="6">can be threaded by</tspan><tspan id="tspan190" x="80.284 85.282 88.618 89.95 91.618 92.95 96.304 97.636 100.972 102.64 105.976 107.974 111.327 114.327 117.663 120.663 123.663 126.999 129.999 131.667 132.999" y="12">multiple processes in</tspan><tspan id="tspan192" x="80.284 83.62 86.956 90.292 91.96 95.296 98.65 101.986 103.984 107.32 110.32 113.32 114.988 117.988 121.324 124.66 127.66 131.014" y="18">one address space.</tspan><tspan id="tspan194" x="160.881 164.883 166.551 170.883 174.219 177.555 179.223 182.223 185.559 188.913 190.581 193.917 197.253 198.921 203.919 207.255 210.591 213.945 217.281" y="0">A DLL can be mapped</tspan><tspan id="tspan196" x="160.881 164.217 165.885 167.553 169.221 172.557 175.893 177.561 180.561 183.897 188.895 192.231 193.899 197.235 200.571 203.925 205.923 209.259 212.259 215.259 216.927 218.259" y="6">at the same address in</tspan><tspan id="tspan198" x="160.881 165.879 169.215 170.547 172.215 173.547 176.901 178.233 181.569 183.237 186.237 187.569 189.567 191.235 194.571 197.925 199.257 200.925 204.261 207.597 210.933 212.948 216.284 219.284" y="12">multiple virtual address</tspan><tspan id="tspan200" x="160.881 163.881 167.217 170.553 173.553 176.889 179.889" y="18">spaces.</tspan><tspan id="tspan202" x="242.262 246.264 247.932 252.264 256.266 260.934 262.602 265.602 268.938 272.274 273.942 277.278 280.632 282.3 287.298 290.634 293.97 297.306 300.642" y="0">A DSO can be mapped</tspan><tspan id="tspan204" x="242.262 245.598 247.266 248.934 252.27 253.938 257.274 258.606 260.274 261.942 265.278 267.276 270.612 273.948 275.616 277.284 280.62 283.956 287.31 289.308 292.644 295.644" y="6">at a different address</tspan><tspan id="tspan206" x="242.262 243.594 246.93 248.598 251.934 255.27 258.27 261.624 263.292 266.628 268.626 271.962 274.962 278.298 281.298 284.298 285.966 287.634 290.97 294.306" y="12">in each process that</tspan><tspan id="tspan208" x="242.262 243.93 247.266 249.264 252.6 255.936 259.29 262.29 263.958 265.29 266.958" y="18">threads it.</tspan></text></g><path id="path212" d="m 3512.62,3021.95 h 237.34 v 1103.67 h -237.34 z" style="fill:#fff;fill-opacity:1;fill-rule:nonzero;stroke:none"/><path id="path214" d="m 3512.62,3021.95 h 237.34 v 1103.67 h -237.34 z" style="fill:none;stroke:#090000;stroke-width:8.67693996;stroke-linecap:butt;stroke-linejoin:miter;stroke-miterlimit:4;stroke-dasharray:none;stroke-opacity:1"/><g id="g216" transform="scale(10)"><text id="text220" transform="matrix(0,1,1,0,364.525,307.838)" style="font-variant:normal;font-weight:700;font-size:6px;font-family:Helvetica;-inkscape-font-specification:DejaVuSans-Bold;writing-mode:lr-tb;fill:#000;fill-opacity:1;fill-rule:nonzero;stroke:none"><tspan id="tspan218" x="0 4.404 8.526 12.798 16.374 19.332 23.4 26.268 30.336 32.424 36.72 38.778 42.846 45.714 48.324 52.446 55.404 61.674 63.762 67.332 70.2 74.25 78.54 82.836 86.886 89.862 94.158" y="0">Concrete platform standards</tspan></text></g><path id="path222" d="m 215.039,960.469 h 660.82 v 674.141 h -660.82 z" style="fill:#d6d6d6;fill-opacity:1;fill-rule:nonzero;stroke:none"/><path id="path224" d="m 215.039,960.469 h 660.82 v 674.141 h -660.82 z" style="fill:none;stroke:#000;stroke-width:8.73071003;stroke-linecap:butt;stroke-linejoin:miter;stroke-miterlimit:4;stroke-dasharray:none;stroke-opacity:1"/><path id="path226" d="m 875.859,1359.61 h 966.84 v 275 h -966.84 z" style="fill:#d6d6d6;fill-opacity:1;fill-rule:nonzero;stroke:none"/><path id="path228" d="m 875.859,1359.61 h 966.84 v 275 h -966.84 z" style="fill:none;stroke:#000;stroke-width:8.73071003;stroke-linecap:butt;stroke-linejoin:miter;stroke-miterlimit:4;stroke-dasharray:none;stroke-opacity:1"/><path id="path230" d="m 875.859,960.469 h 478.98 v 399.141 h -478.98 z" style="fill:#d6d6d6;fill-opacity:1;fill-rule:nonzero;stroke:none"/><path id="path232" d="m 875.859,960.469 h 478.98 v 399.141 h -478.98 z" style="fill:none;stroke:#000;stroke-width:8.7550602;stroke-linecap:butt;stroke-linejoin:miter;stroke-miterlimit:4;stroke-dasharray:none;stroke-opacity:1"/><path id="path234" d="m 1842.7,1250.98 h 538.871 v 383.629 H 1842.7 Z" style="fill:#d6d6d6;fill-opacity:1;fill-rule:nonzero;stroke:none"/><path id="path236" d="m 1842.7,1250.98 h 538.871 v 383.629 H 1842.7 Z" style="fill:none;stroke:#000;stroke-width:8.73071003;stroke-linecap:butt;stroke-linejoin:miter;stroke-miterlimit:4;stroke-dasharray:none;stroke-opacity:1"/><path id="path238" d="m 2381.56,1199.96 h 538.871 v 434.648 H 2381.56 Z" style="fill:#d6d6d6;fill-opacity:1;fill-rule:nonzero;stroke:none"/><path id="path240" d="m 2381.56,1199.96 h 538.871 v 434.648 H 2381.56 Z" style="fill:none;stroke:#000;stroke-width:8.73071003;stroke-linecap:butt;stroke-linejoin:miter;stroke-miterlimit:4;stroke-dasharray:none;stroke-opacity:1"/><path id="path242" d="m 2920.43,1199.96 h 536.641 v 434.648 H 2920.43 Z" style="fill:#d6d6d6;fill-opacity:1;fill-rule:nonzero;stroke:none"/><path id="path244" d="m 2920.43,1199.96 h 536.641 v 434.648 H 2920.43 Z" style="fill:none;stroke:#000;stroke-width:8.75306988;stroke-linecap:butt;stroke-linejoin:miter;stroke-miterlimit:4;stroke-dasharray:none;stroke-opacity:1"/><path id="path246" d="m 215.039,740.941 h 1139.8 v 219.527 h -1139.8 z" style="fill:#fff;fill-opacity:1;fill-rule:nonzero;stroke:none"/><path id="path248" d="m 215.039,740.941 h 1139.8 v 219.527 h -1139.8 z" style="fill:none;stroke:#000;stroke-width:8.73071003;stroke-linecap:butt;stroke-linejoin:miter;stroke-miterlimit:4;stroke-dasharray:none;stroke-opacity:1"/><path id="path250" d="m 1354.84,740.941 h 487.852 v 618.668 H 1354.84 Z" style="fill:#89bfff;fill-opacity:1;fill-rule:nonzero;stroke:none"/><path id="path252" d="m 1354.84,740.941 h 487.852 v 618.668 H 1354.84 Z" style="fill:none;stroke:#000;stroke-width:8.79804993;stroke-linecap:butt;stroke-linejoin:miter;stroke-miterlimit:4;stroke-dasharray:none;stroke-opacity:1"/><path id="path254" d="m 1842.7,740.941 h 538.871 V 1250.98 H 1842.7 Z" style="fill:#89bfff;fill-opacity:1;fill-rule:nonzero;stroke:none"/><path id="path256" d="m 1842.7,740.941 h 538.871 V 1250.98 H 1842.7 Z" style="fill:none;stroke:#000;stroke-width:8.74975014;stroke-linecap:butt;stroke-linejoin:miter;stroke-miterlimit:4;stroke-dasharray:none;stroke-opacity:1"/><path id="path258" d="m 2381.56,740.941 h 538.871 v 459.02 H 2381.56 Z" style="fill:#89bfff;fill-opacity:1;fill-rule:nonzero;stroke:none"/><path id="path260" d="m 2381.56,740.941 h 538.871 v 459.02 H 2381.56 Z" style="fill:none;stroke:#000;stroke-width:8.75187969;stroke-linecap:butt;stroke-linejoin:miter;stroke-miterlimit:4;stroke-dasharray:none;stroke-opacity:1"/><path id="path262" d="m 2920.43,902.809 h 536.641 v 297.152 H 2920.43 Z" style="fill:#d6d6d6;fill-opacity:1;fill-rule:nonzero;stroke:none"/><path id="path264" d="m 2920.43,902.809 h 536.641 v 297.152 H 2920.43 Z" style="fill:none;stroke:#000;stroke-width:8.71273041;stroke-linecap:butt;stroke-linejoin:miter;stroke-miterlimit:4;stroke-dasharray:none;stroke-opacity:1"/><path id="path266" d="m 2920.43,740.93 h 536.641 V 902.809 H 2920.43 Z" style="fill:#89bfff;fill-opacity:1;fill-rule:nonzero;stroke:none"/><path id="path268" d="m 2920.43,740.93 h 536.641 V 902.809 H 2920.43 Z" style="fill:none;stroke:#000;stroke-width:8.87117004;stroke-linecap:butt;stroke-linejoin:miter;stroke-miterlimit:4;stroke-dasharray:none;stroke-opacity:1"/><path id="path270" d="m 62.0313,11.3594 h 3421.64 v 649.73 H 62.0313 Z" style="fill:#fec288;fill-opacity:1;fill-rule:nonzero;stroke:none"/><path id="path272" d="m 62.0313,11.3594 h 3421.64 v 649.73 H 62.0313 Z" style="fill:none;stroke:#000;stroke-width:8.73071003;stroke-linecap:butt;stroke-linejoin:miter;stroke-miterlimit:4;stroke-dasharray:none;stroke-opacity:1"/><path id="path274" d="m 332.578,124.449 h 924.691 V 581.25 H 332.578 Z" style="fill:#fff;fill-opacity:1;fill-rule:nonzero;stroke:none"/><path id="path276" d="m 332.578,124.449 h 924.691 V 581.25 H 332.578 Z" style="fill:none;stroke:#000;stroke-width:8.73071003;stroke-linecap:butt;stroke-linejoin:miter;stroke-miterlimit:4;stroke-dasharray:none;stroke-opacity:1"/><path id="path278" d="m 217.27,69.0195 h 924.691 v 456.801 H 217.27 Z" style="fill:#fff;fill-opacity:1;fill-rule:nonzero;stroke:none"/><path id="path280" d="m 217.27,69.0195 h 924.691 v 456.801 H 217.27 Z" style="fill:none;stroke:#000;stroke-width:8.73071003;stroke-linecap:butt;stroke-linejoin:miter;stroke-miterlimit:4;stroke-dasharray:none;stroke-opacity:1"/><path id="path282" d="m 1729.61,171.02 h 649.73 v 461.25 h -649.73 z" style="fill:#fff;fill-opacity:1;fill-rule:nonzero;stroke:none"/><path id="path284" d="m 1729.61,171.02 h 649.73 v 461.25 h -649.73 z" style="fill:none;stroke:#000;stroke-width:8.73071003;stroke-linecap:butt;stroke-linejoin:miter;stroke-miterlimit:4;stroke-dasharray:none;stroke-opacity:1"/><path id="path286" d="m 1623.16,120 h 649.77 v 461.25 h -649.77 z" style="fill:#fff;fill-opacity:1;fill-rule:nonzero;stroke:none"/><path id="path288" d="m 1623.16,120 h 649.77 v 461.25 h -649.77 z" style="fill:none;stroke:#000;stroke-width:8.73071003;stroke-linecap:butt;stroke-linejoin:miter;stroke-miterlimit:4;stroke-dasharray:none;stroke-opacity:1"/><path id="path290" d="m 1514.53,66.8008 h 649.73 v 461.25 h -649.73 z" style="fill:#fff;fill-opacity:1;fill-rule:nonzero;stroke:none"/><path id="path292" d="m 1514.53,66.8008 h 649.73 v 461.25 h -649.73 z" style="fill:none;stroke:#000;stroke-width:8.73071003;stroke-linecap:butt;stroke-linejoin:miter;stroke-miterlimit:4;stroke-dasharray:none;stroke-opacity:1"/><path id="path294" d="m 2652.11,120 h 649.73 v 459.059 h -649.73 z" style="fill:#fff;fill-opacity:1;fill-rule:nonzero;stroke:none"/><path id="path296" d="m 2652.11,120 h 649.73 v 459.059 h -649.73 z" style="fill:none;stroke:#000;stroke-width:8.73071003;stroke-linecap:butt;stroke-linejoin:miter;stroke-miterlimit:4;stroke-dasharray:none;stroke-opacity:1"/><path id="path298" d="m 2539.02,69.0313 h 649.73 v 459.02 h -649.73 z" style="fill:#fff;fill-opacity:1;fill-rule:nonzero;stroke:none"/><path id="path300" d="m 2539.02,69.0313 h 649.73 v 459.02 h -649.73 z" style="fill:none;stroke:#000;stroke-width:8.73071003;stroke-linecap:butt;stroke-linejoin:miter;stroke-miterlimit:4;stroke-dasharray:none;stroke-opacity:1"/><g id="g302" transform="scale(10)"><text id="text312" transform="matrix(1,0,0,-1,45.0406,153.481)" style="font-variant:normal;font-weight:400;font-size:6px;font-family:Helvetica;-inkscape-font-specification:DejaVuSans;writing-mode:lr-tb;fill:#000;fill-opacity:1;fill-rule:nonzero;stroke:none"><tspan id="tspan304" x="0 4.266 8.37 11.988 16.176" y="0">AAPCS</tspan><tspan id="tspan306" x="-16.663 -13.147 -10.807 -7.135 -3.835 -.145 3.665 7.469 9.821 13.511 15.419 19.607 23.285 24.953" y="16.632">Procedure Call</tspan><tspan id="tspan308" x="-16.663 -12.853 -10.501 -6.823 -3.019 .791 4.469 6.851 10.661 12.569 14.681 18.353 20.819 22.727 25.079 28.883" y="22.632">Standard for the</tspan><tspan id="tspan310" x="-16.663 -12.559 -10.195 -4.351 -2.443 1.235 3.587 6.887 10.691 12.359 14.711 18.401 21.719 24.071 27.875 30.227" y="28.632">Arm architecture</tspan></text><text id="text402" transform="matrix(1,0,0,-1,102.8937,152.5939)" style="font-variant:normal;font-size:6px;font-family:Helvetica;-inkscape-font-specification:f-1-0;writing-mode:lr-tb;fill:#000;fill-opacity:1;fill-rule:nonzero;stroke:none"><tspan id="tspan314" x="0 4.332 8.334 12.354 16.356 20.358 22.026 23.694 25.692 27.36 31.692 35.196 38.7 40.368 44.37 48.372 50.04 51.708 53.376 56.712 58.71 60.378 62.046 65.382" y="0">CPPABI - C++ ABI for the</tspan><tspan id="tspan316" x="12.34 16.342 18.34 23.356 25.024 28.36 30.358 33.358 36.694 38.026 39.694 43.03 46.03 47.698 51.034 53.05" y="6">Arm architecture</tspan><tspan id="tspan318" x="90.742 94.744 98.746 102.766 106.102 109.768 111.436 113.434 115.102 119.104 122.44" y="0">AAELF - ELF</tspan><tspan id="tspan320" x="93.584 95.252 98.588 100.586 102.254 103.922 107.258 110.594 112.262 116.264 118.262" y="6">for the Arm</tspan><tspan id="tspan322" x="92.746 96.082 98.08 101.08 104.416 105.766 107.434 110.77 113.77 115.438 118.774 120.772" y="12">architecture</tspan><tspan id="tspan324" x="144.807 148.809 152.811 157.161 162.825 166.827 171.159 174.825 176.493" y="0">AADWARF -</tspan><tspan id="tspan326" x="146.312 150.644 156.308 160.31 164.642 168.308 169.976 171.644 174.98" y="6">DWARF for</tspan><tspan id="tspan328" x="151.141 152.809 156.145 159.481 161.149 165.151 167.149" y="12">the Arm</tspan><tspan id="tspan330" x="145.967 149.303 151.301 154.301 157.637 158.987 160.655 163.991 166.991 168.659 171.995 173.993" y="18">architecture</tspan><tspan id="tspan332" x="205.084 209.416 213.082 217.084 221.104 222.772 224.44" y="-.222">RTABI -</tspan><tspan id="tspan334" x="197.907 202.239 205.575 208.911 210.927 212.595 213.927 218.925 222.261 223.929 227.931 231.95" y="5.778">Run-time ABI</tspan><tspan id="tspan336" x="200.913 202.581 205.917 207.915 209.583 211.25 214.587 217.923 219.59 223.593 225.59" y="11.778">for the Arm</tspan><tspan id="tspan338" x="200.075 203.411 205.409 208.409 211.745 213.095 214.763 218.099 221.099 222.767 226.103 228.101" y="17.778">architecture</tspan><tspan id="tspan340" x="-3.756 .246 4.578 8.598 12.6 14.268 15.936" y="26.611">EHABI -</tspan><tspan id="tspan342" x="-6.094 -2.092 .908 3.908 7.244 10.58 12.248 13.58 16.934" y="32.611">Exception</tspan><tspan id="tspan344" x="-10.436 -6.104 -2.768 .568 3.922 5.254 6.586 9.922 13.258 14.926 18.928 22.948" y="38.611">Handling ABI</tspan><tspan id="tspan346" x="-7.758 -6.09 -2.754 -.756 .912 2.58 5.916 9.252 10.92 14.922 16.92" y="44.611">for the Arm</tspan><tspan id="tspan348" x="-8.596 -5.26 -3.262 -.262 3.074 4.424 6.092 9.428 12.428 14.096 17.432 19.43" y="50.611">architecture</tspan><tspan id="tspan350" x="52.254 55.92 59.256" y="27.054">The</tspan><tspan id="tspan352" x="46.916 51.584 54.92 58.256 61.592 63.59 64.94" y="33.054">Generic</tspan><tspan id="tspan354" x="46.084 50.416 53.92 57.424 59.092 63.094 67.096" y="39.054">C++ ABI</tspan><tspan id="tspan356" x="38.692 40.69 44.026 47.026 50.362 52.03 53.698 55.366 58.702 62.038 63.37 66.724" y="58.1">(aka Itanium</tspan><tspan id="tspan358" x="42.864 47.196 50.7 54.204 55.872 59.874 63.876 65.544" y="64.1">C++ ABI)</tspan><tspan id="tspan360" x="93.019 96.685 100.021 103.357 105.025 108.361 111.697 115.051 118.387 120.385 121.717" y="37.033">The generic</tspan><tspan id="tspan362" x="103.367 107.369 110.705" y="43.033">ELF</tspan><tspan id="tspan364" x="97.191 100.191 101.859 105.195 108.531 111.867 115.203 117.219" y="49.033">standard</tspan><tspan id="tspan366" x="90.413 92.411 96.413 100.433 102.431 105.767 107.435 112.103 116.105 120.107 121.775" y="67.635">(SVr4 GABI)</tspan><tspan id="tspan368" x="145.423 149.755 155.419 159.421 163.753 167.419 169.087 172.423 174.091" y="43.686">DWARF 3.0</tspan><tspan id="tspan370" x="202.412 206.744 210.746 214.082 215.75 219.77 223.772 225.44 227.108" y="41.912">CBLIABI -</tspan><tspan id="tspan372" x="205.752 209.754 214.086 218.106 219.774 221.442" y="47.912">ANSI C</tspan><tspan id="tspan374" x="199.412 200.744 202.076 205.412 207.428 210.764 212.762 215.762 217.43 221.432 225.452 227.12 228.788 230.456" y="53.912">library ABI...</tspan><tspan id="tspan376" x="202.418 205.754 207.752 209.42 211.088 214.424 216.422 221.438 224.774" y="72.735">ar format</tspan><tspan id="tspan378" x="-58.509 -56.841 -53.505 -51.837 -48.501 -47.169 -45.501 -41.499 -37.497 -34.497 -31.143 -29.811 -26.475 -24.807 -20.805 -16.803" y="109.768">Intel XScale ABI</tspan><tspan id="tspan380" x="-63.009 -61.341 -59.673 -58.005 -56.355 -53.019 -49.683 -46.347 -44.679 -40.659 -36.657 -34.989 -31.989 -30.321 -28.653 -25.317 -23.319 -21.651 -18.315 -16.647 -13.311 -9.975" y="125.957">... and ABIs for other</tspan><tspan id="tspan382" x="-68.851 -64.519 -60.517 -56.185 -53.185 -51.517 -49.849 -46.513 -43.177 -41.509 -39.841 -38.509 -33.493 -30.157 -28.825 -25.489 -20.473 -17.137 -13.801 -12.133 -10.465 -8.797 -5.461" y="131.957">CPUs that implement the</tspan><tspan id="tspan384" x="-57.513 -53.511 -51.513 -46.497 -44.829 -41.493 -39.495 -36.495 -33.159 -31.827 -30.159 -26.823 -23.823 -22.155 -18.819 -16.802" y="137.957">Arm architecture</tspan><tspan id="tspan386" x="65.035 69.037 71.035 76.051 77.719 82.051 83.719 88.051 91.555" y="110.434">Arm C/C++</tspan><tspan id="tspan388" x="67.69 69.022 72.358 75.694 79.047 82.383 85.719 89.055" y="116.434">language</tspan><tspan id="tspan390" x="65.697 69.033 72.033 73.701 77.037 80.373 83.373 84.705 88.06 91.396" y="122.434">extensions</tspan><tspan id="tspan392" x="66.717 70.719 72.387 75.387 77.055 78.723 82.059 83.727 86.727 88.395 90.063 91.713" y="134.434">Etc, etc ...</tspan><tspan id="tspan394" x="167.707 171.709 175.045 178.045 179.377 182.377 184.045 188.065 190.063" y="110.434">Basic Arm</tspan><tspan id="tspan396" x="168.709 172.045 175.045 178.045 181.381 186.379 189.733 191.065" y="116.434">assembly</tspan><tspan id="tspan398" x="169.031 170.363 173.699 177.035 180.389 183.725 187.061 190.397" y="122.434">language</tspan><tspan id="tspan400" x="173.725 177.727 179.395 182.395 184.063 185.731 187.399" y="134.434">Etc ...</tspan></text><text id="text408" transform="matrix(0,1,1,0,11.6941,72.6195)" style="font-variant:normal;font-size:6px;font-family:Helvetica;-inkscape-font-specification:f-0-0;writing-mode:lr-tb;fill:#000;fill-opacity:1;fill-rule:nonzero;stroke:none"><tspan id="tspan404" x="0 4.332 8.664 10.332 12 13.998 17.664 19.998 21.666 23.664 27.33 30.666 32.334 36.666 39 44.334 46.002 50.334 52.668 56.004 59.67 61.338 63.354 66.69 70.026 72.024 75.69 78.024 81.378 83.046 85.044 88.71 92.046 95.382 98.718 100.386 103.722 105.738 109.074 112.74 116.406 119.742 122.076 125.742" y="0">ABI for the Arm Architecture (base standard)</tspan><tspan id="tspan406" x="-67.26 -62.928 -59.592 -57.924 -54.588 -52.59 -49.236 -45.57 -43.902 -40.566 -38.568 -35.232 -31.566 -27.9 -24.546 -22.212 -18.546" y="5.766">Related standards</tspan></text><text id="text414" transform="matrix(1,0,0,-1,45.2633,86.068)" style="font-variant:normal;font-size:6px;font-family:Helvetica;-inkscape-font-specification:f-0-0;writing-mode:lr-tb;fill:#000;fill-opacity:1;fill-rule:nonzero;stroke:none"><tspan id="tspan410" x="0 4.332 7.668 11.334 15 18.666 20.334 24.666 29.016 30.684 32.352 34.35 38.016 40.35 42.018 44.016 47.682 51.018 52.686 57.018 59.352" y="0">Debug ABI for the Arm</tspan><tspan id="tspan412" x="15.158 18.494 20.828 24.164 27.83 29.498 31.496 34.832 38.186 40.184 43.85 46.184" y="6">architecture</tspan></text><text id="text418" transform="matrix(1,0,0,-1,149.675,291.634)" style="font-variant:normal;font-size:6px;font-family:Helvetica;-inkscape-font-specification:f-1-0;writing-mode:lr-tb;fill:#000;fill-opacity:1;fill-rule:nonzero;stroke:none"><tspan id="tspan416" x="0 4.668 8.004 11.34 14.676 16.674 18.024 21.024 22.692 26.028 29.364 30.696 32.028 35.364 37.032 40.368 43.722 45.72 49.056 54.072 57.408 59.076 62.412 64.41" y="0">Generic build parameters</tspan></text><text id="text422" transform="matrix(1,0,0,-1,71.8258,281.4336)" style="font-variant:normal;font-size:6px;font-family:Helvetica;-inkscape-font-specification:f-4-0;writing-mode:lr-tb;fill:#000;fill-opacity:1;fill-rule:nonzero;stroke:none"><tspan id="tspan420" x="0 1.668 5.004 6.672 10.008 12.006 13.674 17.01 20.01 23.346 25.014 28.35 31.686 33.354 37.686 41.04 44.376 47.712 49.38 52.716 56.052 57.384 60.738 63.738 65.406 67.074 70.41 72.408 75.744 79.08 82.416 85.416 86.766 90.102 93.438 95.106 96.774 100.11 103.446 104.778 107.778 109.446 112.782 116.118 119.472 121.14 124.14 125.808 129.144 130.812 132.144 135.144 136.812 140.148 143.148 146.484 149.484 152.82 154.488 155.82 159.156 162.492 164.16 167.496 170.85 173.85 175.182 177.18 180.516 183.87 188.868 192.204 195.54 197.208 200.208 201.876 203.874 208.542 212.544 215.88 218.88" y="0">Interface between object producing tools and static execution environments (OSes)</tspan></text><text id="text426" transform="matrix(1,0,0,-1,72.934,271.67618)" style="font-variant:normal;font-size:6px;font-family:Helvetica;-inkscape-font-specification:f-1-0;writing-mode:lr-tb;fill:#000;fill-opacity:1;fill-rule:nonzero;stroke:none"><tspan id="tspan424" x="0 4.002 7.338 10.338 13.674 15.342 18.678 20.028 23.364 25.032 26.7 30.036 32.034 37.032 38.7 42.036 45.036 48.372 51.372 54.726 56.394 59.73 63.066 64.398 67.734 70.734 72.402 74.4 76.068 79.404 81.42 83.088 86.424 87.756 91.092 92.76 94.428 97.764 99.762 104.778 106.776 109.776 113.112 116.448 119.448 120.798 122.466 123.798 126.798 128.466 131.802 135.138 138.138 139.806 141.804 143.136 144.468 147.822 150.822 152.154 155.49 158.826 160.494 163.83 167.166 170.52 172.188 176.52 181.188 186.186 187.854 191.19 194.526 197.862 201.198 203.214 206.55 208.218 209.55 212.886 216.222" y="0">Base platform executables (for platform-specific post-linking and ROM generation)</tspan></text></g><path id="path428" d="m 2239.65,2982.85 v -77.62" style="fill:none;stroke:#000;stroke-width:7.51180983;stroke-linecap:butt;stroke-linejoin:miter;stroke-miterlimit:4;stroke-dasharray:none;stroke-opacity:1"/><path id="path430" d="m 2248.75,2919.73 -9.06,-24.65 -9.07,24.65 c 5.36,-3.95 12.66,-3.91 18.13,0 z" style="fill:#000;fill-opacity:1;fill-rule:evenodd;stroke:none"/><path id="path432" d="m 2248.75,2919.73 -9.06,-24.65 -9.07,24.65 c 5.36,-3.95 12.66,-3.91 18.13,0 z" style="fill:none;stroke:#000;stroke-width:1.40846002;stroke-linecap:butt;stroke-linejoin:round;stroke-miterlimit:4;stroke-dasharray:none;stroke-opacity:1"/><path id="path434" d="M 3011.37,2701.25 V 2770" style="fill:none;stroke:#000;stroke-width:7.51180983;stroke-linecap:butt;stroke-linejoin:miter;stroke-miterlimit:4;stroke-dasharray:none;stroke-opacity:1"/><path id="path436" d="m 3002.27,2755.51 9.06,24.65 9.06,-24.65 c -5.35,3.94 -12.69,3.9 -18.12,0 z" style="fill:#000;fill-opacity:1;fill-rule:evenodd;stroke:none"/><path id="path438" d="m 3002.27,2755.51 9.06,24.65 9.06,-24.65 c -5.35,3.94 -12.69,3.9 -18.12,0 z" style="fill:none;stroke:#000;stroke-width:1.40846002;stroke-linecap:butt;stroke-linejoin:round;stroke-miterlimit:4;stroke-dasharray:none;stroke-opacity:1"/></g></g></svg>