<svg xmlns="http://www.w3.org/2000/svg" xmlns:svg="http://www.w3.org/2000/svg" id="svg2" width="369.333" height="242.667" version="1.1" viewBox="0 0 369.333 242.667" xml:space="preserve"><metadata id="metadata8"/><g id="g10" transform="matrix(1.3333333,0,0,-1.3333333,0,242.66667)"><g id="g12" transform="scale(0.1)"><path id="path14" d="M 1291.45,303.871 H 2050" style="fill:none;stroke:#000;stroke-width:7.5;stroke-linecap:butt;stroke-linejoin:miter;stroke-miterlimit:4;stroke-dasharray:none;stroke-opacity:1"/><path id="path16" d="m 1969.8,337.148 90.16,-33.168 -90.16,-33.121 c 14.42,19.571 14.34,46.332 0,66.289 z" style="fill:#000;fill-opacity:1;fill-rule:evenodd;stroke:none"/><path id="path18" d="m 1969.8,337.148 90.16,-33.168 -90.16,-33.121 c 14.42,19.571 14.34,46.332 0,66.289 z" style="fill:none;stroke:#000;stroke-width:5.15625;stroke-linecap:butt;stroke-linejoin:round;stroke-miterlimit:4;stroke-dasharray:none;stroke-opacity:1"/><path id="path20" d="m 900,303.871 v 360 h 1150" style="fill:none;stroke:#000;stroke-width:7.5;stroke-linecap:butt;stroke-linejoin:miter;stroke-miterlimit:4;stroke-dasharray:none;stroke-opacity:1"/><path id="path22" d="m 1969.8,697.148 90.16,-33.168 -90.16,-33.121 c 14.42,19.571 14.34,46.332 0,66.289 z" style="fill:#000;fill-opacity:1;fill-rule:evenodd;stroke:none"/><path id="path24" d="m 1969.8,697.148 90.16,-33.168 -90.16,-33.121 c 14.42,19.571 14.34,46.332 0,66.289 z" style="fill:none;stroke:#000;stroke-width:5.15625;stroke-linecap:butt;stroke-linejoin:round;stroke-miterlimit:4;stroke-dasharray:none;stroke-opacity:1"/><path id="path26" d="M 540,303.871 V 1023.87 H 2050" style="fill:none;stroke:#000;stroke-width:7.5;stroke-linecap:butt;stroke-linejoin:miter;stroke-miterlimit:4;stroke-dasharray:none;stroke-opacity:1"/><path id="path28" d="m 1969.8,1057.15 90.16,-33.17 -90.16,-33.121 c 14.42,19.571 14.34,46.331 0,66.291 z" style="fill:#000;fill-opacity:1;fill-rule:evenodd;stroke:none"/><path id="path30" d="m 1969.8,1057.15 90.16,-33.17 -90.16,-33.121 c 14.42,19.571 14.34,46.331 0,66.291 z" style="fill:none;stroke:#000;stroke-width:5.15625;stroke-linecap:butt;stroke-linejoin:round;stroke-miterlimit:4;stroke-dasharray:none;stroke-opacity:1"/><path id="path32" d="M 180,303.871 V 1383.87 h 1870" style="fill:none;stroke:#000;stroke-width:7.5;stroke-linecap:butt;stroke-linejoin:miter;stroke-miterlimit:4;stroke-dasharray:none;stroke-opacity:1"/><path id="path34" d="m 1969.8,1417.15 90.16,-33.17 -90.16,-33.12 c 14.42,19.57 14.34,46.33 0,66.29 z" style="fill:#000;fill-opacity:1;fill-rule:evenodd;stroke:none"/><path id="path36" d="m 1969.8,1417.15 90.16,-33.17 -90.16,-33.12 c 14.42,19.57 14.34,46.33 0,66.29 z" style="fill:none;stroke:#000;stroke-width:5.15625;stroke-linecap:butt;stroke-linejoin:round;stroke-miterlimit:4;stroke-dasharray:none;stroke-opacity:1"/><path id="path38" d="m 2103.87,127.73 h 352.27 V 500 h -352.27 z" style="fill:#fff;fill-opacity:1;fill-rule:nonzero;stroke:none"/><path id="path40" d="m 2103.87,127.73 h 352.27 V 500 h -352.27 z" style="fill:none;stroke:#000;stroke-width:7.69644022;stroke-linecap:butt;stroke-linejoin:miter;stroke-miterlimit:4;stroke-dasharray:none;stroke-opacity:1"/><path id="path42" d="m 2103.87,487.73 h 352.27 V 860 h -352.27 z" style="fill:#fff;fill-opacity:1;fill-rule:nonzero;stroke:none"/><path id="path44" d="m 2103.87,487.73 h 352.27 V 860 h -352.27 z" style="fill:none;stroke:#000;stroke-width:7.69644022;stroke-linecap:butt;stroke-linejoin:miter;stroke-miterlimit:4;stroke-dasharray:none;stroke-opacity:1"/><path id="path46" d="m 2103.87,847.73 h 352.27 V 1220 h -352.27 z" style="fill:#fff;fill-opacity:1;fill-rule:nonzero;stroke:none"/><path id="path48" d="m 2103.87,847.73 h 352.27 V 1220 h -352.27 z" style="fill:none;stroke:#000;stroke-width:7.69644022;stroke-linecap:butt;stroke-linejoin:miter;stroke-miterlimit:4;stroke-dasharray:none;stroke-opacity:1"/><path id="path50" d="m 3.87109,127.73 h 372.27 V 480 h -372.27 z" style="fill:#fff;fill-opacity:1;fill-rule:nonzero;stroke:none"/><path id="path52" d="m 3.87109,127.73 h 372.27 V 480 h -372.27 z" style="fill:none;stroke:#000;stroke-width:7.69644022;stroke-linecap:butt;stroke-linejoin:miter;stroke-miterlimit:4;stroke-dasharray:none;stroke-opacity:1"/><path id="path54" d="m 363.871,127.73 h 372.27 V 480 h -372.27 z" style="fill:#fff;fill-opacity:1;fill-rule:nonzero;stroke:none"/><path id="path56" d="m 363.871,127.73 h 372.27 V 480 h -372.27 z" style="fill:none;stroke:#000;stroke-width:7.69644022;stroke-linecap:butt;stroke-linejoin:miter;stroke-miterlimit:4;stroke-dasharray:none;stroke-opacity:1"/><path id="path58" d="m 723.871,127.73 h 372.27 V 480 h -372.27 z" style="fill:#fff;fill-opacity:1;fill-rule:nonzero;stroke:none"/><path id="path60" d="m 723.871,127.73 h 372.27 V 480 h -372.27 z" style="fill:none;stroke:#000;stroke-width:7.69644022;stroke-linecap:butt;stroke-linejoin:miter;stroke-miterlimit:4;stroke-dasharray:none;stroke-opacity:1"/><path id="path62" d="m 1083.75,127.621 h 352.5 v 352.5 h -352.5 z" style="fill:#fff;fill-opacity:1;fill-rule:nonzero;stroke:none"/><path id="path64" d="m 1083.75,127.621 h 352.5 v 352.5 h -352.5 z" style="fill:none;stroke:#000;stroke-width:7.49123001;stroke-linecap:butt;stroke-linejoin:miter;stroke-miterlimit:4;stroke-dasharray:none;stroke-opacity:1"/><g id="g66" transform="scale(10)"><text id="text70" transform="matrix(1.00002,0,0,-1,4.28008,27.5566)" style="font-variant:normal;font-weight:400;font-size:12.00024033px;font-family:Helvetica;-inkscape-font-specification:DejaVuSans;writing-mode:lr-tb;fill:#000;fill-opacity:1;fill-rule:nonzero;stroke:none"><tspan id="tspan68" x="0 10.356 17.976" y="0">MSB</tspan></text><text id="text76" transform="matrix(1,0,0,-1,113.512,27.5566)" style="font-variant:normal;font-weight:400;font-size:12px;font-family:Helvetica;-inkscape-font-specification:DejaVuSans;writing-mode:lr-tb;fill:#000;fill-opacity:1;fill-rule:nonzero;stroke:none"><tspan id="tspan72" x="0 6.684 14.304" y="0">LSB</tspan><tspan id="tspan74" x="-60.108 -50.664 -43.044 -39.708 -32.328 -25.728 89.88 100.236 107.616 119.304 126.648 131.58" y="-145.326">ObjectMemory</tspan></text></g><path id="path78" d="m 2103.75,1207.62 h 352.5 v 352.5 h -352.5 z" style="fill:#fff;fill-opacity:1;fill-rule:nonzero;stroke:none"/><path id="path80" d="m 2103.75,1207.62 h 352.5 v 352.5 h -352.5 z" style="fill:none;stroke:#000;stroke-width:7.49123001;stroke-linecap:butt;stroke-linejoin:miter;stroke-miterlimit:4;stroke-dasharray:none;stroke-opacity:1"/><g id="g82" transform="scale(10)"><text id="text92" transform="matrix(1,0,0,-1,248.822,135.557)" style="font-variant:normal;font-weight:400;font-size:12px;font-family:Helvetica;-inkscape-font-specification:DejaVuSans;writing-mode:lr-tb;fill:#000;fill-opacity:1;fill-rule:nonzero;stroke:none"><tspan id="tspan84" x="0 10.356 20.412" y="0">M+3</tspan><tspan id="tspan86" x="0 10.356 20.412" y="36.17">M+2</tspan><tspan id="tspan88" x="0 10.356 20.412" y="72.17">M+1</tspan><tspan id="tspan90" x="0 10.356 20.412" y="108">M+0</tspan></text><text id="text98" transform="matrix(1,0,0,-1,0.384,0.6613)" style="font-variant:normal;font-weight:400;font-size:8px;font-family:Helvetica;-inkscape-font-specification:DejaVuSans;writing-mode:lr-tb;fill:#000;fill-opacity:1;fill-rule:nonzero;stroke:none"><tspan id="tspan94" x="0 5.088" y="0">31</tspan><tspan id="tspan96" x="138.147" y="-.01">0</tspan></text></g></g></g></svg>