<svg xmlns="http://www.w3.org/2000/svg" xmlns:svg="http://www.w3.org/2000/svg" id="svg2" width="354.667" height="272" version="1.1" viewBox="0 0 354.667 272" xml:space="preserve"><metadata id="metadata8"/><g id="g10" transform="matrix(1.3333333,0,0,-1.3333333,0,272)"><g id="g12" transform="scale(0.1)"><path id="path14" d="m 291.25,1258.75 h 2355.86 v 777.5 H 291.25 Z" style="fill:none;stroke:#000;stroke-width:7.51180983;stroke-linecap:butt;stroke-linejoin:miter;stroke-miterlimit:4;stroke-dasharray:none;stroke-opacity:1"/><path id="path16" d="m 291.602,5.14844 h 2355.16 v 944.773 H 291.602 Z" style="fill:none;stroke:#000;stroke-width:8.27923012;stroke-linecap:butt;stroke-linejoin:miter;stroke-miterlimit:4;stroke-dasharray:none;stroke-opacity:1"/><path id="path18" d="m 409.301,1783.08 h 1362.46 v 218.051 H 409.301 Z" style="fill:none;stroke:#000;stroke-width:7.51180983;stroke-linecap:butt;stroke-linejoin:miter;stroke-miterlimit:4;stroke-dasharray:none;stroke-opacity:1"/><path id="path20" d="m 573.09,1365.12 h 1033.83 v 214.84 H 573.09 Z" style="fill:none;stroke:#000;stroke-width:7.51180983;stroke-linecap:butt;stroke-linejoin:miter;stroke-miterlimit:4;stroke-dasharray:none;stroke-opacity:1"/><path id="path22" d="M 645.199,560.82 H 1533.75 V 842.031 H 645.199 Z" style="fill:none;stroke:#000;stroke-width:7.10098982;stroke-linecap:butt;stroke-linejoin:miter;stroke-miterlimit:4;stroke-dasharray:none;stroke-opacity:1"/><path id="path24" d="m 645.43,105.781 h 888.09 V 380.39 H 645.43 Z" style="fill:none;stroke:#000;stroke-width:7.01554012;stroke-linecap:butt;stroke-linejoin:miter;stroke-miterlimit:4;stroke-dasharray:none;stroke-opacity:1"/><g id="g26" transform="scale(10)"><text id="text60" transform="matrix(1,0,0,-1,86.9145,188.309)" style="font-variant:normal;font-size:6px;font-family:Helvetica;-inkscape-font-specification:f-0-0;writing-mode:lr-tb;fill:#000;fill-opacity:1;fill-rule:nonzero;stroke:none"><tspan id="tspan28" x="0 3.336 5.334 6.666 10.02 11.688 13.356 15.354 17.484 20.82 24.156 25.488 26.838 30.174 31.842 35.178 37.308 39.306" y="0">printf(&quot;hello\n&quot;);</tspan><tspan id="tspan30" x="14.847 18.848 22.851" y="42.332">SVC</tspan><tspan id="tspan32" x="7.373 10.709 14.045 17.381 20.736 24.072 27.408 30.744" y="119.55">debugger</tspan><tspan id="tspan34" x="14.251 17.587 20.923 22.255 23.605" y="165.285">hello</tspan><tspan id="tspan36" x="-87.04 -83.374 -80.038 -78.04 -74.686 -71.35" y="25.527">Target</tspan><tspan id="tspan38" x="-85.87 -81.538 -78.202 -75.202" y="142.418">Host</tspan><tspan id="tspan40" x="-29.499 -26.163 -24.165 -22.833 -19.479 -17.811 -16.143 -14.145" y="27.974">printf()</tspan><tspan id="tspan42" x="103.665 107.667 111.003 114.339 115.689 117.021 120.021 123.357 125.025 126.357 129.693 133.029 134.697 139.029 142.383 145.719" y="1.171">Application Code</tspan><tspan id="tspan44" x="103.479 107.811 109.479 112.815 114.147 117.483 119.499 122.835 124.833 127.833 129.501 133.833 137.169 140.523" y="44.353">C Library Code</tspan><tspan id="tspan46" x="103.611 107.613 111.615 115.965 117.633 120.969 124.305 127.641 130.977 132.309 135.663 138.999 140.667 144.003" y="76.049">SVC handled by</tspan><tspan id="tspan48" x="103.611 106.947 110.283 113.619 116.973 120.309 121.977 125.313 128.649 131.985 135.321" y="82.049">debug agent</tspan><tspan id="tspan50" x="103.731 108.063 111.399 116.397 121.413 124.749 128.085 129.417 132.417 135.771 137.439 138.771 142.107" y="113.488">Communication</tspan><tspan id="tspan52" x="103.731 108.063 109.395 111.063 114.399 116.067 119.403 122.739 126.093 129.429 132.765 136.101 139.437" y="119.488">with debugger</tspan><tspan id="tspan54" x="103.731 105.729 109.065 112.401 115.755 117.087 120.423 123.759 125.427 128.763 132.099 133.767 137.103 140.457 143.457" y="125.488">running on host</tspan><tspan id="tspan56" x="103.641 107.307 110.643 113.643 115.311 116.979 120.315 121.647 124.647 127.983 129.315 132.669 135.669 139.005" y="156.883">Text displayed</tspan><tspan id="tspan58" x="103.641 106.977 110.313 111.981 115.317 118.653 121.653 123.321 124.989 127.989 130.989 132.987 136.323 139.677" y="162.883">on host screen</tspan></text></g><path id="path62" d="M 1083.09,1763.95 V 1601.21" style="fill:none;stroke:#000;stroke-width:7.51180983;stroke-linecap:butt;stroke-linejoin:miter;stroke-miterlimit:4;stroke-dasharray:none;stroke-opacity:1"/><path id="path64" d="m 1083.09,1733.91 15.03,-15 -15.03,52.57 -15.04,-52.57 z" style="fill:#000;fill-opacity:1;fill-rule:evenodd;stroke:none"/><path id="path66" d="m 1083.09,1733.91 15.03,-15 -15.03,52.57 -15.04,-52.57 z" style="fill:none;stroke:#000;stroke-width:4.00629997;stroke-linecap:butt;stroke-linejoin:miter;stroke-miterlimit:4;stroke-dasharray:none;stroke-opacity:1"/><path id="path68" d="m 1083.09,1631.29 -15.04,15 15.04,-52.58 15.03,52.58 z" style="fill:#000;fill-opacity:1;fill-rule:evenodd;stroke:none"/><path id="path70" d="m 1083.09,1631.29 -15.04,15 15.04,-52.58 15.03,52.58 z" style="fill:none;stroke:#000;stroke-width:4.00629997;stroke-linecap:butt;stroke-linejoin:miter;stroke-miterlimit:4;stroke-dasharray:none;stroke-opacity:1"/><path id="path72" d="M 1083.09,1343.83 V 866.289" style="fill:none;stroke:#000;stroke-width:7.51180983;stroke-linecap:butt;stroke-linejoin:miter;stroke-miterlimit:4;stroke-dasharray:none;stroke-opacity:1"/><path id="path74" d="m 1083.09,1313.79 15.03,-15.04 -15.03,52.58 -15.04,-52.58 z" style="fill:#000;fill-opacity:1;fill-rule:evenodd;stroke:none"/><path id="path76" d="m 1083.09,1313.79 15.03,-15.04 -15.03,52.58 -15.04,-52.58 z" style="fill:none;stroke:#000;stroke-width:4.00629997;stroke-linecap:butt;stroke-linejoin:miter;stroke-miterlimit:4;stroke-dasharray:none;stroke-opacity:1"/><path id="path78" d="m 1083.09,896.332 -15.04,15 15.04,-52.582 15.03,52.582 z" style="fill:#000;fill-opacity:1;fill-rule:evenodd;stroke:none"/><path id="path80" d="m 1083.09,896.332 -15.04,15 15.04,-52.582 15.03,52.582 z" style="fill:none;stroke:#000;stroke-width:4.00629997;stroke-linecap:butt;stroke-linejoin:miter;stroke-miterlimit:4;stroke-dasharray:none;stroke-opacity:1"/><path id="path82" d="M 1083.09,538.672 V 399.34" style="fill:none;stroke:#000;stroke-width:7.51180983;stroke-linecap:butt;stroke-linejoin:miter;stroke-miterlimit:4;stroke-dasharray:none;stroke-opacity:1"/><path id="path84" d="m 1083.09,508.629 15.03,-15 -15.03,52.582 -15.04,-52.582 z" style="fill:#000;fill-opacity:1;fill-rule:evenodd;stroke:none"/><path id="path86" d="m 1083.09,508.629 15.03,-15 -15.03,52.582 -15.04,-52.582 z" style="fill:none;stroke:#000;stroke-width:4.00629997;stroke-linecap:butt;stroke-linejoin:miter;stroke-miterlimit:4;stroke-dasharray:none;stroke-opacity:1"/><path id="path88" d="m 1083.09,429.41 -15.04,15 15.04,-52.57 15.03,52.57 z" style="fill:#000;fill-opacity:1;fill-rule:evenodd;stroke:none"/><path id="path90" d="m 1083.09,429.41 -15.04,15 15.04,-52.57 15.03,52.57 z" style="fill:none;stroke:#000;stroke-width:4.00629997;stroke-linecap:butt;stroke-linejoin:miter;stroke-miterlimit:4;stroke-dasharray:none;stroke-opacity:1"/></g></g></svg>