<svg xmlns="http://www.w3.org/2000/svg" xmlns:svg="http://www.w3.org/2000/svg" id="svg2" width="478.667" height="265.333" version="1.1" viewBox="0 0 478.667 265.333" xml:space="preserve"><metadata id="metadata8"/><g id="g10" transform="matrix(1.3333333,0,0,-1.3333333,0,265.33333)"><g id="g12" transform="scale(0.1)"><path id="path14" d="m 899.18,1146.49 h 432.621 v 220.391 H 899.18 Z" style="fill:#fdfdfd;fill-opacity:1;fill-rule:nonzero;stroke:none"/><path id="path16" d="m 899.18,1146.49 h 432.621 v 220.391 H 899.18 Z" style="fill:none;stroke:#000;stroke-width:7.51180983;stroke-linecap:butt;stroke-linejoin:miter;stroke-miterlimit:4;stroke-dasharray:none;stroke-opacity:1"/><path id="path18" d="m 899.18,1017.18 h 434.379 v 129.301 H 899.18 Z" style="fill:#f5f5f5;fill-opacity:1;fill-rule:nonzero;stroke:none"/><path id="path20" d="m 899.18,1017.18 h 434.379 v 129.301 H 899.18 Z" style="fill:none;stroke:#000;stroke-width:7.51180983;stroke-linecap:butt;stroke-linejoin:miter;stroke-miterlimit:4;stroke-dasharray:none;stroke-opacity:1"/><g id="g22" transform="scale(10)"><text id="text30" transform="matrix(1,0,0,-1,95.7512,127.177)" style="font-variant:normal;font-size:6px;font-family:Helvetica;-inkscape-font-specification:f-0-0;writing-mode:lr-tb;fill:#000;fill-opacity:1;fill-rule:nonzero;stroke:none"><tspan id="tspan24" x="0 4.332 7.668 9 12.354 15.354 18.69 20.358 23.694 27.03 28.362" y="0">Relocatable</tspan><tspan id="tspan26" x="12.018 13.686 15.018 16.35" y="7.275">file</tspan><tspan id="tspan28" x="2.944 6.946 8.614 10.282 12.28 13.612 16.948 20.302 21.97 25.306" y="20.761">Attributes</tspan></text></g><path id="path32" d="m 836.52,1082.7 h 432.66 v 220.391 H 836.52 Z" style="fill:#fdfdfd;fill-opacity:1;fill-rule:nonzero;stroke:none"/><path id="path34" d="m 836.52,1082.7 h 432.66 v 220.391 H 836.52 Z" style="fill:none;stroke:#000;stroke-width:7.51180983;stroke-linecap:butt;stroke-linejoin:miter;stroke-miterlimit:4;stroke-dasharray:none;stroke-opacity:1"/><path id="path36" d="m 836.52,953.359 h 434.379 v 129.34 H 836.52 Z" style="fill:#fdfdfd;fill-opacity:1;fill-rule:nonzero;stroke:none"/><path id="path38" d="m 836.52,953.359 h 434.379 v 129.34 H 836.52 Z" style="fill:none;stroke:#000;stroke-width:7.51180983;stroke-linecap:butt;stroke-linejoin:miter;stroke-miterlimit:4;stroke-dasharray:none;stroke-opacity:1"/><g id="g40" transform="scale(10)"><text id="text48" transform="matrix(1,0,0,-1,89.4879,120.798)" style="font-variant:normal;font-size:6px;font-family:Helvetica;-inkscape-font-specification:f-0-0;writing-mode:lr-tb;fill:#000;fill-opacity:1;fill-rule:nonzero;stroke:none"><tspan id="tspan42" x="0 4.332 7.668 9 12.354 15.354 18.69 20.358 23.694 27.03 28.362" y="0">Relocatable</tspan><tspan id="tspan44" x="12.018 13.686 15.018 16.35" y="7.275">file</tspan><tspan id="tspan46" x="2.944 6.946 8.614 10.282 12.28 13.612 16.948 20.302 21.97 25.306" y="20.762">Attributes</tspan></text></g><path id="path50" d="m 766.641,1018.63 h 432.66 v 220.391 h -432.66 z" style="fill:#fdfdfd;fill-opacity:1;fill-rule:nonzero;stroke:none"/><path id="path52" d="m 766.641,1018.63 h 432.66 v 220.391 h -432.66 z" style="fill:none;stroke:#000;stroke-width:7.51180983;stroke-linecap:butt;stroke-linejoin:miter;stroke-miterlimit:4;stroke-dasharray:none;stroke-opacity:1"/><path id="path54" d="m 766.641,889.289 h 434.379 v 129.34 H 766.641 Z" style="fill:#f5f5f5;fill-opacity:1;fill-rule:nonzero;stroke:none"/><path id="path56" d="m 766.641,889.289 h 434.379 v 129.34 H 766.641 Z" style="fill:none;stroke:#000;stroke-width:7.51180983;stroke-linecap:butt;stroke-linejoin:miter;stroke-miterlimit:4;stroke-dasharray:none;stroke-opacity:1"/><g id="g58" transform="scale(10)"><text id="text66" transform="matrix(1,0,0,-1,82.4996,114.389)" style="font-variant:normal;font-size:6px;font-family:Helvetica;-inkscape-font-specification:f-0-0;writing-mode:lr-tb;fill:#000;fill-opacity:1;fill-rule:nonzero;stroke:none"><tspan id="tspan60" x="0 4.332 7.668 9 12.354 15.354 18.69 20.358 23.694 27.03 28.362" y="0">Relocatable</tspan><tspan id="tspan62" x="12.018 13.686 15.018 16.35" y="7.275">file</tspan><tspan id="tspan64" x="2.944 6.946 8.614 10.282 12.28 13.612 16.948 20.302 21.97 25.306" y="20.761">Attributes</tspan></text></g><path id="path68" d="m 611.52,1804.14 c 0,-8.32 -7.54,-15.08 -16.79,-15.08 -9.3,0 -16.839,6.76 -16.839,15.08 0,8.32 7.539,15.08 16.839,15.08 9.25,0 16.79,-6.76 16.79,-15.08 z" style="fill:#fff;fill-opacity:1;fill-rule:nonzero;stroke:none"/><path id="path70" d="m 611.52,1804.14 c 0,-8.32 -7.54,-15.08 -16.79,-15.08 -9.3,0 -16.839,6.76 -16.839,15.08 0,8.32 7.539,15.08 16.839,15.08 9.25,0 16.79,-6.76 16.79,-15.08 z" style="fill:none;stroke:#000;stroke-width:7.5;stroke-linecap:butt;stroke-linejoin:miter;stroke-miterlimit:4;stroke-dasharray:22.5,22.5;stroke-dashoffset:0;stroke-opacity:1"/><path id="path72" d="m 594.141,1758.91 c 0,-16.02 -14.301,-28.99 -31.911,-28.99 -17.621,0 -31.878,12.97 -31.878,28.99 0,16.01 14.257,28.98 31.878,28.98 17.61,0 31.911,-12.97 31.911,-28.98 z" style="fill:#fff;fill-opacity:1;fill-rule:nonzero;stroke:none"/><path id="path74" d="m 594.141,1758.91 c 0,-16.02 -14.301,-28.99 -31.911,-28.99 -17.621,0 -31.878,12.97 -31.878,28.99 0,16.01 14.257,28.98 31.878,28.98 17.61,0 31.911,-12.97 31.911,-28.98 z" style="fill:none;stroke:#000;stroke-width:7.5;stroke-linecap:butt;stroke-linejoin:miter;stroke-miterlimit:4;stroke-dasharray:22.5,22.5;stroke-dashoffset:0;stroke-opacity:1"/><path id="path76" d="m 575.59,1686.41 c 0,-24.65 -22.86,-44.65 -51.059,-44.65 -28.16,0 -51.011,20 -51.011,44.65 0,24.68 22.851,44.64 51.011,44.64 28.199,0 51.059,-19.96 51.059,-44.64 z" style="fill:#fff;fill-opacity:1;fill-rule:nonzero;stroke:none"/><path id="path78" d="m 575.59,1686.41 c 0,-24.65 -22.86,-44.65 -51.059,-44.65 -28.16,0 -51.011,20 -51.011,44.65 0,24.68 22.851,44.64 51.011,44.64 28.199,0 51.059,-19.96 51.059,-44.64 z" style="fill:none;stroke:#000;stroke-width:7.5;stroke-linecap:butt;stroke-linejoin:miter;stroke-miterlimit:4;stroke-dasharray:22.5,22.5;stroke-dashoffset:0;stroke-opacity:1"/><path id="path80" d="m 340.699,1693.95 c -22.179,0 -42.808,-11.06 -54.879,-29.3 -11.09,7.73 -24.34,11.91 -37.89,11.91 -25.352,-0.04 -48.399,-14.41 -59.219,-36.91 -8.359,3.67 -17.461,5.58 -26.641,5.58 -17.379,0 -34.019,-6.75 -46.332,-18.82 -12.297,-12.07 -19.1794,-28.48 -19.1794,-45.55 0,-7.85 1.4922,-15.66 4.3394,-23.05 -2.3785,0.28 -4.8082,0.43 -7.2691,0.43 -36.168,0 -65.5078,-28.79 -65.5078,-64.37 0,-16.02 6.1406,-31.49 17.1484,-43.32 -25.039,-9.69 -41.5195,-33.44 -41.5195,-59.89 0.03906,-23 12.5391,-44.25 32.8516,-55.74 -12.1133,-12.03 -18.9024,-28.24 -18.9024,-45.19 0,-30.94 22.4219,-57.46 53.3906,-63.21 -0.8203,-4.02 -1.2109,-8.08 -1.2109,-12.18 0,-35.55 29.3399,-64.34 65.5121,-64.34 12.5,0 24.73,3.48 35.269,10.08 5.59,-30.67 32.738,-53.01 64.5,-53.01 21.91,0 42.34,10.78 54.488,28.71 12.153,-17.93 32.622,-28.71 54.532,-28.71 31.761,0.04 58.91,22.42 64.449,53.16 12.391,-13.16 29.812,-20.66 48.051,-20.7 33.121,0.04 61.019,24.34 65,56.64 8.398,-3.67 17.461,-5.58 26.64,-5.58 36.211,0 65.508,28.82 65.508,64.37 0,5.16 -0.668,10.31 -1.918,15.31 31.801,4.96 55.281,31.88 55.281,63.56 0,16.44 -6.453,32.26 -17.929,44.22 25.429,9.45 42.297,33.4 42.297,60.15 0,25.82 -15.7,49.14 -39.918,59.26 13.589,12.19 21.328,29.42 21.371,47.46 0,35.55 -29.34,64.38 -65.551,64.38 -0.859,-0.04 -1.68,-0.04 -2.539,-0.08 -4.922,31.37 -32.383,54.57 -64.723,54.61 -20.59,-0.04 -39.929,-9.57 -52.269,-25.74 -9.571,25.19 -34.02,41.95 -61.41,41.95 -12.34,0 -24.489,-3.44 -34.918,-9.96 -12.461,15.12 -31.133,23.87 -50.903,23.87 z" style="fill:#fff;fill-opacity:1;fill-rule:nonzero;stroke:none"/><path id="path82" d="m 340.699,1693.95 c -22.179,0 -42.808,-11.06 -54.879,-29.3 -11.09,7.73 -24.34,11.91 -37.89,11.91 -25.352,-0.04 -48.399,-14.41 -59.219,-36.91 -8.359,3.67 -17.461,5.58 -26.641,5.58 -17.379,0 -34.019,-6.75 -46.332,-18.82 -12.297,-12.07 -19.1794,-28.48 -19.1794,-45.55 0,-7.85 1.4922,-15.66 4.3394,-23.05 -2.3785,0.28 -4.8082,0.43 -7.2691,0.43 -36.168,0 -65.5078,-28.79 -65.5078,-64.37 0,-16.02 6.1406,-31.49 17.1484,-43.32 -25.039,-9.69 -41.5195,-33.44 -41.5195,-59.89 0.03906,-23 12.5391,-44.25 32.8516,-55.74 -12.1133,-12.03 -18.9024,-28.24 -18.9024,-45.19 0,-30.94 22.4219,-57.46 53.3906,-63.21 -0.8203,-4.02 -1.2109,-8.08 -1.2109,-12.18 0,-35.55 29.3399,-64.34 65.5121,-64.34 12.5,0 24.73,3.48 35.269,10.08 5.59,-30.67 32.738,-53.01 64.5,-53.01 21.91,0 42.34,10.78 54.488,28.71 12.153,-17.93 32.622,-28.71 54.532,-28.71 31.761,0.04 58.91,22.42 64.449,53.16 12.391,-13.16 29.812,-20.66 48.051,-20.7 33.121,0.04 61.019,24.34 65,56.64 8.398,-3.67 17.461,-5.58 26.64,-5.58 36.211,0 65.508,28.82 65.508,64.37 0,5.16 -0.668,10.31 -1.918,15.31 31.801,4.96 55.281,31.88 55.281,63.56 0,16.44 -6.453,32.26 -17.929,44.22 25.429,9.45 42.297,33.4 42.297,60.15 0,25.82 -15.7,49.14 -39.918,59.26 13.589,12.19 21.328,29.42 21.371,47.46 0,35.55 -29.34,64.38 -65.551,64.38 -0.859,-0.04 -1.68,-0.04 -2.539,-0.08 -4.922,31.37 -32.383,54.57 -64.723,54.61 -20.59,-0.04 -39.929,-9.57 -52.269,-25.74 -9.571,25.19 -34.02,41.95 -61.41,41.95 -12.34,0 -24.489,-3.44 -34.918,-9.96 -12.461,15.12 -31.133,23.87 -50.903,23.87 z" style="fill:none;stroke:#000;stroke-width:7.5;stroke-linecap:butt;stroke-linejoin:miter;stroke-miterlimit:4;stroke-dasharray:22.5,22.5;stroke-dashoffset:0;stroke-opacity:1"/><path id="path84" d="m 679.961,401.879 c 0,-8.988 -7.262,-16.258 -16.25,-16.258 -8.941,0 -16.211,7.27 -16.211,16.258 0,8.941 7.27,16.242 16.211,16.242 8.988,0 16.25,-7.301 16.25,-16.242 z" style="fill:#fff;fill-opacity:1;fill-rule:nonzero;stroke:none"/><path id="path86" d="m 679.961,401.879 c 0,-8.988 -7.262,-16.258 -16.25,-16.258 -8.941,0 -16.211,7.27 -16.211,16.258 0,8.941 7.27,16.242 16.211,16.242 8.988,0 16.25,-7.301 16.25,-16.242 z" style="fill:none;stroke:#000;stroke-width:7.5;stroke-linecap:butt;stroke-linejoin:miter;stroke-miterlimit:4;stroke-dasharray:22.5,22.5;stroke-dashoffset:0;stroke-opacity:1"/><path id="path88" d="m 659.059,447.109 c 0,-16.679 -16.598,-30.16 -37.11,-30.16 -20.469,0 -37.109,13.481 -37.109,30.16 0,16.641 16.64,30.161 37.109,30.161 20.512,0 37.11,-13.52 37.11,-30.161 z" style="fill:#fff;fill-opacity:1;fill-rule:nonzero;stroke:none"/><path id="path90" d="m 659.059,447.109 c 0,-16.679 -16.598,-30.16 -37.11,-30.16 -20.469,0 -37.109,13.481 -37.109,30.16 0,16.641 16.64,30.161 37.109,30.161 20.512,0 37.11,-13.52 37.11,-30.161 z" style="fill:none;stroke:#000;stroke-width:7.5;stroke-linecap:butt;stroke-linejoin:miter;stroke-miterlimit:4;stroke-dasharray:22.5,22.5;stroke-dashoffset:0;stroke-opacity:1"/><path id="path92" d="m 621.949,499.879 c 0,-19.527 -26.48,-35.391 -59.14,-35.391 -32.649,0 -59.137,15.864 -59.137,35.391 0,19.531 26.488,35.351 59.137,35.351 32.66,0 59.14,-15.82 59.14,-35.351 z" style="fill:#fff;fill-opacity:1;fill-rule:nonzero;stroke:none"/><path id="path94" d="m 621.949,499.879 c 0,-19.527 -26.48,-35.391 -59.14,-35.391 -32.649,0 -59.137,15.864 -59.137,35.391 0,19.531 26.488,35.351 59.137,35.351 32.66,0 59.14,-15.82 59.14,-35.351 z" style="fill:none;stroke:#000;stroke-width:7.5;stroke-linecap:butt;stroke-linejoin:miter;stroke-miterlimit:4;stroke-dasharray:22.5,22.5;stroke-dashoffset:0;stroke-opacity:1"/><path id="path96" d="m 383.051,905.23 c -31.25,0 -60.352,-10.148 -77.313,-26.992 -16.949,9.883 -38.976,15.391 -61.867,15.391 -50.941,0 -92.23,-26.438 -92.23,-59.141 0,-0.738 0.039,-1.476 0.121,-2.187 -5.59,0.668 -11.25,1.019 -16.961,1.058 -50.8908,0 -92.1799,-26.519 -92.1799,-59.179 0.0391,-10.629 4.5273,-21.02 13,-30.16 C 25.5117,733.789 6.67969,713.711 6.64063,691.84 6.67969,671.129 23.6289,651.91 51.2891,641.25 41.1289,631.52 35.6602,620.039 35.6602,608.32 c 0,-32.66 41.289,-59.14 92.1918,-59.14 6.918,0.039 13.789,0.55 20.546,1.558 9.762,-26.718 46.872,-45.617 89.653,-45.617 28.937,0 56.168,8.75 73.551,23.59 14.769,-21.371 47.738,-35.191 84.179,-35.191 50.938,0 92.231,26.48 92.231,59.14 0,1.32 -0.082,2.61 -0.242,3.942 11.761,-3.364 24.5,-5.082 37.351,-5.122 50.93,0 92.219,26.489 92.219,59.141 -0.039,5.508 -1.211,10.938 -3.59,16.219 5.781,-0.75 11.641,-1.102 17.5,-1.141 50.941,0 92.23,26.492 92.191,59.18 -0.043,18.012 -12.851,35.043 -34.851,46.25 18.519,11.172 29.031,26.723 29.07,43.051 0,30.429 -35.941,55.859 -83.129,58.871 0.469,2.418 0.739,4.84 0.778,7.258 0,32.66 -41.289,59.14 -92.219,59.14 -31.328,-0.039 -60.512,-10.269 -77.469,-27.148 -15.5,20.16 -47.531,32.929 -82.609,32.929 z" style="fill:#fff;fill-opacity:1;fill-rule:nonzero;stroke:none"/><path id="path98" d="m 383.051,905.23 c -31.25,0 -60.352,-10.148 -77.313,-26.992 -16.949,9.883 -38.976,15.391 -61.867,15.391 -50.941,0 -92.23,-26.438 -92.23,-59.141 0,-0.738 0.039,-1.476 0.121,-2.187 -5.59,0.668 -11.25,1.019 -16.961,1.058 -50.8908,0 -92.1799,-26.519 -92.1799,-59.179 0.0391,-10.629 4.5273,-21.02 13,-30.16 C 25.5117,733.789 6.67969,713.711 6.64063,691.84 6.67969,671.129 23.6289,651.91 51.2891,641.25 41.1289,631.52 35.6602,620.039 35.6602,608.32 c 0,-32.66 41.289,-59.14 92.1918,-59.14 6.918,0.039 13.789,0.55 20.546,1.558 9.762,-26.718 46.872,-45.617 89.653,-45.617 28.937,0 56.168,8.75 73.551,23.59 14.769,-21.371 47.738,-35.191 84.179,-35.191 50.938,0 92.231,26.48 92.231,59.14 0,1.32 -0.082,2.61 -0.242,3.942 11.761,-3.364 24.5,-5.082 37.351,-5.122 50.93,0 92.219,26.489 92.219,59.141 -0.039,5.508 -1.211,10.938 -3.59,16.219 5.781,-0.75 11.641,-1.102 17.5,-1.141 50.941,0 92.23,26.492 92.191,59.18 -0.043,18.012 -12.851,35.043 -34.851,46.25 18.519,11.172 29.031,26.723 29.07,43.051 0,30.429 -35.941,55.859 -83.129,58.871 0.469,2.418 0.739,4.84 0.778,7.258 0,32.66 -41.289,59.14 -92.219,59.14 -31.328,-0.039 -60.512,-10.269 -77.469,-27.148 -15.5,20.16 -47.531,32.929 -82.609,32.929 z" style="fill:none;stroke:#000;stroke-width:7.5;stroke-linecap:butt;stroke-linejoin:miter;stroke-miterlimit:4;stroke-dasharray:22.5,22.5;stroke-dashoffset:0;stroke-opacity:1"/><path id="path100" d="m 2701.6,1783.28 c 0,-10.27 -8.83,-18.55 -19.72,-18.55 -10.9,0 -19.73,8.28 -19.73,18.55 0,10.24 8.83,18.56 19.73,18.56 10.89,0 19.72,-8.32 19.72,-18.56 z" style="fill:#fff;fill-opacity:1;fill-rule:nonzero;stroke:none"/><path id="path102" d="m 2701.6,1783.28 c 0,-10.27 -8.83,-18.55 -19.72,-18.55 -10.9,0 -19.73,8.28 -19.73,18.55 0,10.24 8.83,18.56 19.73,18.56 10.89,0 19.72,-8.32 19.72,-18.56 z" style="fill:none;stroke:#000;stroke-width:7.5;stroke-linecap:butt;stroke-linejoin:miter;stroke-miterlimit:4;stroke-dasharray:22.5,22.5;stroke-dashoffset:0;stroke-opacity:1"/><path id="path104" d="m 2788.59,1742.11 c 0,-16.99 -17.38,-30.74 -38.86,-30.74 -21.45,0 -38.83,13.75 -38.83,30.74 0,16.95 17.38,30.7 38.83,30.7 21.48,0 38.86,-13.75 38.86,-30.7 z" style="fill:#fff;fill-opacity:1;fill-rule:nonzero;stroke:none"/><path id="path106" d="m 2788.59,1742.11 c 0,-16.99 -17.38,-30.74 -38.86,-30.74 -21.45,0 -38.83,13.75 -38.83,30.74 0,16.95 17.38,30.7 38.83,30.7 21.48,0 38.86,-13.75 38.86,-30.7 z" style="fill:none;stroke:#000;stroke-width:7.5;stroke-linecap:butt;stroke-linejoin:miter;stroke-miterlimit:4;stroke-dasharray:22.5,22.5;stroke-dashoffset:0;stroke-opacity:1"/><path id="path108" d="m 2910.39,1694.53 c 0,-26.56 -23.63,-48.12 -52.77,-48.12 -29.14,0 -52.78,21.56 -52.78,48.12 0,26.6 23.64,48.13 52.78,48.13 29.14,0 52.77,-21.53 52.77,-48.13 z" style="fill:#fff;fill-opacity:1;fill-rule:nonzero;stroke:none"/><path id="path110" d="m 2910.39,1694.53 c 0,-26.56 -23.63,-48.12 -52.77,-48.12 -29.14,0 -52.78,21.56 -52.78,48.12 0,26.6 23.64,48.13 52.78,48.13 29.14,0 52.77,-21.53 52.77,-48.13 z" style="fill:none;stroke:#000;stroke-width:7.5;stroke-linecap:butt;stroke-linejoin:miter;stroke-miterlimit:4;stroke-dasharray:22.5,22.5;stroke-dashoffset:0;stroke-opacity:1"/><path id="path112" d="m 3319.8,1851.72 c -33.16,-0.04 -64.1,-14.96 -82.3,-39.77 -18.48,16.53 -43.52,25.82 -69.61,25.82 -44.77,-0.04 -83.83,-27.03 -95.23,-65.7 -13.36,5.82 -27.97,8.83 -42.82,8.87 -53.67,-0.04 -97.42,-38.44 -98.47,-86.41 -50.12,-4.73 -88.21,-42.5 -88.28,-87.58 0.03,-17.57 5.97,-34.76 17.03,-49.33 -18.28,-16.49 -28.56,-38.75 -28.6,-62 0.04,-30.58 17.86,-58.98 47.03,-75 -0.43,-3.2 -0.62,-6.44 -0.66,-9.68 0.04,-48.67 44.14,-88.13 98.59,-88.13 6.33,0 12.66,0.59 18.83,1.68 3.79,-46.05 46.68,-81.72 98.32,-81.72 23.87,0.04 46.96,7.82 64.89,21.92 17.38,-27.81 50.23,-45.08 85.89,-45.12 44.73,0.08 83.79,26.99 95.2,65.66 11.76,-4.29 24.34,-6.48 37.03,-6.52 54.45,0 98.59,39.49 98.59,88.17 -0.03,6.83 -0.97,13.63 -2.77,20.27 50.27,4.57 88.56,42.42 88.59,87.58 0,17.34 -5.74,34.29 -16.48,48.71 22.19,16.72 35,41.33 35.04,67.3 0,38.64 -28.13,72.74 -69.41,84.18 7.5,12.66 11.4,26.76 11.44,41.1 0,48.67 -44.14,88.12 -98.59,88.12 -5.08,-0.04 -10.12,-0.39 -15.12,-1.09 -16.72,29.8 -50.82,48.63 -88.13,48.67 z" style="fill:#fff;fill-opacity:1;fill-rule:nonzero;stroke:none"/><path id="path114" d="m 3319.8,1851.72 c -33.16,-0.04 -64.1,-14.96 -82.3,-39.77 -18.48,16.53 -43.52,25.82 -69.61,25.82 -44.77,-0.04 -83.83,-27.03 -95.23,-65.7 -13.36,5.82 -27.97,8.83 -42.82,8.87 -53.67,-0.04 -97.42,-38.44 -98.47,-86.41 -50.12,-4.73 -88.21,-42.5 -88.28,-87.58 0.03,-17.57 5.97,-34.76 17.03,-49.33 -18.28,-16.49 -28.56,-38.75 -28.6,-62 0.04,-30.58 17.86,-58.98 47.03,-75 -0.43,-3.2 -0.62,-6.44 -0.66,-9.68 0.04,-48.67 44.14,-88.13 98.59,-88.13 6.33,0 12.66,0.59 18.83,1.68 3.79,-46.05 46.68,-81.72 98.32,-81.72 23.87,0.04 46.96,7.82 64.89,21.92 17.38,-27.81 50.23,-45.08 85.89,-45.12 44.73,0.08 83.79,26.99 95.2,65.66 11.76,-4.29 24.34,-6.48 37.03,-6.52 54.45,0 98.59,39.49 98.59,88.17 -0.03,6.83 -0.97,13.63 -2.77,20.27 50.27,4.57 88.56,42.42 88.59,87.58 0,17.34 -5.74,34.29 -16.48,48.71 22.19,16.72 35,41.33 35.04,67.3 0,38.64 -28.13,72.74 -69.41,84.18 7.5,12.66 11.4,26.76 11.44,41.1 0,48.67 -44.14,88.12 -98.59,88.12 -5.08,-0.04 -10.12,-0.39 -15.12,-1.09 -16.72,29.8 -50.82,48.63 -88.13,48.67 z" style="fill:none;stroke:#000;stroke-width:7.5;stroke-linecap:butt;stroke-linejoin:miter;stroke-miterlimit:4;stroke-dasharray:22.5,22.5;stroke-dashoffset:0;stroke-opacity:1"/><path id="path116" d="m 2760.74,396.641 c 0,-11.211 -8.83,-20.27 -19.69,-20.27 -10.89,0 -19.72,9.059 -19.72,20.27 0,11.211 8.83,20.308 19.72,20.308 10.86,0 19.69,-9.097 19.69,-20.308 z" style="fill:#fff;fill-opacity:1;fill-rule:nonzero;stroke:none"/><path id="path118" d="m 2760.74,396.641 c 0,-11.211 -8.83,-20.27 -19.69,-20.27 -10.89,0 -19.72,9.059 -19.72,20.27 0,11.211 8.83,20.308 19.72,20.308 10.86,0 19.69,-9.097 19.69,-20.308 z" style="fill:none;stroke:#000;stroke-width:7.5;stroke-linecap:butt;stroke-linejoin:miter;stroke-miterlimit:4;stroke-dasharray:22.5,22.5;stroke-dashoffset:0;stroke-opacity:1"/><path id="path120" d="m 2837.3,437.809 c 0,-16.637 -17.65,-30.149 -39.41,-30.149 -21.8,0 -39.45,13.512 -39.45,30.149 0,16.679 17.65,30.16 39.45,30.16 21.76,0 39.41,-13.481 39.41,-30.16 z" style="fill:#fff;fill-opacity:1;fill-rule:nonzero;stroke:none"/><path id="path122" d="m 2837.3,437.809 c 0,-16.637 -17.65,-30.149 -39.41,-30.149 -21.8,0 -39.45,13.512 -39.45,30.149 0,16.679 17.65,30.16 39.45,30.16 21.76,0 39.41,-13.481 39.41,-30.16 z" style="fill:none;stroke:#000;stroke-width:7.5;stroke-linecap:butt;stroke-linejoin:miter;stroke-miterlimit:4;stroke-dasharray:22.5,22.5;stroke-dashoffset:0;stroke-opacity:1"/><path id="path124" d="m 2947.5,491.172 c 0,-21.133 -27.27,-38.281 -60.9,-38.281 -33.63,0 -60.9,17.148 -60.9,38.281 0,21.129 27.27,38.277 60.9,38.277 33.63,0 60.9,-17.148 60.9,-38.277 z" style="fill:#fff;fill-opacity:1;fill-rule:nonzero;stroke:none"/><path id="path126" d="m 2947.5,491.172 c 0,-21.133 -27.27,-38.281 -60.9,-38.281 -33.63,0 -60.9,17.148 -60.9,38.281 0,21.129 27.27,38.277 60.9,38.277 33.63,0 60.9,-17.148 60.9,-38.277 z" style="fill:none;stroke:#000;stroke-width:7.5;stroke-linecap:butt;stroke-linejoin:miter;stroke-miterlimit:4;stroke-dasharray:22.5,22.5;stroke-dashoffset:0;stroke-opacity:1"/><path id="path128" d="m 3250.23,879.73 c -34.8,0 -67.53,-8.441 -88.16,-22.699 -19.41,7.93 -43.55,12.231 -68.44,12.27 -60.51,0 -109.57,-24.922 -109.61,-55.672 v -0.039 c -60.27,-0.149 -109.02,-25 -109.02,-55.66 0,-8.871 4.22,-17.621 12.23,-25.508 -32.78,-10.082 -52.78,-28.082 -52.82,-47.543 0.04,-18.899 18.99,-36.52 50.32,-46.758 -15.28,-9.801 -23.6,-21.949 -23.64,-34.449 0.04,-27.031 38.4,-50.152 90.86,-54.801 10.12,-26.062 55.12,-44.891 107.46,-44.922 15.94,0 31.68,1.789 46.14,5.231 20.27,-15.59 54.57,-24.918 91.33,-24.961 43.55,0 82.96,13.121 100.39,33.402 18.47,-6.641 40.5,-10.199 63.16,-10.199 60.51,0 109.57,24.918 109.57,55.668 -0.04,2.461 -0.39,4.922 -1.09,7.379 55.39,3.16 97.3,26.91 97.38,55.23 -0.04,15 -11.99,29.34 -33.09,39.813 32.07,10.148 51.6,28.008 51.64,47.187 -0.04,24.289 -31.01,45.781 -76.6,53.082 9.88,8.52 15.08,18.239 15.12,28.129 0,30.738 -49.06,55.66 -109.61,55.66 -20.94,0 -41.48,-3.05 -59.14,-8.789 -14.34,23.168 -56.6,38.91 -104.38,38.949 z" style="fill:#fff;fill-opacity:1;fill-rule:nonzero;stroke:none"/><path id="path130" d="m 3250.23,879.73 c -34.8,0 -67.53,-8.441 -88.16,-22.699 -19.41,7.93 -43.55,12.231 -68.44,12.27 -60.51,0 -109.57,-24.922 -109.61,-55.672 v -0.039 c -60.27,-0.149 -109.02,-25 -109.02,-55.66 0,-8.871 4.22,-17.621 12.23,-25.508 -32.78,-10.082 -52.78,-28.082 -52.82,-47.543 0.04,-18.899 18.99,-36.52 50.32,-46.758 -15.28,-9.801 -23.6,-21.949 -23.64,-34.449 0.04,-27.031 38.4,-50.152 90.86,-54.801 10.12,-26.062 55.12,-44.891 107.46,-44.922 15.94,0 31.68,1.789 46.14,5.231 20.27,-15.59 54.57,-24.918 91.33,-24.961 43.55,0 82.96,13.121 100.39,33.402 18.47,-6.641 40.5,-10.199 63.16,-10.199 60.51,0 109.57,24.918 109.57,55.668 -0.04,2.461 -0.39,4.922 -1.09,7.379 55.39,3.16 97.3,26.91 97.38,55.23 -0.04,15 -11.99,29.34 -33.09,39.813 32.07,10.148 51.6,28.008 51.64,47.187 -0.04,24.289 -31.01,45.781 -76.6,53.082 9.88,8.52 15.08,18.239 15.12,28.129 0,30.738 -49.06,55.66 -109.61,55.66 -20.94,0 -41.48,-3.05 -59.14,-8.789 -14.34,23.168 -56.6,38.91 -104.38,38.949 z" style="fill:none;stroke:#000;stroke-width:7.5;stroke-linecap:butt;stroke-linejoin:miter;stroke-miterlimit:4;stroke-dasharray:22.5,22.5;stroke-dashoffset:0;stroke-opacity:1"/><path id="path132" d="m 1190.31,1800.66 c 0,-102.5 -126.44,-185.58 -282.419,-185.58 -156.012,0 -282.461,83.08 -282.461,185.58 0,102.5 126.449,185.59 282.461,185.59 155.979,0 282.419,-83.09 282.419,-185.59 z" style="fill:#fff;fill-opacity:1;fill-rule:nonzero;stroke:none"/><path id="path134" d="m 1190.31,1800.66 c 0,-102.5 -126.44,-185.58 -282.419,-185.58 -156.012,0 -282.461,83.08 -282.461,185.58 0,102.5 126.449,185.59 282.461,185.59 155.979,0 282.419,-83.09 282.419,-185.59 z" style="fill:none;stroke:#000;stroke-width:7.51180983;stroke-linecap:butt;stroke-linejoin:miter;stroke-miterlimit:4;stroke-dasharray:none;stroke-opacity:1"/><g id="g136" transform="scale(10)"><text id="text140" transform="matrix(1,0,0,-1,16.4012,4.57891)" style="font-variant:normal;font-size:8px;font-family:Helvetica;-inkscape-font-specification:f-0-0;writing-mode:lr-tb;fill:#000;fill-opacity:1;fill-rule:nonzero;stroke:none"><tspan id="tspan138" x="0 4.888 9.336 13.784 15.56 17.784 21.784 26.232 30.704 32.48 36.928 39.152" y="0">Tool chain A</tspan></text></g><path id="path142" d="m 2649.41,1800.66 c 0,-102.5 -126.44,-185.58 -282.42,-185.58 -155.97,0 -282.42,83.08 -282.42,185.58 0,102.5 126.45,185.59 282.42,185.59 155.98,0 282.42,-83.09 282.42,-185.59 z" style="fill:#fff;fill-opacity:1;fill-rule:nonzero;stroke:none"/><path id="path144" d="m 2649.41,1800.66 c 0,-102.5 -126.44,-185.58 -282.42,-185.58 -155.97,0 -282.42,83.08 -282.42,185.58 0,102.5 126.45,185.59 282.42,185.59 155.98,0 282.42,-83.09 282.42,-185.59 z" style="fill:none;stroke:#000;stroke-width:7.51180983;stroke-linecap:butt;stroke-linejoin:miter;stroke-miterlimit:4;stroke-dasharray:none;stroke-opacity:1"/><g id="g146" transform="scale(10)"><text id="text150" transform="matrix(1,0,0,-1,278.299,4.57891)" style="font-variant:normal;font-size:8px;font-family:Helvetica;-inkscape-font-specification:f-0-0;writing-mode:lr-tb;fill:#000;fill-opacity:1;fill-rule:nonzero;stroke:none"><tspan id="tspan148" x="0 4.888 9.336 13.784 15.56 17.784 21.784 26.232 30.704 32.48 36.928 39.152" y="0">Tool chain B</tspan></text></g><path id="path152" d="m 2712.03,354.301 c 0,-102.461 -126.44,-185.551 -282.42,-185.551 -155.98,0 -282.42,83.09 -282.42,185.551 0,102.5 126.44,185.578 282.42,185.578 155.98,0 282.42,-83.078 282.42,-185.578 z" style="fill:#fff;fill-opacity:1;fill-rule:nonzero;stroke:none"/><path id="path154" d="m 2712.03,354.301 c 0,-102.461 -126.44,-185.551 -282.42,-185.551 -155.98,0 -282.42,83.09 -282.42,185.551 0,102.5 126.44,185.578 282.42,185.578 155.98,0 282.42,-83.078 282.42,-185.578 z" style="fill:none;stroke:#000;stroke-width:7.51180983;stroke-linecap:butt;stroke-linejoin:miter;stroke-miterlimit:4;stroke-dasharray:none;stroke-opacity:1"/><path id="path156" d="M 851.602,1610.43 C 730.98,1477.07 748.398,1448.09 797.109,1337.89" style="fill:none;stroke:#000;stroke-width:7.51180983;stroke-linecap:butt;stroke-linejoin:miter;stroke-miterlimit:4;stroke-dasharray:none;stroke-opacity:1"/><path id="path158" d="m 784.961,1365.35 -19.801,7.66 35,-41.99 -7.539,54.18 z" style="fill:#000;fill-opacity:1;fill-rule:evenodd;stroke:none"/><path id="path160" d="m 784.957,1365.36 -19.801,7.66 34.996,-42.01 -7.527,54.18 z" style="fill:none;stroke:#000;stroke-width:4.00629997;stroke-linecap:butt;stroke-linejoin:miter;stroke-miterlimit:4;stroke-dasharray:none;stroke-opacity:1"/><path id="path162" d="m 1250.62,354.301 c 0,-102.461 -126.44,-185.551 -282.421,-185.551 -156.008,0 -282.461,83.09 -282.461,185.551 0,102.5 126.453,185.578 282.461,185.578 155.981,0 282.421,-83.078 282.421,-185.578 z" style="fill:#fff;fill-opacity:1;fill-rule:nonzero;stroke:none"/><path id="path164" d="m 1250.62,354.301 c 0,-102.461 -126.44,-185.551 -282.421,-185.551 -156.008,0 -282.461,83.09 -282.461,185.551 0,102.5 126.453,185.578 282.461,185.578 155.981,0 282.421,-83.078 282.421,-185.578 z" style="fill:none;stroke:#000;stroke-width:7.51180983;stroke-linecap:butt;stroke-linejoin:miter;stroke-miterlimit:4;stroke-dasharray:none;stroke-opacity:1"/><path id="path166" d="m 2307.27,1610.43 c -120.63,-133.36 -103.25,-162.34 -54.54,-272.54" style="fill:none;stroke:#000;stroke-width:7.51180983;stroke-linecap:butt;stroke-linejoin:miter;stroke-miterlimit:4;stroke-dasharray:none;stroke-opacity:1"/><path id="path168" d="m 2240.59,1365.35 -19.81,7.66 35,-41.99 -7.54,54.18 z" style="fill:#000;fill-opacity:1;fill-rule:evenodd;stroke:none"/><path id="path170" d="m 2240.58,1365.36 -19.79,7.64 35,-41.99 -7.54,54.19 z" style="fill:none;stroke:#000;stroke-width:4.00629997;stroke-linecap:butt;stroke-linejoin:miter;stroke-miterlimit:4;stroke-dasharray:none;stroke-opacity:1"/><path id="path172" d="m 1351.52,233.672 h 409.42 l -39.42,389.726 214.57,-389.726 h 114.85 V 8.67188 h -699.42 z" style="fill:#fff;fill-opacity:1;fill-rule:nonzero;stroke:none"/><path id="path174" d="m 1351.52,233.672 h 409.42 l -39.42,389.726 214.57,-389.726 h 114.85 V 8.67188 h -699.42 z" style="fill:none;stroke:#000;stroke-width:7.51180983;stroke-linecap:butt;stroke-linejoin:miter;stroke-miterlimit:4;stroke-dasharray:none;stroke-opacity:1"/><path id="path176" d="M 2437.03,875.16 C 2316.41,741.801 2333.79,712.77 2382.5,602.621" style="fill:none;stroke:#000;stroke-width:7.5;stroke-linecap:butt;stroke-linejoin:miter;stroke-miterlimit:4;stroke-dasharray:none;stroke-opacity:1"/><path id="path178" d="m 2370.39,630.039 -19.8,7.66 34.96,-41.961 -7.54,54.102 z" style="fill:#000;fill-opacity:1;fill-rule:evenodd;stroke:none"/><path id="path180" d="m 2370.39,630.035 -19.8,7.66 34.96,-41.949 -7.54,54.098 z" style="fill:none;stroke:#000;stroke-width:4;stroke-linecap:butt;stroke-linejoin:miter;stroke-miterlimit:4;stroke-dasharray:none;stroke-opacity:1"/><path id="path182" d="M 980.23,877.5 C 859.609,744.102 876.988,715.121 925.699,604.922" style="fill:none;stroke:#000;stroke-width:7.51180983;stroke-linecap:butt;stroke-linejoin:miter;stroke-miterlimit:4;stroke-dasharray:none;stroke-opacity:1"/><path id="path184" d="m 913.551,632.422 -19.801,7.656 35,-42.027 -7.539,54.179 z" style="fill:#000;fill-opacity:1;fill-rule:evenodd;stroke:none"/><path id="path186" d="m 913.559,632.418 -19.809,7.656 35.004,-42.023 -7.539,54.179 z" style="fill:none;stroke:#000;stroke-width:4.00629997;stroke-linecap:butt;stroke-linejoin:miter;stroke-miterlimit:4;stroke-dasharray:none;stroke-opacity:1"/><path id="path188" d="m 2360.59,1146.49 h 432.66 v 220.391 h -432.66 z" style="fill:#fdfdfd;fill-opacity:1;fill-rule:nonzero;stroke:none"/><path id="path190" d="m 2360.59,1146.49 h 432.66 v 220.391 h -432.66 z" style="fill:none;stroke:#000;stroke-width:7.51180983;stroke-linecap:butt;stroke-linejoin:miter;stroke-miterlimit:4;stroke-dasharray:none;stroke-opacity:1"/><path id="path192" d="m 2360.59,1017.18 h 434.379 v 129.301 H 2360.59 Z" style="fill:#f5f5f5;fill-opacity:1;fill-rule:nonzero;stroke:none"/><path id="path194" d="m 2360.59,1017.18 h 434.379 v 129.301 H 2360.59 Z" style="fill:none;stroke:#000;stroke-width:7.51180983;stroke-linecap:butt;stroke-linejoin:miter;stroke-miterlimit:4;stroke-dasharray:none;stroke-opacity:1"/><g id="g196" transform="scale(10)"><text id="text204" transform="matrix(1,0,0,-1,241.894,127.177)" style="font-variant:normal;font-size:6px;font-family:Helvetica;-inkscape-font-specification:f-0-0;writing-mode:lr-tb;fill:#000;fill-opacity:1;fill-rule:nonzero;stroke:none"><tspan id="tspan198" x="0 4.332 7.668 9 12.354 15.354 18.69 20.358 23.694 27.03 28.362" y="0">Relocatable</tspan><tspan id="tspan200" x="12.018 13.686 15.018 16.35" y="7.275">file</tspan><tspan id="tspan202" x="2.944 6.946 8.614 10.282 12.28 13.612 16.948 20.302 21.97 25.306" y="20.761">Attributes</tspan></text></g><path id="path206" d="m 2297.97,1082.7 h 432.621 v 220.391 H 2297.97 Z" style="fill:#fdfdfd;fill-opacity:1;fill-rule:nonzero;stroke:none"/><path id="path208" d="m 2297.97,1082.7 h 432.621 v 220.391 H 2297.97 Z" style="fill:none;stroke:#000;stroke-width:7.51180983;stroke-linecap:butt;stroke-linejoin:miter;stroke-miterlimit:4;stroke-dasharray:none;stroke-opacity:1"/><path id="path210" d="m 2297.97,953.359 h 434.383 v 129.34 H 2297.97 Z" style="fill:#f5f5f5;fill-opacity:1;fill-rule:nonzero;stroke:none"/><path id="path212" d="m 2297.97,953.359 h 434.383 v 129.34 H 2297.97 Z" style="fill:none;stroke:#000;stroke-width:7.51180983;stroke-linecap:butt;stroke-linejoin:miter;stroke-miterlimit:4;stroke-dasharray:none;stroke-opacity:1"/><g id="g214" transform="scale(10)"><text id="text222" transform="matrix(1,0,0,-1,235.631,120.798)" style="font-variant:normal;font-size:6px;font-family:Helvetica;-inkscape-font-specification:f-0-0;writing-mode:lr-tb;fill:#000;fill-opacity:1;fill-rule:nonzero;stroke:none"><tspan id="tspan216" x="0 4.332 7.668 9 12.354 15.354 18.69 20.358 23.694 27.03 28.362" y="0">Relocatable</tspan><tspan id="tspan218" x="12.018 13.686 15.018 16.35" y="7.275">file</tspan><tspan id="tspan220" x="2.944 6.946 8.614 10.282 12.28 13.612 16.948 20.302 21.97 25.306" y="20.762">Attributes</tspan></text></g><path id="path224" d="m 2228.09,1018.63 h 432.621 v 220.391 H 2228.09 Z" style="fill:#fdfdfd;fill-opacity:1;fill-rule:nonzero;stroke:none"/><path id="path226" d="m 2228.09,1018.63 h 432.621 v 220.391 H 2228.09 Z" style="fill:none;stroke:#000;stroke-width:7.51180983;stroke-linecap:butt;stroke-linejoin:miter;stroke-miterlimit:4;stroke-dasharray:none;stroke-opacity:1"/><path id="path228" d="m 2228.09,889.289 h 434.379 v 129.34 H 2228.09 Z" style="fill:#fdfdfd;fill-opacity:1;fill-rule:nonzero;stroke:none"/><path id="path230" d="m 2228.09,889.289 h 434.379 v 129.34 H 2228.09 Z" style="fill:none;stroke:#000;stroke-width:7.51180983;stroke-linecap:butt;stroke-linejoin:miter;stroke-miterlimit:4;stroke-dasharray:none;stroke-opacity:1"/><g id="g232" transform="scale(10)"><text id="text240" transform="matrix(1,0,0,-1,228.643,114.389)" style="font-variant:normal;font-size:6px;font-family:Helvetica;-inkscape-font-specification:f-0-0;writing-mode:lr-tb;fill:#000;fill-opacity:1;fill-rule:nonzero;stroke:none"><tspan id="tspan234" x="0 4.332 7.668 9 12.354 15.354 18.69 20.358 23.694 27.03 28.362" y="0">Relocatable</tspan><tspan id="tspan236" x="12.018 13.686 15.018 16.35" y="7.275">file</tspan><tspan id="tspan238" x="2.944 6.946 8.614 10.282 12.28 13.612 16.948 20.302 21.97 25.306" y="20.761">Attributes</tspan></text></g><path id="path242" d="M 1220.47,882.07 2147.19,462.191" style="fill:none;stroke:#000;stroke-width:7.5;stroke-linecap:butt;stroke-linejoin:miter;stroke-miterlimit:4;stroke-dasharray:none;stroke-opacity:1"/><path id="path244" d="m 2119.84,474.57 -19.84,-7.5 54.02,-7.968 -41.64,35.308 z" style="fill:#000;fill-opacity:1;fill-rule:evenodd;stroke:none"/><path id="path246" d="m 2119.84,474.57 -19.84,-7.5 54.02,-7.961 -41.64,35.305 z" style="fill:none;stroke:#000;stroke-width:4;stroke-linecap:butt;stroke-linejoin:miter;stroke-miterlimit:4;stroke-dasharray:none;stroke-opacity:1"/><path id="path248" d="M 2186.64,883.199 1250.62,444.77" style="fill:none;stroke:#000;stroke-width:7.5;stroke-linecap:butt;stroke-linejoin:miter;stroke-miterlimit:4;stroke-dasharray:none;stroke-opacity:1"/><path id="path250" d="m 1277.77,457.5 7.23,19.961 -41.17,-35.859 53.9,8.668 z" style="fill:#000;fill-opacity:1;fill-rule:evenodd;stroke:none"/><path id="path252" d="m 1277.77,457.5 7.23,19.957 -41.17,-35.855 53.9,8.671 z" style="fill:none;stroke:#000;stroke-width:4;stroke-linecap:butt;stroke-linejoin:miter;stroke-miterlimit:4;stroke-dasharray:none;stroke-opacity:1"/><path id="path254" d="M 969.922,160.621 V 56.2109" style="fill:none;stroke:#000;stroke-width:7.51180983;stroke-linecap:butt;stroke-linejoin:miter;stroke-miterlimit:4;stroke-dasharray:none;stroke-opacity:1"/><path id="path256" d="m 969.922,86.2891 -15.043,14.9999 15.043,-52.5781 15.039,52.5781 z" style="fill:#000;fill-opacity:1;fill-rule:evenodd;stroke:none"/><path id="path258" d="m 969.922,86.2891 -15.043,14.9999 15.043,-52.5781 15.039,52.5781 z" style="fill:none;stroke:#000;stroke-width:4.00629997;stroke-linecap:butt;stroke-linejoin:miter;stroke-miterlimit:4;stroke-dasharray:none;stroke-opacity:1"/><path id="path260" d="M 2423.24,160.621 V 56.2109" style="fill:none;stroke:#000;stroke-width:7.51180983;stroke-linecap:butt;stroke-linejoin:miter;stroke-miterlimit:4;stroke-dasharray:none;stroke-opacity:1"/><path id="path262" d="m 2423.24,86.2891 -15.04,14.9999 15.04,-52.5781 15,52.5781 z" style="fill:#000;fill-opacity:1;fill-rule:evenodd;stroke:none"/><path id="path264" d="m 2423.24,86.2891 -15.04,14.9999 15.04,-52.5781 15,52.5781 z" style="fill:none;stroke:#000;stroke-width:4.00629997;stroke-linecap:butt;stroke-linejoin:miter;stroke-miterlimit:4;stroke-dasharray:none;stroke-opacity:1"/><g id="g266" transform="scale(10)"><text id="text308" transform="matrix(1,0,0,-1,75.7715,181.459)" style="font-variant:normal;font-size:6px;font-family:Helvetica;-inkscape-font-specification:f-0-0;writing-mode:lr-tb;fill:#000;fill-opacity:1;fill-rule:nonzero;stroke:none"><tspan id="tspan268" x="0 4.332 7.668 12.666 16.02 17.352 18.684 22.02 24.036 25.704" y="0">Compiler /</tspan><tspan id="tspan270" x="-.17 3.166 6.166 9.166 12.502 17.5 20.854 22.186 25.522" y="7.05">assembler</tspan><tspan id="tspan272" x="146.491 150.823 154.159 159.157 162.511 163.843 165.175 168.511 170.527 172.195" y="0">Compiler /</tspan><tspan id="tspan274" x="146.321 149.657 152.657 155.657 158.993 163.991 167.345 168.677 172.013" y="7.05">assembler</tspan><tspan id="tspan276" x="236.879 241.211 244.211 247.547" y="16.122">User</tspan><tspan id="tspan278" x="230.37 231.702 235.038 236.706 240.042 243.378 245.046 246.378 249.732 253.068" y="23.172">intentions</tspan><tspan id="tspan280" x="235.707 239.043 242.379 245.715 249.07" y="30.222">about</tspan><tspan id="tspan282" x="226.702 229.702 233.038 238.036 241.372 244.725 246.393 247.725 251.061 252.393 253.725 255.075 256.743" y="37.272">compatibility</tspan><tspan id="tspan284" x="-49.982 -45.65 -42.65 -39.314" y="30.509">User</tspan><tspan id="tspan286" x="-56.492 -55.16 -51.824 -50.156 -46.82 -43.484 -41.816 -40.484 -37.13 -33.794" y="37.559">intentions</tspan><tspan id="tspan288" x="-51.154 -47.818 -44.482 -41.146 -37.792" y="44.609">about</tspan><tspan id="tspan290" x="-60.16 -57.16 -53.824 -48.826 -45.49 -42.136 -40.468 -39.136 -35.8 -34.468 -33.136 -31.786 -30.118" y="51.659">compatibility</tspan><tspan id="tspan292" x="-56.857 -52.525 -49.189 -44.191 -40.837 -37.501 -35.833 -34.501 -31.165 -29.833 -28.484 -27.152 -25.484" y="109.491">Compatibility</tspan><tspan id="tspan294" x="-50.687 -45.689 -42.353 -39.017 -35.664 -34.332 -32.664" y="116.541">model A</tspan><tspan id="tspan296" x="225.144 229.476 232.812 237.81 241.163 244.499 246.167 247.499 250.835 252.167 253.517 254.849 256.517" y="111.02">Compatibility</tspan><tspan id="tspan298" x="231.313 236.311 239.647 242.983 246.337 247.669 249.337" y="118.07">model B</tspan><tspan id="tspan300" x="158.256 161.592 162.924 166.26 169.26 172.614" y="147.535">Linker</tspan><tspan id="tspan302" x="12.028 15.364 16.696 20.032 23.032 26.386" y="146.753">Linker</tspan><tspan id="tspan304" x="65.225 69.227 72.227 75.227 78.563 81.899 85.253 88.589 91.925 93.593 96.929 98.597 100.265 103.601 106.937 108.935 110.603 113.939 117.293 118.625" y="167.021">Exchange of portable</tspan><tspan id="tspan306" x="72.737 74.735 78.071 79.403 82.757 85.757 89.093 90.761 94.097 97.433 98.765 102.101 103.769 105.437 106.769 108.101 111.455" y="174.071">relocatable files</tspan></text></g></g></g></svg>