<svg xmlns="http://www.w3.org/2000/svg" xmlns:svg="http://www.w3.org/2000/svg" id="svg2" width="477.333" height="262.667" version="1.1" viewBox="0 0 477.333 262.667" xml:space="preserve"><metadata id="metadata8"/><g id="g10" transform="matrix(1.3333333,0,0,-1.3333333,0,262.66667)"><g id="g12" transform="scale(0.1)"><path id="path14" d="m 145.352,1482.66 h 219.219 v 161.211 H 145.352 Z" style="fill:#fff;fill-opacity:1;fill-rule:nonzero;stroke:none"/><path id="path16" d="m 145.352,1482.66 h 219.219 v 161.211 H 145.352 Z" style="fill:none;stroke:#000;stroke-width:11.33860016;stroke-linecap:butt;stroke-linejoin:miter;stroke-miterlimit:4;stroke-dasharray:none;stroke-opacity:1"/><path id="path18" d="m 364.57,1482.66 h 219.219 v 161.211 H 364.57 Z" style="fill:#ccc;fill-opacity:1;fill-rule:nonzero;stroke:none"/><path id="path20" d="m 364.57,1482.66 h 219.219 v 161.211 H 364.57 Z" style="fill:none;stroke:#000;stroke-width:11.33860016;stroke-linecap:butt;stroke-linejoin:miter;stroke-miterlimit:4;stroke-dasharray:34.0158,34.0158;stroke-dashoffset:0;stroke-opacity:1"/><path id="path22" d="m 583.789,1482.66 h 219.223 v 161.211 H 583.789 Z" style="fill:#fff;fill-opacity:1;fill-rule:nonzero;stroke:none"/><path id="path24" d="m 583.789,1482.66 h 219.223 v 161.211 H 583.789 Z" style="fill:none;stroke:#000;stroke-width:11.33860016;stroke-linecap:butt;stroke-linejoin:miter;stroke-miterlimit:4;stroke-dasharray:none;stroke-opacity:1"/><path id="path26" d="m 803.59,1483.24 h 269.059 v 160.043 H 803.59 Z" style="fill:none;stroke:#000;stroke-width:12.51599979;stroke-linecap:butt;stroke-linejoin:miter;stroke-miterlimit:4;stroke-dasharray:none;stroke-opacity:1"/><path id="path28" d="M 1091.8,1698.4 2595,731.051" style="fill:none;stroke:#000;stroke-width:7.5;stroke-linecap:butt;stroke-linejoin:miter;stroke-miterlimit:4;stroke-dasharray:22.5,22.5;stroke-dashoffset:0;stroke-opacity:1"/><path id="path30" d="m 1072.66,1482.07 h 219.219 v 161.211 H 1072.66 Z" style="fill:#fff;fill-opacity:1;fill-rule:nonzero;stroke:none"/><path id="path32" d="m 1072.66,1482.07 h 219.219 v 161.211 H 1072.66 Z" style="fill:none;stroke:#000;stroke-width:11.33860016;stroke-linecap:butt;stroke-linejoin:miter;stroke-miterlimit:4;stroke-dasharray:none;stroke-opacity:1"/><path id="path34" d="M 145.121,969.77 H 346.25 v 161.68 H 145.121 Z" style="fill:#fff;fill-opacity:1;fill-rule:nonzero;stroke:none"/><path id="path36" d="M 145.121,969.77 H 346.25 v 161.68 H 145.121 Z" style="fill:none;stroke:#000;stroke-width:10.87609959;stroke-linecap:butt;stroke-linejoin:miter;stroke-miterlimit:4;stroke-dasharray:none;stroke-opacity:1"/><path id="path38" d="m 346.25,969.77 h 201.09 v 161.68 H 346.25 Z" style="fill:#fff;fill-opacity:1;fill-rule:nonzero;stroke:none"/><path id="path40" d="m 346.25,969.77 h 201.09 v 161.68 H 346.25 Z" style="fill:none;stroke:#000;stroke-width:10.87609959;stroke-linecap:butt;stroke-linejoin:miter;stroke-miterlimit:4;stroke-dasharray:none;stroke-opacity:1"/><path id="path42" d="m 547.852,970.238 h 239.57 v 160.742 h -239.57 z" style="fill:#fff;fill-opacity:1;fill-rule:nonzero;stroke:none"/><path id="path44" d="m 547.852,970.238 h 239.57 v 160.742 h -239.57 z" style="fill:none;stroke:#000;stroke-width:11.83570004;stroke-linecap:butt;stroke-linejoin:miter;stroke-miterlimit:4;stroke-dasharray:none;stroke-opacity:1"/><path id="path46" d="m 787.422,969.301 h 201.129 v 161.68 H 787.422 Z" style="fill:none;stroke:#000;stroke-width:10.87609959;stroke-linecap:butt;stroke-linejoin:miter;stroke-miterlimit:4;stroke-dasharray:none;stroke-opacity:1"/><path id="path48" d="m 988.551,969.301 h 201.129 v 161.68 H 988.551 Z" style="fill:#fff;fill-opacity:1;fill-rule:nonzero;stroke:none"/><path id="path50" d="m 988.551,969.301 h 201.129 v 161.68 H 988.551 Z" style="fill:none;stroke:#000;stroke-width:10.87609959;stroke-linecap:butt;stroke-linejoin:miter;stroke-miterlimit:4;stroke-dasharray:none;stroke-opacity:1"/><path id="path52" d="m 1383.52,1266.33 h 269.059 v 160.082 H 1383.52 Z" style="fill:#fff;fill-opacity:1;fill-rule:nonzero;stroke:none"/><path id="path54" d="m 1383.52,1266.33 h 269.059 v 160.082 H 1383.52 Z" style="fill:none;stroke:#000;stroke-width:12.51599979;stroke-linecap:butt;stroke-linejoin:miter;stroke-miterlimit:4;stroke-dasharray:none;stroke-opacity:1"/><path id="path56" d="m 2628.63,813.391 h 455.82 v 534.73 h -455.82 z" style="fill:none;stroke:#000;stroke-width:11.33860016;stroke-linecap:butt;stroke-linejoin:miter;stroke-miterlimit:4;stroke-dasharray:none;stroke-opacity:1"/><path id="path58" d="m 2626.09,655.43 h 460.898 V 815.942 H 2626.09 Z" style="fill:none;stroke:#000;stroke-width:11.33860016;stroke-linecap:butt;stroke-linejoin:miter;stroke-miterlimit:4;stroke-dasharray:none;stroke-opacity:1"/><path id="path60" d="m 2626.09,494.922 h 460.898 V 655.43 H 2626.09 Z" style="fill:none;stroke:#000;stroke-width:11.33860016;stroke-linecap:butt;stroke-linejoin:miter;stroke-miterlimit:4;stroke-dasharray:none;stroke-opacity:1"/><path id="path62" d="m 3121.56,10.7813 h 447.73 v 503.398 h -447.73 z" style="fill:none;stroke:#000;stroke-width:11.33860016;stroke-linecap:butt;stroke-linejoin:miter;stroke-miterlimit:4;stroke-dasharray:none;stroke-opacity:1"/><path id="path64" d="m 35.1602,1725.08 v -164.73 h 63.789" style="fill:none;stroke:#000;stroke-width:7.5;stroke-linecap:butt;stroke-linejoin:miter;stroke-miterlimit:4;stroke-dasharray:none;stroke-opacity:1"/><path id="path66" d="m 68.9492,1560.35 -15,-15 52.4998,15 -52.4998,15 z" style="fill:#000;fill-opacity:1;fill-rule:evenodd;stroke:none"/><path id="path68" d="m 68.9492,1560.35 -15,-15 52.4998,15 -52.4998,15 z" style="fill:none;stroke:#000;stroke-width:4;stroke-linecap:butt;stroke-linejoin:miter;stroke-miterlimit:4;stroke-dasharray:none;stroke-opacity:1"/><path id="path70" d="m 147.66,1749.41 h 923.28" style="fill:none;stroke:#000;stroke-width:7.5;stroke-linecap:butt;stroke-linejoin:miter;stroke-miterlimit:4;stroke-dasharray:none;stroke-opacity:1"/><path id="path72" d="m 1040.94,1749.41 -15,-15 52.5,15 -52.5,15 z" style="fill:#000;fill-opacity:1;fill-rule:evenodd;stroke:none"/><path id="path74" d="m 1040.94,1749.41 -15,-15 52.5,15 -52.5,15 z" style="fill:none;stroke:#000;stroke-width:4;stroke-linecap:butt;stroke-linejoin:miter;stroke-miterlimit:4;stroke-dasharray:none;stroke-opacity:1"/><path id="path76" d="m 1091.8,1698.4 h 89.33" style="fill:none;stroke:#000;stroke-width:7.5;stroke-linecap:butt;stroke-linejoin:miter;stroke-miterlimit:4;stroke-dasharray:none;stroke-opacity:1"/><path id="path78" d="m 1151.13,1698.4 -15,-15 52.5,15 -52.5,15 z" style="fill:#000;fill-opacity:1;fill-rule:evenodd;stroke:none"/><path id="path80" d="m 1151.13,1698.4 -15,-15 52.5,15 -52.5,15 z" style="fill:none;stroke:#000;stroke-width:4;stroke-linecap:butt;stroke-linejoin:miter;stroke-miterlimit:4;stroke-dasharray:none;stroke-opacity:1"/><path id="path82" d="M 147.66,1828.28 H 554.801" style="fill:none;stroke:#000;stroke-width:7.5;stroke-linecap:butt;stroke-linejoin:miter;stroke-miterlimit:4;stroke-dasharray:none;stroke-opacity:1"/><path id="path84" d="m 524.801,1828.28 -15,-15 52.5,15 -52.5,15 z" style="fill:#000;fill-opacity:1;fill-rule:evenodd;stroke:none"/><path id="path86" d="m 524.801,1828.28 -15,-15 52.5,15 -52.5,15 z" style="fill:none;stroke:#000;stroke-width:4;stroke-linecap:butt;stroke-linejoin:miter;stroke-miterlimit:4;stroke-dasharray:none;stroke-opacity:1"/><path id="path88" d="M 170.859,1479.18 V 1175.27" style="fill:none;stroke:#000;stroke-width:7.5;stroke-linecap:butt;stroke-linejoin:miter;stroke-miterlimit:4;stroke-dasharray:none;stroke-opacity:1"/><path id="path90" d="m 170.859,1205.27 -15,15 15,-52.5 15,52.5 z" style="fill:#000;fill-opacity:1;fill-rule:evenodd;stroke:none"/><path id="path92" d="m 170.859,1205.27 -15,15 15,-52.5 15,52.5 z" style="fill:none;stroke:#000;stroke-width:4;stroke-linecap:butt;stroke-linejoin:miter;stroke-miterlimit:4;stroke-dasharray:none;stroke-opacity:1"/><path id="path94" d="m 434.18,1132.38 135.699,307.35" style="fill:none;stroke:#000;stroke-width:7.5;stroke-linecap:butt;stroke-linejoin:miter;stroke-miterlimit:4;stroke-dasharray:none;stroke-opacity:1"/><path id="path96" d="m 557.73,1412.3 7.7,-19.8 7.461,54.1 -34.922,-41.99 z" style="fill:#000;fill-opacity:1;fill-rule:evenodd;stroke:none"/><path id="path98" d="m 557.734,1412.31 7.7,-19.81 7.457,54.11 -34.926,-42 z" style="fill:none;stroke:#000;stroke-width:4;stroke-linecap:butt;stroke-linejoin:miter;stroke-miterlimit:4;stroke-dasharray:none;stroke-opacity:1"/><path id="path100" d="m 680.039,1132.38 128.75,305.04" style="fill:none;stroke:#000;stroke-width:7.5;stroke-linecap:butt;stroke-linejoin:miter;stroke-miterlimit:4;stroke-dasharray:none;stroke-opacity:1"/><path id="path102" d="m 797.148,1409.77 7.973,-19.65 6.598,54.22 -34.219,-42.54 z" style="fill:#000;fill-opacity:1;fill-rule:evenodd;stroke:none"/><path id="path104" d="m 797.148,1409.77 7.965,-19.65 6.602,54.21 -34.211,-42.53 z" style="fill:none;stroke:#000;stroke-width:4;stroke-linecap:butt;stroke-linejoin:miter;stroke-miterlimit:4;stroke-dasharray:none;stroke-opacity:1"/><path id="path106" d="m 899.262,1133.52 176.328,302.73" style="fill:#fff;fill-opacity:1;fill-rule:nonzero;stroke:none"/><path id="path108" d="m 899.262,1133.52 176.328,302.73" style="fill:none;stroke:#000;stroke-width:7.5;stroke-linecap:butt;stroke-linejoin:miter;stroke-miterlimit:4;stroke-dasharray:none;stroke-opacity:1"/><path id="path110" d="m 1060.47,1410.35 5.43,-20.55 13.44,52.93 -39.38,-37.81 z" style="fill:#000;fill-opacity:1;fill-rule:evenodd;stroke:none"/><path id="path112" d="m 1060.47,1410.36 5.43,-20.55 13.44,52.92 -39.38,-37.81 z" style="fill:none;stroke:#000;stroke-width:4;stroke-linecap:butt;stroke-linejoin:miter;stroke-miterlimit:4;stroke-dasharray:none;stroke-opacity:1"/><path id="path114" d="m 1095.27,1132.38 274.89,100.9" style="fill:none;stroke:#000;stroke-width:7.5;stroke-linecap:butt;stroke-linejoin:miter;stroke-miterlimit:4;stroke-dasharray:none;stroke-opacity:1"/><path id="path116" d="m 1341.99,1222.93 -8.9,-19.26 44.14,32.19 -54.46,-4.02 z" style="fill:#000;fill-opacity:1;fill-rule:evenodd;stroke:none"/><path id="path118" d="m 1341.99,1222.93 -8.9,-19.25 44.14,32.18 -54.45,-4.02 z" style="fill:none;stroke:#000;stroke-width:4;stroke-linecap:butt;stroke-linejoin:miter;stroke-miterlimit:4;stroke-dasharray:none;stroke-opacity:1"/><path id="path120" d="M 2597.3,675.391 H 898.121" style="fill:none;stroke:#000;stroke-width:7.5;stroke-linecap:butt;stroke-linejoin:miter;stroke-miterlimit:4;stroke-dasharray:22.5,22.5;stroke-dashoffset:0;stroke-opacity:1"/><path id="path122" d="m 898.121,675.391 v 75.39" style="fill:none;stroke:#000;stroke-width:7.5;stroke-linecap:butt;stroke-linejoin:miter;stroke-miterlimit:4;stroke-dasharray:none;stroke-opacity:1"/><path id="path124" d="m 898.121,720.781 15,-15 -15,52.5 -15,-52.5 z" style="fill:#000;fill-opacity:1;fill-rule:evenodd;stroke:none"/><path id="path126" d="m 898.121,720.781 15,-15 -15,52.5 -15,-52.5 z" style="fill:none;stroke:#000;stroke-width:4;stroke-linecap:butt;stroke-linejoin:miter;stroke-miterlimit:4;stroke-dasharray:none;stroke-opacity:1"/><path id="path128" d="M 3122.73,243.91 H 2844.38 V 589.57" style="fill:none;stroke:#000;stroke-width:7.5;stroke-linecap:butt;stroke-linejoin:miter;stroke-miterlimit:4;stroke-dasharray:none;stroke-opacity:1"/><path id="path130" d="m 2844.38,559.57 15,-15 -15,52.5 -15,-52.5 z" style="fill:#000;fill-opacity:1;fill-rule:evenodd;stroke:none"/><path id="path132" d="m 2844.38,559.57 15,-15 -15,52.5 -15,-52.5 z" style="fill:none;stroke:#000;stroke-width:4;stroke-linecap:butt;stroke-linejoin:miter;stroke-miterlimit:4;stroke-dasharray:none;stroke-opacity:1"/><g id="g134" transform="scale(10)"><text id="text178" transform="matrix(1,0,0,-1,16.9715,154.645)" style="font-variant:normal;font-size:7px;font-family:Helvetica;-inkscape-font-specification:f-0-0;writing-mode:lr-tb;fill:#000;fill-opacity:1;fill-rule:nonzero;stroke:none"><tspan id="tspan136" x="0 4.277 9.331 43.26 47.537 51.429 67.389 71.666 75.558 80.227 82.173 84.119" y="0">TCBTLSTLS...</tspan><tspan id="tspan138" x="124.105 128.382 132.274" y="22.038">TLS</tspan><tspan id="tspan140" x=".927 4.819 8.711 20.758 24.65 26.596 40.246 44.138 46.084 49.584 51.53 53.476 64.837 68.729 70.675 84.556 88.448 90.394" y="51.614">nnndtvdtv...dtvdtv</tspan><tspan id="tspan142" x="93.6 97.877 101.769" y="0">TLS</tspan><tspan id="tspan144" x="-14.963 -13.017 -9.125 -5.233 -1.341 2.159 25.861 46.973 48.919 50.865 69.709 84.318 89.372 91.318 95.406 97.352" y="73.072">Index:1...NN + 1</tspan><tspan id="tspan146" x="79.914 84.968 88.86 94.691 98.604 102.496 106.388 110.28 114.172 116.118 118.064 119.618 123.51 127.423 131.315 134.815 136.761 141.815 143.761 147.261 149.207 153.099 155.43 159.322 163.214 165.16 166.714 170.627 172.573 178.019 183.465" y="100.445">Component index N stored in GOT</tspan><tspan id="tspan148" x="168.495 173.164 178.218 180.57 182.901 186.793 188.347 192.26 194.206 195.76 199.26 203.152 205.098 207.429 211.321 213.267 217.159 219.49 223.403 227.295 230.795 234.687 236.633 238.579 242.471 244.417 249.863 255.309" y="126.541">PC-relative reference to GOT</tspan><tspan id="tspan150" x="180.798 186.244 188.19 190.136 193.636 197.528 199.474 201.399 202.953 206.845 208.791 213.068 216.96" y="22.501">Offset in TLS</tspan><tspan id="tspan152" x="186.608 190.5 192.446 194.392 195.946 201.777 205.669 209.561 211.914 213.86 217.752" y="30.001">of imported</tspan><tspan id="tspan154" x="197.108 200.608 204.5 206.831 208.385 212.298 216.19 217.744" y="37.501">variable</tspan><tspan id="tspan156" x="194.784 198.284 200.23 204.122 206.453 210.345 214.237 216.183 217.737" y="45.001">stored in</tspan><tspan id="tspan158" x="206.487 211.933 217.379" y="52.501">GOT</tspan><tspan id="tspan160" x="261.692 266.746 270.638 272.584" y="46.511">Data</tspan><tspan id="tspan162" x="255.655 259.155 263.047 266.939 272.77 276.683 280.575" y="54.011">segment</tspan><tspan id="tspan164" x="255.305 260.751 266.197 270.474 272.42 274.366 276.29" y="83.974">GOT ...</tspan><tspan id="tspan166" x="302.327 307.381 312.05" y="83.278">DSO</tspan><tspan id="tspan168" x="308.326 312.603 316.495 319.995" y="123.642">Text</tspan><tspan id="tspan170" x="301.702 305.202 309.094 312.986 318.817 322.73 326.622" y="131.142">segment</tspan><tspan id="tspan172" x="5.456 9.348 11.294 13.24 16.74 20.632 22.578 24.524" y="-37.231">offset 1</tspan><tspan id="tspan174" x="63.216 67.108 69.054 71 74.5 78.392 80.338 82.284" y="-29.344">offset N</tspan><tspan id="tspan176" x="-17.069 -15.123" y="-21.689">tp</tspan></text><text id="text186" transform="matrix(1,0,0,-1,73.387519,153.25243)" style="font-variant:normal;font-size:4px;font-family:Helvetica;-inkscape-font-specification:f-0-0;writing-mode:lr-tb;fill:#000;fill-opacity:1;fill-rule:nonzero;stroke:none"><tspan id="tspan180" x="0 50.238" y="0">1N</tspan><tspan id="tspan182" x="80.744" y="22.452">D</tspan><tspan id="tspan184" x="-26.577 17.746 37.23" y="51.872">1ND</tspan></text></g></g></g></svg>