<svg xmlns="http://www.w3.org/2000/svg" xmlns:svg="http://www.w3.org/2000/svg" id="svg2" width="774.667" height="109.333" version="1.1" viewBox="0 0 774.667 109.333" xml:space="preserve"><metadata id="metadata8"/><g id="g10" transform="matrix(1.3333333,0,0,-1.3333333,0,109.33333)"><g id="g12" transform="scale(0.1)"><path id="path14" d="M 3.75,317.539 H 361.871 V 637.07 H 3.75 Z" style="fill:none;stroke:#000;stroke-width:7.51180983;stroke-linecap:butt;stroke-linejoin:miter;stroke-miterlimit:4;stroke-dasharray:none;stroke-opacity:1"/><path id="path16" d="m 361.879,317.73 h 5442.23 V 637.07 H 361.879 Z" style="fill:none;stroke:#000;stroke-width:8.69371986;stroke-linecap:butt;stroke-linejoin:miter;stroke-miterlimit:4;stroke-dasharray:none;stroke-opacity:1"/><path id="path18" d="M 3.75,317.539 V 0.351563" style="fill:none;stroke:#000;stroke-width:7.5;stroke-linecap:butt;stroke-linejoin:miter;stroke-miterlimit:4;stroke-dasharray:none;stroke-opacity:1"/><path id="path20" d="M 5804.69,317.66 V 0.429688" style="fill:none;stroke:#000;stroke-width:7.5;stroke-linecap:butt;stroke-linejoin:miter;stroke-miterlimit:4;stroke-dasharray:none;stroke-opacity:1"/><g id="g22" transform="scale(10)"><text id="text26" transform="matrix(1,0,0,-1,12.3125,73.4922)" style="font-variant:normal;font-size:12px;font-family:Helvetica;-inkscape-font-specification:f-0-0;writing-mode:lr-tb;fill:#000;fill-opacity:1;fill-rule:nonzero;stroke:none"><tspan id="tspan24" x="0 6.672 29.16 35.832" y="0">3130</tspan></text><text id="text32" transform="matrix(1,0,0,-1,14.04453,42.1965)" style="font-variant:normal;font-size:14px;font-family:Helvetica;-inkscape-font-specification:f-0-0;writing-mode:lr-tb;fill:#000;fill-opacity:1;fill-rule:nonzero;stroke:none"><tspan id="tspan28" x="0 145.81 156.702 160.594 164.486 171.486 179.27 183.162 187.054 194.838 198.73 202.58 206.472 214.256 222.04 225.932 233.716 241.5 246.162 253.162 260.988 268.772 276.556 279.664 282.772 286.664 293.664 297.556 302.218 310.044 317.828 321.72 324.828 332.612" y="0">0Offset of the personality routine</tspan><tspan id="tspan30" x="136.682 146.79 154.574 158.466 166.25 170.142 174.034 181.818 186.48 190.372 194.264 202.048 209.832 213.724 221.508 229.292 233.996 240.996 248.78 256.564 264.348 267.498 270.606 274.498 281.498 285.39 290.052 297.836 305.62 309.512 312.62 320.404 328.23 332.122 336.014 339.906" y="32.538">Data for the personality routine ...</tspan></text><text id="text36" transform="matrix(1,0,0,-1,569.67553,73.4922)" style="font-variant:normal;font-size:12px;font-family:Helvetica;-inkscape-font-specification:f-0-0;writing-mode:lr-tb;fill:#000;fill-opacity:1;fill-rule:nonzero;stroke:none"><tspan id="tspan34" x="0" y="0">0</tspan></text></g></g></g></svg>