<svg xmlns="http://www.w3.org/2000/svg" xmlns:svg="http://www.w3.org/2000/svg" id="svg2" width="774.667" height="109.333" version="1.1" viewBox="0 0 774.667 109.333" xml:space="preserve"><metadata id="metadata8"/><g id="g10" transform="matrix(1.3333333,0,0,-1.3333333,0,109.33333)"><g id="g12" transform="scale(0.1)"><path id="path14" d="M 3.75,317.539 H 361.871 V 637.07 H 3.75 Z" style="fill:none;stroke:#000;stroke-width:7.51180983;stroke-linecap:butt;stroke-linejoin:miter;stroke-miterlimit:4;stroke-dasharray:none;stroke-opacity:1"/><path id="path16" d="M 362.578,317.539 H 868.012 V 637.07 H 362.578 Z" style="fill:none;stroke:#000;stroke-width:7.52800989;stroke-linecap:butt;stroke-linejoin:miter;stroke-miterlimit:4;stroke-dasharray:none;stroke-opacity:1"/><path id="path18" d="m 868.59,317.539 h 636.559 V 637.07 H 868.59 Z" style="fill:none;stroke:#000;stroke-width:7.5405302;stroke-linecap:butt;stroke-linejoin:miter;stroke-miterlimit:4;stroke-dasharray:none;stroke-opacity:1"/><path id="path20" d="m 1505.16,317.648 h 4299.53 v 319.34 H 1505.16 Z" style="fill:none;stroke:#000;stroke-width:7.72726011;stroke-linecap:butt;stroke-linejoin:miter;stroke-miterlimit:4;stroke-dasharray:none;stroke-opacity:1"/><path id="path22" d="M 3.75,317.539 V 0.351563" style="fill:none;stroke:#000;stroke-width:7.5;stroke-linecap:butt;stroke-linejoin:miter;stroke-miterlimit:4;stroke-dasharray:none;stroke-opacity:1"/><path id="path24" d="M 5804.69,317.66 V 0.429688" style="fill:none;stroke:#000;stroke-width:7.5;stroke-linecap:butt;stroke-linejoin:miter;stroke-miterlimit:4;stroke-dasharray:none;stroke-opacity:1"/><g id="g26" transform="scale(10)"><text id="text30" transform="matrix(1,0,0,-1,12.3125,73.4922)" style="font-variant:normal;font-size:12px;font-family:Helvetica;-inkscape-font-specification:f-0-0;writing-mode:lr-tb;fill:#000;fill-opacity:1;fill-rule:nonzero;stroke:none"><tspan id="tspan28" x="0 6.672 33.888 40.56 47.232 51.228 57.936 91.584 98.256 104.928 108.924 115.632 148.38 155.052" y="0">3130-2827-2423</tspan></text><text id="text36" transform="matrix(1,0,0,-1,14.04453,42.1965)" style="font-variant:normal;font-size:14px;font-family:Helvetica;-inkscape-font-specification:f-0-0;writing-mode:lr-tb;fill:#000;fill-opacity:1;fill-rule:nonzero;stroke:none"><tspan id="tspan32" x="0 43.708 86.87 89.978 97.762 105.546 113.33 145.81 155.918 163.702 167.594 175.378 179.27 183.162 190.946 195.608 199.5 207.284 215.11 219.772 226.772 234.556 242.34 250.124 253.274 256.382 260.274 267.274 277.382 285.166 292.95 296.842 299.95 307.776 315.56 319.452 322.56 330.344 338.128 345.912 352.912" y="0">10indexData for personalityRoutine[index]</tspan><tspan id="tspan34" x="136.682 148.344 156.128 160.832 168.616 172.508 180.292 188.076 191.968 199.752 203.644 207.536 215.32 219.982 223.874 227.766 235.55 243.334 247.226 255.01 262.794 267.498 274.498 282.282 290.066 297.85 300.958 304.108 308 315 318.892 323.554 331.338 339.122 343.014 346.122 353.906 361.69 365.582 369.474 373.366" y="32.538">More data for the personality routine ...</tspan></text><text id="text40" transform="matrix(1,0,0,-1,569.67553,73.4922)" style="font-variant:normal;font-size:12px;font-family:Helvetica;-inkscape-font-specification:f-0-0;writing-mode:lr-tb;fill:#000;fill-opacity:1;fill-rule:nonzero;stroke:none"><tspan id="tspan38" x="0" y="0">0</tspan></text></g></g></g></svg>