<svg xmlns="http://www.w3.org/2000/svg" xmlns:svg="http://www.w3.org/2000/svg" id="svg2" width="645.333" height="182.667" version="1.1" viewBox="0 0 645.333 182.667" xml:space="preserve"><metadata id="metadata8"/><g id="g10" transform="matrix(1.3333333,0,0,-1.3333333,0,182.66667)"><g id="g12" transform="scale(0.1)"><path id="path14" d="M 6.64063,6.21094 H 4829.9606 v 636.949 H 6.64063 Z" style="fill:silver;fill-opacity:1;fill-rule:nonzero;stroke:none"/><path id="path16" d="M 3.75,934.141 H 2384.26 V 1366.25 H 3.75 Z" style="fill:#f2f2f2;fill-opacity:1;fill-rule:nonzero;stroke:none"/><path id="path18" d="M 3.75,934.141 H 2384.26 V 1366.25 H 3.75 Z" style="fill:none;stroke:#000;stroke-width:7.51180983;stroke-linecap:butt;stroke-linejoin:miter;stroke-miterlimit:4;stroke-dasharray:none;stroke-opacity:1"/><path id="path20" d="M 2384.26,934.141 H 4764.73 V 1366.25 H 2384.26 Z" style="fill:silver;fill-opacity:1;fill-rule:nonzero;stroke:none"/><path id="path22" d="M 2384.26,934.141 H 4764.73 V 1366.25 H 2384.26 Z" style="fill:none;stroke:#000;stroke-width:7.51180983;stroke-linecap:butt;stroke-linejoin:miter;stroke-miterlimit:4;stroke-dasharray:none;stroke-opacity:1"/><path id="path24" d="m 942.301,217.031 h 3889.02 V 644.488 H 942.301 Z" style="fill:#f2f2f2;fill-opacity:1;fill-rule:nonzero;stroke:none"/><path id="path26" d="m 942.301,217.031 h 3889.02 V 644.488 H 942.301 Z" style="fill:none;stroke:#000;stroke-width:7.51180983;stroke-linecap:butt;stroke-linejoin:miter;stroke-miterlimit:4;stroke-dasharray:none;stroke-opacity:1"/><path id="path28" d="m 296.48,1076.6 h 1570.47 v 224.609 H 296.48 Z" style="fill:silver;fill-opacity:1;fill-rule:nonzero;stroke:none"/><path id="path30" d="m 67.2695,153.551 h 802.27 V 577.93 h -802.27 z" style="fill:#e0e0e0;fill-opacity:1;fill-rule:nonzero;stroke:none"/><path id="path32" d="m 1379.06,11.0508 h 2873.01 v 195.16 H 1379.06 Z" style="fill:#e0e0e0;fill-opacity:1;fill-rule:nonzero;stroke:none"/><path id="path34" d="m 1442.58,285.199 h 2369.65 v 224.57 H 1442.58 Z" style="fill:silver;fill-opacity:1;fill-rule:nonzero;stroke:none"/><g id="g36" transform="scale(10)"><text id="text50" transform="matrix(1,0,0,-1,39.4352,118.194)" style="font-variant:normal;font-size:9px;font-family:Helvetica;-inkscape-font-specification:f-0-0;writing-mode:lr-tb;fill:#000;fill-opacity:1;fill-rule:nonzero;stroke:none"><tspan id="tspan38" x="0 7.002 12.006 14.004 19.008 23.508 26.01 28.512 33.012 38.016 43.02 48.024 50.526 55.53 60.561 62.559 64.557 67.059 69.561 74.565 79.065 81.567 87.57 92.574 97.578 102.582 107.613 110.61 113.112 118.116 120.618 123.12 128.124 133.128 135.126 252.143 259.145 264.149 266.147 271.151 275.651 278.153 280.655 285.155 290.159 295.163 300.167 302.669 307.673 312.704 314.702 316.7 319.202 321.704 326.708 331.208 333.71 339.713 344.717 349.721 354.725 359.756 362.753 365.255 370.259 372.761 375.263 380.267 385.271 387.269" y="0">Object code built by Vendor 1 toolsObject code built by Vendor 2 tools</tspan><tspan id="tspan40" x="114.673 119.677 124.681 129.685 134.716 139.72 144.724 149.728 154.732 157.234 160.231 165.262 170.266 173.263 175.765 177.763 185.287 190.291 192.793 194.791 196.789 201.793 204.817 209.821 212.818 214.816 219.847 224.347 226.849 229.351 232.348 237.352 244.849 247.351 253.354 258.358 263.362 268.393 273.397 276.394 278.896 283.9 286.402 291.406 294.43 296.932 302.935 307.939 312.943 317.947 322.978 325.975 328.477" y="78.988">Language run-time libraries from Vendor 1 or Vendor 2</tspan><tspan id="tspan42" x="108.562 111.064 113.566 116.068 118.543 123.547 126.544 131.575 136.075 138.073 143.077 148.081 153.085 155.587 160.591 165.091 167.593 170.095 175.099 180.103 182.605 187.609 192.109 197.14 201.64 206.644 209.146 211.144 216.148 221.152 223.654 228.658 233.662 238.162 240.187 243.184 248.188 253.192 260.716 265.72 270.724 273.226 275.728 278.23 284.233 289.237 294.241 299.245 304.276 307.273 309.775 314.779 317.281 319.783 324.787 327.784 330.286 336.289 341.293 346.324 351.328 356.332 359.329 361.831" y="108.106">... provided by the execution environment, Vendor 1, or Vendor 2</tspan><tspan id="tspan44" x="-22.024 -16.021 -10.018 -3.988 -1.486 1.511 6.515 11.519 14.021 16.019 21.023 26.054" y="72.793">EABI-defined</tspan><tspan id="tspan46" x="-22.024 -17.02 -12.016 -10.018 -4.987 .017" y="82.843">helper</tspan><tspan id="tspan48" x="-22.024 -19.522 -14.518 -9.514 -5.014 -2.512 -.514 4.49 9.494 13.994 16.496 18.998" y="92.893">functions...</tspan></text></g><path id="path52" d="M 440.512,923.281 V 666.211" style="fill:none;stroke:#000;stroke-width:7.51180983;stroke-linecap:butt;stroke-linejoin:miter;stroke-miterlimit:4;stroke-dasharray:22.5354,22.5354;stroke-dashoffset:0;stroke-opacity:1"/><path id="path54" d="m 440.512,696.25 -15,15 15,-52.578 15.039,52.578 z" style="fill:#000;fill-opacity:1;fill-rule:evenodd;stroke:none"/><path id="path56" d="m 440.512,696.25 -15,15 15,-52.578 15.039,52.578 z" style="fill:none;stroke:#000;stroke-width:4.00629997;stroke-linecap:butt;stroke-linejoin:miter;stroke-miterlimit:4;stroke-dasharray:none;stroke-opacity:1"/><path id="path58" d="M 1732.19,923.281 V 666.211" style="fill:none;stroke:#000;stroke-width:7.51180983;stroke-linecap:butt;stroke-linejoin:miter;stroke-miterlimit:4;stroke-dasharray:none;stroke-opacity:1"/><path id="path60" d="m 1732.19,696.25 -15,15 15,-52.578 15.04,52.578 z" style="fill:#000;fill-opacity:1;fill-rule:evenodd;stroke:none"/><path id="path62" d="m 1732.19,696.25 -15,15 15,-52.578 15.04,52.578 z" style="fill:none;stroke:#000;stroke-width:4.00629997;stroke-linecap:butt;stroke-linejoin:miter;stroke-miterlimit:4;stroke-dasharray:none;stroke-opacity:1"/><path id="path64" d="M 3033.2,923.281 V 666.211" style="fill:none;stroke:#000;stroke-width:7.51180983;stroke-linecap:butt;stroke-linejoin:miter;stroke-miterlimit:4;stroke-dasharray:none;stroke-opacity:1"/><path id="path66" d="m 3033.2,696.25 -15.04,15 15.04,-52.578 15,52.578 z" style="fill:#000;fill-opacity:1;fill-rule:evenodd;stroke:none"/><path id="path68" d="m 3033.2,696.25 -15.04,15 15.04,-52.578 15,52.578 z" style="fill:none;stroke:#000;stroke-width:4.00629997;stroke-linecap:butt;stroke-linejoin:miter;stroke-miterlimit:4;stroke-dasharray:none;stroke-opacity:1"/><path id="path70" d="M 4473.55,923.281 V 88.4805" style="fill:none;stroke:#000;stroke-width:7.51180983;stroke-linecap:butt;stroke-linejoin:miter;stroke-miterlimit:4;stroke-dasharray:22.5354,22.5354;stroke-dashoffset:0;stroke-opacity:1"/><path id="path72" d="m 4473.55,118.551 -15.03,15 15.03,-52.5705 15.04,52.5705 z" style="fill:#000;fill-opacity:1;fill-rule:evenodd;stroke:none"/><path id="path74" d="m 4473.55,118.551 -15.03,15 15.03,-52.5705 15.04,52.5705 z" style="fill:none;stroke:#000;stroke-width:4.00629997;stroke-linecap:butt;stroke-linejoin:miter;stroke-miterlimit:4;stroke-dasharray:none;stroke-opacity:1"/><path id="path76" d="M 1160.7,429.219 V 91.6016" style="fill:none;stroke:#000;stroke-width:7.51180983;stroke-linecap:butt;stroke-linejoin:miter;stroke-miterlimit:4;stroke-dasharray:22.5354,22.5354;stroke-dashoffset:0;stroke-opacity:1"/><path id="path78" d="m 1160.7,121.641 -15.04,15.039 15.04,-52.6214 15.04,52.6214 z" style="fill:#000;fill-opacity:1;fill-rule:evenodd;stroke:none"/><path id="path80" d="m 1160.7,121.641 -15.04,15.039 15.04,-52.6214 15.04,52.6214 z" style="fill:none;stroke:#000;stroke-width:4.00629997;stroke-linecap:butt;stroke-linejoin:miter;stroke-miterlimit:4;stroke-dasharray:none;stroke-opacity:1"/><path id="path82" d="m 1981.91,1010.04 h 875.04" style="fill:none;stroke:#000;stroke-width:7.51180983;stroke-linecap:butt;stroke-linejoin:miter;stroke-miterlimit:4;stroke-dasharray:none;stroke-opacity:1"/><path id="path84" d="m 2011.95,1010.04 15,15 -52.57,-15 52.57,-15.04 z" style="fill:#000;fill-opacity:1;fill-rule:evenodd;stroke:none"/><path id="path86" d="m 2011.95,1010.04 15,15 -52.57,-15 52.57,-15.04 z" style="fill:none;stroke:#000;stroke-width:4.00629997;stroke-linecap:butt;stroke-linejoin:miter;stroke-miterlimit:4;stroke-dasharray:none;stroke-opacity:1"/><path id="path88" d="m 2826.91,1010.04 -15,-15.04 52.58,15.04 -52.58,15 z" style="fill:#000;fill-opacity:1;fill-rule:evenodd;stroke:none"/><path id="path90" d="m 2826.91,1010.04 -15,-15.04 52.58,15.04 -52.58,15 z" style="fill:none;stroke:#000;stroke-width:4.00629997;stroke-linecap:butt;stroke-linejoin:miter;stroke-miterlimit:4;stroke-dasharray:none;stroke-opacity:1"/></g></g></svg>