<svg xmlns="http://www.w3.org/2000/svg" xmlns:svg="http://www.w3.org/2000/svg" id="svg2" width="1013.333" height="908" version="1.1" viewBox="0 0 1013.333 908" xml:space="preserve"><metadata id="metadata8"/><g id="g10" transform="matrix(1.3333333,0,0,-1.3333333,0,908)"><g id="g12" transform="scale(0.1)"><path id="path14" d="M 697.77,5265.27 H 2876.4 v 210.781 H 697.77 Z" style="fill:#c3c3c3;fill-opacity:1;fill-rule:nonzero;stroke:none"/><path id="path16" d="M 697.77,5265.27 H 2876.4 v 210.781 H 697.77 Z" style="fill:none;stroke:#000;stroke-width:30;stroke-linecap:butt;stroke-linejoin:miter;stroke-miterlimit:4;stroke-dasharray:none;stroke-opacity:1"/><g id="g18" transform="scale(10)"><text id="text22" transform="matrix(1,0,0,-1,137.948,533.131)" style="font-variant:normal;font-size:10px;font-family:Helvetica;-inkscape-font-specification:f-0-0;writing-mode:lr-tb;fill:#000;fill-opacity:1;fill-rule:nonzero;stroke:none"><tspan id="tspan20" x="0 7.22 12.22 17.78 23.34 31.7 33.92 38.92 41.7 48.37 50.59 52.81 58.4 63.4 68.96 71.74 73.96 79.52" y="0">Dynamic Allocation</tspan></text></g><path id="path24" d="m 699.379,5470.86 h 2175.39 v 651.172 H 699.379 Z" style="fill:#c3c3c3;fill-opacity:1;fill-rule:nonzero;stroke:none"/><path id="path26" d="m 699.379,5470.86 h 2175.39 v 651.172 H 699.379 Z" style="fill:none;stroke:#000;stroke-width:30;stroke-linecap:butt;stroke-linejoin:miter;stroke-miterlimit:4;stroke-dasharray:none;stroke-opacity:1"/><path id="path28" d="m 698.75,4808.32 h 2176.64 v 452.07 H 698.75 Z" style="fill:#c3c3c3;fill-opacity:1;fill-rule:nonzero;stroke:none"/><path id="path30" d="m 698.75,4808.32 h 2176.64 v 452.07 H 698.75 Z" style="fill:none;stroke:#000;stroke-width:30;stroke-linecap:butt;stroke-linejoin:miter;stroke-miterlimit:4;stroke-dasharray:none;stroke-opacity:1"/><path id="path32" d="M 695.82,6644.41 V 6469.1 h 85.039 L 610.781,6255 H 695.82 V 4619.3 h 85.039 L 610.781,4366.8 h 81.449 l 4.02,-95.16" style="fill:none;stroke:#000;stroke-width:30;stroke-linecap:butt;stroke-linejoin:miter;stroke-miterlimit:4;stroke-dasharray:none;stroke-opacity:1"/><path id="path34" d="M 2878.36,6644.41 V 6469.1 h 85.04 L 2793.32,6255 h 85.04 V 4619.3 h 85.04 l -170.08,-252.5 h 85.04 v -95.16" style="fill:none;stroke:#000;stroke-width:30;stroke-linecap:butt;stroke-linejoin:miter;stroke-miterlimit:4;stroke-dasharray:none;stroke-opacity:1"/><path id="path36" d="m 4681.64,5470.86 h 2175.39 v 651.172 H 4681.64 Z" style="fill:none;stroke:#000;stroke-width:30;stroke-linecap:butt;stroke-linejoin:miter;stroke-miterlimit:4;stroke-dasharray:none;stroke-opacity:1"/><path id="path38" d="m 4680.04,5265.27 h 2178.59 v 210.781 H 4680.04 Z" style="fill:none;stroke:#000;stroke-width:30;stroke-linecap:butt;stroke-linejoin:miter;stroke-miterlimit:4;stroke-dasharray:none;stroke-opacity:1"/><path id="path40" d="m 4681.02,4808.32 h 2176.64 v 452.07 H 4681.02 Z" style="fill:#e0e0e0;fill-opacity:1;fill-rule:nonzero;stroke:none"/><path id="path42" d="m 4681.02,4808.32 h 2176.64 v 452.07 H 4681.02 Z" style="fill:none;stroke:#000;stroke-width:30;stroke-linecap:butt;stroke-linejoin:miter;stroke-miterlimit:4;stroke-dasharray:none;stroke-opacity:1"/><path id="path44" d="m 4681.64,4147.03 h 2175.39 v 651.168 H 4681.64 Z" style="fill:#c3c3c3;fill-opacity:1;fill-rule:nonzero;stroke:none"/><path id="path46" d="m 4681.64,4147.03 h 2175.39 v 651.168 H 4681.64 Z" style="fill:none;stroke:#000;stroke-width:30;stroke-linecap:butt;stroke-linejoin:miter;stroke-miterlimit:4;stroke-dasharray:none;stroke-opacity:1"/><path id="path48" d="m 4681.64,3495.82 h 2175.39 v 651.211 H 4681.64 Z" style="fill:#c3c3c3;fill-opacity:1;fill-rule:nonzero;stroke:none"/><path id="path50" d="m 4681.64,3495.82 h 2175.39 v 651.211 H 4681.64 Z" style="fill:none;stroke:#000;stroke-width:30;stroke-linecap:butt;stroke-linejoin:miter;stroke-miterlimit:4;stroke-dasharray:none;stroke-opacity:1"/><path id="path52" d="m 4681.64,2844.65 h 2175.39 v 651.172 H 4681.64 Z" style="fill:#c3c3c3;fill-opacity:1;fill-rule:nonzero;stroke:none"/><path id="path54" d="m 4681.64,2844.65 h 2175.39 v 651.172 H 4681.64 Z" style="fill:none;stroke:#000;stroke-width:30;stroke-linecap:butt;stroke-linejoin:miter;stroke-miterlimit:4;stroke-dasharray:none;stroke-opacity:1"/><path id="path56" d="m 4681.64,2193.44 h 2175.39 v 651.207 H 4681.64 Z" style="fill:#c3c3c3;fill-opacity:1;fill-rule:nonzero;stroke:none"/><path id="path58" d="m 4681.64,2193.44 h 2175.39 v 651.207 H 4681.64 Z" style="fill:none;stroke:#000;stroke-width:30;stroke-linecap:butt;stroke-linejoin:miter;stroke-miterlimit:4;stroke-dasharray:none;stroke-opacity:1"/><path id="path60" d="m 4681.64,5470.86 h 2175.39 v 651.172 H 4681.64 Z" style="fill:none;stroke:#000;stroke-width:30;stroke-linecap:butt;stroke-linejoin:miter;stroke-miterlimit:4;stroke-dasharray:none;stroke-opacity:1"/><path id="path62" d="m 4681.64,1542.27 h 2175.39 v 651.172 H 4681.64 Z" style="fill:none;stroke:#000;stroke-width:30;stroke-linecap:butt;stroke-linejoin:miter;stroke-miterlimit:4;stroke-dasharray:none;stroke-opacity:1"/><path id="path64" d="m 4680.04,1336.72 h 2178.59 v 210.742 H 4680.04 Z" style="fill:#c3c3c3;fill-opacity:1;fill-rule:nonzero;stroke:none"/><path id="path66" d="m 4680.04,1336.72 h 2178.59 v 210.742 H 4680.04 Z" style="fill:none;stroke:#000;stroke-width:30;stroke-linecap:butt;stroke-linejoin:miter;stroke-miterlimit:4;stroke-dasharray:none;stroke-opacity:1"/><path id="path68" d="M 4681.02,879.73 H 6857.66 V 1331.8 H 4681.02 Z" style="fill:#c3c3c3;fill-opacity:1;fill-rule:nonzero;stroke:none"/><path id="path70" d="M 4681.02,879.73 H 6857.66 V 1331.8 H 4681.02 Z" style="fill:none;stroke:#000;stroke-width:30;stroke-linecap:butt;stroke-linejoin:miter;stroke-miterlimit:4;stroke-dasharray:none;stroke-opacity:1"/><path id="path72" d="m 4681.64,1542.27 h 2175.39 v 651.172 H 4681.64 Z" style="fill:#c3c3c3;fill-opacity:1;fill-rule:nonzero;stroke:none"/><path id="path74" d="m 4681.64,1542.27 h 2175.39 v 651.172 H 4681.64 Z" style="fill:none;stroke:#000;stroke-width:30;stroke-linecap:butt;stroke-linejoin:miter;stroke-miterlimit:4;stroke-dasharray:none;stroke-opacity:1"/><path id="path76" d="m 4678.05,6640.86 v -175.35 h 85.04 l -170.08,-214.1 h 85.04 V 665.66 h 85.04 l -170.08,-252.5 h 81.48 l 4.03,-95.109" style="fill:none;stroke:#000;stroke-width:30;stroke-linecap:butt;stroke-linejoin:miter;stroke-miterlimit:4;stroke-dasharray:none;stroke-opacity:1"/><path id="path78" d="M 695.82,6644.41 V 6469.1 h 85.039 L 610.781,6255 H 695.82 V 4619.3 h 85.039 L 610.781,4366.8 h 81.449 l 4.02,-95.16" style="fill:none;stroke:#000;stroke-width:30;stroke-linecap:butt;stroke-linejoin:miter;stroke-miterlimit:4;stroke-dasharray:none;stroke-opacity:1"/><path id="path80" d="m 6860.62,6640.86 -0.03,-175.35 h 85.03 l -170.07,-214.1 h 85.07 V 665.66 h 85 l -170.07,-252.5 h 81.48 l 4.02,-95.109" style="fill:none;stroke:#000;stroke-width:30;stroke-linecap:butt;stroke-linejoin:miter;stroke-miterlimit:4;stroke-dasharray:none;stroke-opacity:1"/><g id="g82" transform="scale(10)"><text id="text118" transform="matrix(1,0,0,-1,-1.61992,538.14)" style="font-variant:normal;font-size:18px;font-family:Helvetica;-inkscape-font-specification:f-0-0;writing-mode:lr-tb;fill:#000;fill-opacity:1;fill-rule:nonzero;stroke:none"><tspan id="tspan84" x="0 10.998 23.004" y="0">FP&apos;</tspan><tspan id="tspan86" x="1.789 13.795 25.801" y="64.403">SP&apos;</tspan><tspan id="tspan88" x="128.423 140.429 145.433 155.441 164.441 173.441 178.445 188.453 194.447 204.509 217.505" y="84.797">Stack grows</tspan><tspan id="tspan90" x="155.933 165.941 175.949 188.945" y="102.797">down</tspan><tspan id="tspan92" x="124.407 136.413 141.417 151.425 160.425 169.425 174.429 184.437 194.445 199.449 209.457 215.505" y="-129.522">Stack before</tspan><tspan id="tspan94" x="107.883 116.883 126.891 130.887 134.883 138.933 148.941 158.949 163.953 173.961 178.965 183.969 193.977 203.985 212.985 217.989 221.985 231.993" y="-112.272">calling a function</tspan><tspan id="tspan96" x="159.645 169.653 182.649 186.087" y="-49.018">LR&apos;&apos;</tspan><tspan id="tspan98" x="157.856 168.854 180.86 184.298" y="-18.248">FP&apos;&apos;</tspan><tspan id="tspan100" x="115.818 127.824 132.828 142.836 151.836 160.836 165.84 177.846 183.84 193.902 198.906 210.912 216.906 226.914" y="33.633">Stack Arg Area</tspan><tspan id="tspan102" x="533.375 545.381 550.385 560.393 569.393 578.393 583.397 593.405 598.409 603.413 613.421" y="-129.522">Stack after</tspan><tspan id="tspan104" x="509.328 518.328 528.336 532.333 536.328 540.378 550.386 560.394 565.399 575.406 580.41 585.414 595.422 605.43 614.43 619.435 623.43 633.438" y="-112.272">calling a function</tspan><tspan id="tspan106" x="502.896 516.9 529.896 534.9 546.906 552.9 562.908 567.912 579.918 589.98 598.98 608.988 613.992 625.998 631.992 642" y="96.963">GR Arg Save Area</tspan><tspan id="tspan108" x="503.88 515.886 528.882 533.886 545.892 551.941 561.949 566.953 578.959 588.967 597.967 607.975 612.979 624.985 631.033 641.041" y="163.87">VR Arg Save Area</tspan><tspan id="tspan110" x="397.867 408.865 420.871" y="-1.073">FP&apos;</tspan><tspan id="tspan112" x="398.941 410.947 422.953" y="64.404">SP&apos;</tspan><tspan id="tspan114" x="482.857 495.853 505.861 509.857 513.907 523.915 533.923 539.917 551.977 561.985 570.985 580.993 591.001 596.005 609.001 619.009 629.071 633.067 642.067 647.071 657.079 663.073" y="227.558">Callee-Saved Registers</tspan><tspan id="tspan116" x="513.382 523.39 533.398 542.398 552.406 556.456 561.46 573.466 583.474 589.468 593.464 603.526 613.534 617.53 627.538" y="293.034">Local Variables</tspan></text><text id="text122" transform="matrix(0,1,1,0,360.447,524.686)" style="font-variant:normal;font-size:18px;font-family:Helvetica;-inkscape-font-specification:f-0-0;writing-mode:lr-tb;fill:#000;fill-opacity:1;fill-rule:nonzero;stroke:none"><tspan id="tspan120" x="0 12.996 23.004 27 31.05 41.058" y="0">Caller</tspan></text><text id="text128" transform="matrix(1,0,0,-1,527.112,58.0137)" style="font-variant:normal;font-size:18px;font-family:Helvetica;-inkscape-font-specification:f-0-0;writing-mode:lr-tb;fill:#000;fill-opacity:1;fill-rule:nonzero;stroke:none"><tspan id="tspan124" x="0 12.006 17.01 27.018 36.018 45.018 50.022 60.03 66.024 76.086 89.082" y="0">Stack grows</tspan><tspan id="tspan126" x="27.51 37.518 47.526 60.522" y="18">down</tspan></text><text id="text132" transform="matrix(0,1,1,0,758.673,524.686)" style="font-variant:normal;font-size:18px;font-family:Helvetica;-inkscape-font-specification:f-0-0;writing-mode:lr-tb;fill:#000;fill-opacity:1;fill-rule:nonzero;stroke:none"><tspan id="tspan130" x="0 12.996 23.004 27 31.05 41.058 -276.432 -263.436 -253.428 -249.432 -245.382 -235.374" y="0">CallerCallee</tspan></text><text id="text138" transform="matrix(1,0,0,-1,154.023,490.196)" style="font-variant:normal;font-size:10px;font-family:Helvetica;-inkscape-font-specification:f-0-0;writing-mode:lr-tb;fill:#000;fill-opacity:1;fill-rule:nonzero;stroke:none"><tspan id="tspan134" x="0 3.33 8.89 14.45 17.23 22.79 28.38 30.6 36.16 41.72" y="0">(outgoing)</tspan><tspan id="tspan136" x="388.95 396.17 401.17 406.73 412.29 420.65 422.87 427.87 430.65 437.32 439.54 441.76 447.35 452.35 457.91 460.69 462.91 468.47" y="-42.935">Dynamic Allocation</tspan></text><text id="text146" transform="matrix(1,0,0,-1,562.6894,586.8003)" style="font-variant:normal;font-size:18px;font-family:Helvetica;-inkscape-font-specification:f-0-0;writing-mode:lr-tb;fill:#000;fill-opacity:1;fill-rule:nonzero;stroke:none"><tspan id="tspan140" x="0 10.008 23.004 26.442" y="0">LR&apos;&apos;</tspan><tspan id="tspan142" x="-1.429 9.569 21.575 25.013" y="30.413">FP&apos;&apos;</tspan><tspan id="tspan144" x="-43.467 -31.461 -26.457 -16.449 -7.449 1.551 6.555 18.561 24.555 34.617 39.621 51.627 57.621 67.629" y="82.293">Stack Arg Area</tspan></text><text id="text152" transform="matrix(1,0,0,-1,558.2167,490.196)" style="font-variant:normal;font-size:10px;font-family:Helvetica;-inkscape-font-specification:f-0-0;writing-mode:lr-tb;fill:#000;fill-opacity:1;fill-rule:nonzero;stroke:none"><tspan id="tspan148" x="0 3.33 5.55 11.11 16.11 21.7 30.03 32.25 37.81 43.4" y="0">(incoming)</tspan><tspan id="tspan150" x="-15.244 -8.024 -3.024 2.536 8.096 16.456 18.676 23.676 26.456 33.126 35.346 37.566 43.156 48.156 53.716 56.496 58.716 64.276" y="350.639">Dynamic Allocation</tspan></text><text id="text160" transform="matrix(1,0,0,-1,564.7718,193.584)" style="font-variant:normal;font-size:18px;font-family:Helvetica;-inkscape-font-specification:f-0-0;writing-mode:lr-tb;fill:#000;fill-opacity:1;fill-rule:nonzero;stroke:none"><tspan id="tspan154" x="0 10.008 23.004" y="0">LR&apos;</tspan><tspan id="tspan156" x="-1.789 9.209 21.215" y="30.77">FP&apos;</tspan><tspan id="tspan158" x="-45.549 -33.543 -28.539 -18.531 -9.531 -.531 4.473 16.479 22.473 32.535 37.539 49.545 55.539 65.547" y="82.651">Stack Arg Area</tspan></text><text id="text172" transform="matrix(1,0,0,-1,559.04674,96.6215)" style="font-variant:normal;font-size:10px;font-family:Helvetica;-inkscape-font-specification:f-0-0;writing-mode:lr-tb;fill:#000;fill-opacity:1;fill-rule:nonzero;stroke:none"><tspan id="tspan162" x="0 3.33 8.89 14.45 17.23 22.79 28.38 30.6 36.16 41.72" y="0">(outgoing)</tspan><tspan id="tspan164" x="-162.441 -156.881 -151.321 -148.541 -142.981 -137.421 -134.641 -131.311" y="-427.564">on entry</tspan><tspan id="tspan166" x="-162.083 -154.863 -149.303 -147.083 -144.833 -139.273 -136.493 -133.163 -127.603 -122.043 -116.453 -114.233 -108.673" y="-38.641">while running</tspan><tspan id="tspan168" x="-162.441 -156.881 -151.321 -148.541 -142.981 -137.421 -134.641 -131.311" y="-364.234">on entry</tspan><tspan id="tspan170" x="-162.083 -154.863 -149.303 -147.083 -144.833 -139.273 -136.493 -133.163 -127.603 -122.043 -116.453 -114.233 -108.673" y="24.689">while running</tspan></text><text id="text178" transform="matrix(1,0,0,-1,396.24793,150.2895)" style="font-variant:normal;font-size:18px;font-family:Helvetica;-inkscape-font-specification:f-0-0;writing-mode:lr-tb;fill:#000;fill-opacity:1;fill-rule:nonzero;stroke:none"><tspan id="tspan174" x="0 10.998" y="0">FP</tspan><tspan id="tspan176" x="1.073 13.079" y="65.476">SP</tspan></text></g><path id="path180" d="M 702.969,5785.7 H 2867.62" style="fill:none;stroke:#000;stroke-width:7.5;stroke-linecap:butt;stroke-linejoin:miter;stroke-miterlimit:4;stroke-dasharray:22.5,22.5;stroke-dashoffset:0;stroke-opacity:1"/><path id="path182" d="M 4685.23,5785.7 H 6849.88" style="fill:none;stroke:#000;stroke-width:7.5;stroke-linecap:butt;stroke-linejoin:miter;stroke-miterlimit:4;stroke-dasharray:22.5,22.5;stroke-dashoffset:0;stroke-opacity:1"/><path id="path184" d="M 4685.23,1860.7 H 6849.88" style="fill:none;stroke:#000;stroke-width:7.5;stroke-linecap:butt;stroke-linejoin:miter;stroke-miterlimit:4;stroke-dasharray:22.5,22.5;stroke-dashoffset:0;stroke-opacity:1"/><path id="path186" d="M 3232.58,4830.39 H 3390 v 1273.75" style="fill:none;stroke:#000;stroke-width:30;stroke-linecap:butt;stroke-linejoin:miter;stroke-miterlimit:4;stroke-dasharray:none;stroke-opacity:1"/><path id="path188" d="m 3390,6104.14 v 565.31" style="fill:none;stroke:#000;stroke-width:30;stroke-linecap:butt;stroke-linejoin:miter;stroke-miterlimit:4;stroke-dasharray:60,60;stroke-dashoffset:0;stroke-opacity:1"/><path id="path190" d="m 7225.55,4830.39 h 157.46 v 1273.75" style="fill:none;stroke:#000;stroke-width:30;stroke-linecap:butt;stroke-linejoin:miter;stroke-miterlimit:4;stroke-dasharray:none;stroke-opacity:1"/><path id="path192" d="m 7383.01,6104.14 v 565.31" style="fill:none;stroke:#000;stroke-width:30;stroke-linecap:butt;stroke-linejoin:miter;stroke-miterlimit:4;stroke-dasharray:60,60;stroke-dashoffset:0;stroke-opacity:1"/><path id="path194" d="m 7225.55,805.199 h 157.46 V 4766.02 h -157.46" style="fill:none;stroke:#000;stroke-width:30;stroke-linecap:butt;stroke-linejoin:miter;stroke-miterlimit:4;stroke-dasharray:none;stroke-opacity:1"/><path id="path196" d="m 280.781,5460.12 h 357.77" style="fill:none;stroke:#000;stroke-width:30;stroke-linecap:butt;stroke-linejoin:miter;stroke-miterlimit:4;stroke-dasharray:none;stroke-opacity:1"/><path id="path198" d="m 481.641,5532.73 196.64,-72.34 -196.64,-72.3 c 31.41,42.69 31.211,101.13 0,144.64 z" style="fill:#000;fill-opacity:1;fill-rule:evenodd;stroke:none"/><path id="path200" d="m 481.641,5532.73 196.64,-72.34 -196.64,-72.3 c 31.41,42.69 31.211,101.13 0,144.64 z" style="fill:none;stroke:#000;stroke-width:11.25;stroke-linecap:butt;stroke-linejoin:round;stroke-miterlimit:4;stroke-dasharray:none;stroke-opacity:1"/><path id="path202" d="m 280.781,4783.87 h 357.77" style="fill:none;stroke:#000;stroke-width:30;stroke-linecap:butt;stroke-linejoin:miter;stroke-miterlimit:4;stroke-dasharray:none;stroke-opacity:1"/><path id="path204" d="m 481.641,4856.48 196.64,-72.3 -196.64,-72.3 c 31.41,42.69 31.211,101.09 0,144.6 z" style="fill:#000;fill-opacity:1;fill-rule:evenodd;stroke:none"/><path id="path206" d="m 481.641,4856.48 196.64,-72.3 -196.64,-72.31 c 31.41,42.7 31.211,101.1 0,144.61 z" style="fill:none;stroke:#000;stroke-width:11.25;stroke-linecap:butt;stroke-linejoin:round;stroke-miterlimit:4;stroke-dasharray:none;stroke-opacity:1"/><path id="path208" d="m 4259.45,5460.12 h 357.78" style="fill:none;stroke:#000;stroke-width:30;stroke-linecap:butt;stroke-linejoin:miter;stroke-miterlimit:4;stroke-dasharray:none;stroke-opacity:1"/><path id="path210" d="m 4460.31,5532.73 196.64,-72.34 -196.64,-72.3 c 31.41,42.69 31.25,101.13 0,144.64 z" style="fill:#000;fill-opacity:1;fill-rule:evenodd;stroke:none"/><path id="path212" d="m 4460.31,5532.73 196.64,-72.34 -196.64,-72.3 c 31.41,42.69 31.25,101.13 0,144.64 z" style="fill:none;stroke:#000;stroke-width:11.25;stroke-linecap:butt;stroke-linejoin:round;stroke-miterlimit:4;stroke-dasharray:none;stroke-opacity:1"/><path id="path214" d="m 4259.45,4783.91 h 357.78" style="fill:none;stroke:#000;stroke-width:30;stroke-linecap:butt;stroke-linejoin:miter;stroke-miterlimit:4;stroke-dasharray:none;stroke-opacity:1"/><path id="path216" d="m 4460.31,4856.48 196.64,-72.3 -196.64,-72.3 c 31.41,42.69 31.25,101.09 0,144.6 z" style="fill:#000;fill-opacity:1;fill-rule:evenodd;stroke:none"/><path id="path218" d="m 4460.31,4856.48 196.64,-72.3 -196.64,-72.31 c 31.41,42.7 31.25,101.1 0,144.61 z" style="fill:none;stroke:#000;stroke-width:11.25;stroke-linecap:butt;stroke-linejoin:round;stroke-miterlimit:4;stroke-dasharray:none;stroke-opacity:1"/><path id="path220" d="m 4259.45,1556.56 h 357.78" style="fill:none;stroke:#000;stroke-width:30;stroke-linecap:butt;stroke-linejoin:miter;stroke-miterlimit:4;stroke-dasharray:none;stroke-opacity:1"/><path id="path222" d="m 4460.31,1629.18 196.64,-72.3 -196.64,-72.35 c 31.41,42.7 31.25,101.13 0,144.65 z" style="fill:#000;fill-opacity:1;fill-rule:evenodd;stroke:none"/><path id="path224" d="m 4460.31,1629.18 196.64,-72.31 -196.64,-72.34 c 31.41,42.7 31.25,101.13 0,144.65 z" style="fill:none;stroke:#000;stroke-width:11.25;stroke-linecap:butt;stroke-linejoin:round;stroke-miterlimit:4;stroke-dasharray:none;stroke-opacity:1"/><path id="path226" d="m 4259.45,880.352 h 357.78" style="fill:none;stroke:#000;stroke-width:30;stroke-linecap:butt;stroke-linejoin:miter;stroke-miterlimit:4;stroke-dasharray:none;stroke-opacity:1"/><path id="path228" d="m 4460.31,952.969 196.64,-72.348 -196.64,-72.301 c 31.41,42.7 31.25,101.09 0,144.649 z" style="fill:#000;fill-opacity:1;fill-rule:evenodd;stroke:none"/><path id="path230" d="m 4460.31,952.969 196.64,-72.348 -196.64,-72.301 c 31.41,42.7 31.25,101.09 0,144.649 z" style="fill:none;stroke:#000;stroke-width:11.25;stroke-linecap:butt;stroke-linejoin:round;stroke-miterlimit:4;stroke-dasharray:none;stroke-opacity:1"/><path id="path232" d="M 1758.48,4311.6 V 3968.12" style="fill:none;stroke:#000;stroke-width:15;stroke-linecap:butt;stroke-linejoin:miter;stroke-miterlimit:4;stroke-dasharray:none;stroke-opacity:1"/><path id="path234" d="m 1758.48,4028.12 -30,30 30,-105 30,105 z" style="fill:#000;fill-opacity:1;fill-rule:evenodd;stroke:none"/><path id="path236" d="m 1758.48,4028.12 -30,30 30,-105 30,105 z" style="fill:none;stroke:#000;stroke-width:8;stroke-linecap:butt;stroke-linejoin:miter;stroke-miterlimit:4;stroke-dasharray:none;stroke-opacity:1"/><path id="path238" d="M 5747.85,379.449 V 35.9414" style="fill:none;stroke:#000;stroke-width:15;stroke-linecap:butt;stroke-linejoin:miter;stroke-miterlimit:4;stroke-dasharray:none;stroke-opacity:1"/><path id="path240" d="m 5747.85,95.9414 -30,29.9996 30,-104.9996 30,104.9996 z" style="fill:#000;fill-opacity:1;fill-rule:evenodd;stroke:none"/><path id="path242" d="m 5747.85,95.9414 -30,29.9996 30,-104.9996 30,104.9996 z" style="fill:none;stroke:#000;stroke-width:8;stroke-linecap:butt;stroke-linejoin:miter;stroke-miterlimit:4;stroke-dasharray:none;stroke-opacity:1"/></g></g></svg>