<svg xmlns="http://www.w3.org/2000/svg" xmlns:svg="http://www.w3.org/2000/svg" id="svg2" width="1034.667" height="328" version="1.1" viewBox="0 0 1034.667 328" xml:space="preserve"><metadata id="metadata8"/><g id="g10" transform="matrix(1.3333333,0,0,-1.3333333,0,328)"><g id="g12" transform="scale(0.1)"><path id="path14" d="m 976.25,1802.42 h 3011.29 v 629.223 H 976.25 Z" style="fill:#e3e3e3;fill-opacity:1;fill-rule:nonzero;stroke:none"/><path id="path16" d="m 976.25,1802.42 h 3011.29 v 629.223 H 976.25 Z" style="fill:none;stroke:#000;stroke-width:56.69290161;stroke-linecap:butt;stroke-linejoin:miter;stroke-miterlimit:4;stroke-dasharray:none;stroke-opacity:1"/><path id="path18" d="m 981.371,918.629 h 3001.09 V 1797.34 H 981.371 Z" style="fill:silver;fill-opacity:1;fill-rule:nonzero;stroke:none"/><path id="path20" d="m 981.371,918.629 h 3001.09 V 1797.34 H 981.371 Z" style="fill:none;stroke:#000;stroke-width:66.88269806;stroke-linecap:butt;stroke-linejoin:miter;stroke-miterlimit:4;stroke-dasharray:none;stroke-opacity:1"/><path id="path22" d="m 981.371,39.8789 h 3001.09 v 878.75 H 981.371 Z" style="fill:silver;fill-opacity:1;fill-rule:nonzero;stroke:none"/><path id="path24" d="m 981.371,39.8789 h 3001.09 v 878.75 H 981.371 Z" style="fill:none;stroke:#000;stroke-width:66.88269806;stroke-linecap:butt;stroke-linejoin:miter;stroke-miterlimit:4;stroke-dasharray:none;stroke-opacity:1"/><path id="path26" d="m 384.488,1809.92 499.383,-7.5" style="fill:none;stroke:#000;stroke-width:28.3465004;stroke-linecap:butt;stroke-linejoin:miter;stroke-miterlimit:4;stroke-dasharray:none;stroke-opacity:1"/><path id="path28" d="m 770.512,1804.14 -57.543,-55.86 199.261,53.71 -197.582,59.69 z" style="fill:#000;fill-opacity:1;fill-rule:evenodd;stroke:none"/><path id="path30" d="m 770.508,1804.14 -57.539,-55.86 199.258,53.71 -197.579,59.69 z" style="fill:none;stroke:#000;stroke-width:15.11810017;stroke-linecap:butt;stroke-linejoin:miter;stroke-miterlimit:4;stroke-dasharray:none;stroke-opacity:1"/><path id="path32" d="M 5265.98,2112.03 H 4082.42" style="fill:none;stroke:#000;stroke-width:28.3465004;stroke-linecap:butt;stroke-linejoin:miter;stroke-miterlimit:4;stroke-dasharray:none;stroke-opacity:1"/><path id="path34" d="m 4195.82,2112.03 56.68,56.72 -198.4,-56.72 198.4,-56.68 z" style="fill:#000;fill-opacity:1;fill-rule:evenodd;stroke:none"/><path id="path36" d="m 4195.82,2112.03 56.68,56.72 -198.4,-56.72 198.4,-56.68 z" style="fill:none;stroke:#000;stroke-width:15.11810017;stroke-linecap:butt;stroke-linejoin:miter;stroke-miterlimit:4;stroke-dasharray:none;stroke-opacity:1"/><path id="path38" d="M 5265.98,1794.92 H 4082.42" style="fill:none;stroke:#000;stroke-width:28.3465004;stroke-linecap:butt;stroke-linejoin:miter;stroke-miterlimit:4;stroke-dasharray:none;stroke-opacity:1"/><path id="path40" d="m 4195.82,1794.92 56.68,56.72 -198.4,-56.72 198.4,-56.68 z" style="fill:#000;fill-opacity:1;fill-rule:evenodd;stroke:none"/><path id="path42" d="m 4195.82,1794.92 56.68,56.72 -198.4,-56.72 198.4,-56.68 z" style="fill:none;stroke:#000;stroke-width:15.11810017;stroke-linecap:butt;stroke-linejoin:miter;stroke-miterlimit:4;stroke-dasharray:none;stroke-opacity:1"/><path id="path44" d="M 5265.98,916.02 H 4082.42" style="fill:none;stroke:#000;stroke-width:28.3465004;stroke-linecap:butt;stroke-linejoin:miter;stroke-miterlimit:4;stroke-dasharray:none;stroke-opacity:1"/><path id="path46" d="m 4195.82,916.02 56.68,56.679 -198.4,-56.679 198.4,-56.68 z" style="fill:#000;fill-opacity:1;fill-rule:evenodd;stroke:none"/><path id="path48" d="m 4195.82,916.02 56.68,56.679 -198.4,-56.679 198.4,-56.68 z" style="fill:none;stroke:#000;stroke-width:15.11810017;stroke-linecap:butt;stroke-linejoin:miter;stroke-miterlimit:4;stroke-dasharray:none;stroke-opacity:1"/><path id="path50" d="M 4791.56,1759.96 V 1073.32" style="fill:none;stroke:#000;stroke-width:14.17319965;stroke-linecap:butt;stroke-linejoin:miter;stroke-miterlimit:4;stroke-dasharray:none;stroke-opacity:1"/><path id="path52" d="m 4791.56,1130 -28.36,28.36 28.36,-99.22 28.36,99.22 z" style="fill:#000;fill-opacity:1;fill-rule:evenodd;stroke:none"/><path id="path54" d="m 4791.56,1130 -28.36,28.36 28.36,-99.22 28.36,99.22 z" style="fill:none;stroke:#000;stroke-width:7.5590601;stroke-linecap:butt;stroke-linejoin:miter;stroke-miterlimit:4;stroke-dasharray:none;stroke-opacity:1"/><path id="path56" d="M 4791.56,883.551 V 124.488" style="fill:none;stroke:#000;stroke-width:14.17319965;stroke-linecap:butt;stroke-linejoin:miter;stroke-miterlimit:4;stroke-dasharray:none;stroke-opacity:1"/><path id="path58" d="m 4791.56,181.172 -28.36,28.359 28.36,-99.222 28.36,99.222 z" style="fill:#000;fill-opacity:1;fill-rule:evenodd;stroke:none"/><path id="path60" d="m 4791.56,181.172 -28.36,28.359 28.36,-99.222 28.36,99.222 z" style="fill:none;stroke:#000;stroke-width:7.5590601;stroke-linecap:butt;stroke-linejoin:miter;stroke-miterlimit:4;stroke-dasharray:none;stroke-opacity:1"/><path id="path62" d="m 1023.67,2139.5 h 2913.95 v 192.301 H 1023.67 Z" style="fill:#a7a7a7;fill-opacity:1;fill-rule:nonzero;stroke:none"/><path id="path64" d="m 1023.67,2139.5 h 2913.95 v 192.301 H 1023.67 Z" style="fill:none;stroke:#000;stroke-width:14.16160011;stroke-linecap:butt;stroke-linejoin:miter;stroke-miterlimit:4;stroke-dasharray:42.4847,14.1616;stroke-dashoffset:0;stroke-opacity:1"/><g id="g66" transform="scale(10)"><text id="text70" transform="matrix(1,0,0,-1,197.151,218.695)" style="font-variant:normal;font-size:16px;font-family:Helvetica;-inkscape-font-specification:f-0-0;writing-mode:lr-tb;fill:#000;fill-opacity:1;fill-rule:nonzero;stroke:none"><tspan id="tspan68" x="0 8.896 17.792 25.792 30.24 34.688 42.688 47.136 56.032 64.032 72.032 76.48 85.376 90.704" y="0">next stack arg</tspan></text><text id="text74" transform="matrix(1,0,0,-1,-0.504,152.2766)" style="font-variant:normal;font-size:14px;font-family:Helvetica;-inkscape-font-specification:f-0-0;writing-mode:lr-tb;fill:#000;fill-opacity:1;fill-rule:nonzero;stroke:none"><tspan id="tspan72" x="0 7.784 15.568 19.46 27.244 35.028 38.92 43.582" y="0">on entry</tspan></text><text id="text78" transform="matrix(0,1,1,0,500.123,20.0145)" style="font-variant:normal;font-size:12px;font-family:Helvetica;-inkscape-font-specification:f-0-0;writing-mode:lr-tb;fill:#000;fill-opacity:1;fill-rule:nonzero;stroke:none"><tspan id="tspan76" x="0 7.008 10.344 17.016 23.688 29.688 33.684 40.356 47.064 50.4 53.736 91.884 98.892 102.228 108.9 115.572 122.244 126.24 132.948 139.62 142.956 146.292" y="0">+ __vr_offs+ __gr_offs</tspan></text><text id="text82" transform="matrix(1,0,0,-1,163.208,188.982)" style="font-variant:normal;font-size:24px;font-family:Helvetica;-inkscape-font-specification:f-0-0;writing-mode:lr-tb;fill:#000;fill-opacity:1;fill-rule:nonzero;stroke:none"><tspan id="tspan80" x="0 16.008 22.68 36.024 48.024 60.024 66.696 82.704 90.696 104.112 110.784 126.792 134.784 148.128" y="0">Stack Arg Area</tspan></text></g><path id="path84" d="m 1023.67,1045.85 h 2913.95 v 192.27 H 1023.67 Z" style="fill:#a7a7a7;fill-opacity:1;fill-rule:nonzero;stroke:none"/><path id="path86" d="m 1023.67,1045.85 h 2913.95 v 192.27 H 1023.67 Z" style="fill:none;stroke:#000;stroke-width:14.16160011;stroke-linecap:butt;stroke-linejoin:miter;stroke-miterlimit:4;stroke-dasharray:42.4847,14.1616;stroke-dashoffset:0;stroke-opacity:1"/><g id="g88" transform="scale(10)"><text id="text92" transform="matrix(1,0,0,-1,188.666,109.33)" style="font-variant:normal;font-size:16px;font-family:Helvetica;-inkscape-font-specification:f-0-0;writing-mode:lr-tb;fill:#000;fill-opacity:1;fill-rule:nonzero;stroke:none"><tspan id="tspan90" x="0 8.896 17.792 25.792 30.24 34.688 43.584 52.48 61.376 65.824 71.152 80.096 88.992 93.44 102.336 107.664" y="0">next gen.reg arg</tspan></text></g><path id="path94" d="M 1023.67,109.488 H 3937.62 V 301.761 H 1023.67 Z" style="fill:#9f9f9f;fill-opacity:1;fill-rule:nonzero;stroke:none"/><path id="path96" d="M 1023.67,109.488 H 3937.62 V 301.761 H 1023.67 Z" style="fill:none;stroke:#000;stroke-width:14.16160011;stroke-linecap:butt;stroke-linejoin:miter;stroke-miterlimit:4;stroke-dasharray:42.4847,14.1616;stroke-dashoffset:0;stroke-opacity:1"/><g id="g98" transform="scale(10)"><text id="text102" transform="matrix(1,0,0,-1,176.229,15.6949)" style="font-variant:normal;font-size:16px;font-family:Helvetica;-inkscape-font-specification:f-0-0;writing-mode:lr-tb;fill:#000;fill-opacity:1;fill-rule:nonzero;stroke:none"><tspan id="tspan100" x="0 8.896 17.792 25.792 30.24 34.688 39.136 48.032 52.48 60.48 64.032 77.36 86.256 90.704 96.032 104.976 113.872 118.32 127.216 132.544" y="0">next fp/simd reg arg</tspan></text><text id="text114" transform="matrix(1,0,0,-1,144.5286,145.5349)" style="font-variant:normal;font-size:24px;font-family:Helvetica;-inkscape-font-specification:f-0-0;writing-mode:lr-tb;fill:#000;fill-opacity:1;fill-rule:nonzero;stroke:none"><tspan id="tspan104" x="0 18.672 36 42.672 58.68 66.672 80.016 86.688 102.696 116.112 128.112 141.456 148.128 164.136 172.128 185.472" y="0">GR Arg Save Area</tspan><tspan id="tspan106" x="1.313 17.32 34.648 41.32 57.328 65.393 78.737 85.409 101.417 114.761 126.761 140.105 146.777 162.785 170.848 184.192" y="89.89">VR Arg Save Area</tspan><tspan id="tspan108" x="394.305 407.649 420.992 432.992 439.664 453.009 465.009" y="-62.923">__stack</tspan><tspan id="tspan110" x="394.305 407.649 420.992 434.336 442.401 455.745 462.417 475.761" y="-31.212">__gr_top</tspan><tspan id="tspan112" x="394.305 407.649 420.992 432.992 440.985 454.401 461.073 474.417" y="57.928">__vr_top</tspan></text><text id="text118" transform="matrix(1,0,0,-1,696.3891,114.0741)" style="font-variant:normal;font-size:28px;font-family:Helvetica;-inkscape-font-specification:f-0-0;writing-mode:lr-tb;fill:#000;fill-opacity:1;fill-rule:nonzero;stroke:none"><tspan id="tspan116" x="0 14 29.568 45.136 51.352 57.652 71.652" y="0">va_list</tspan></text></g><path id="path120" d="m 6474.49,2316.8 c 659.18,-337.07 -7.5,-794.03 419.49,-1123.64 C 6466.99,863.59 7133.67,406.641 6474.49,69.5703" style="fill:none;stroke:#000;stroke-width:17.00790024;stroke-linecap:butt;stroke-linejoin:miter;stroke-miterlimit:4;stroke-dasharray:none;stroke-opacity:1"/><g id="g122" transform="scale(10)"><text id="text126" transform="matrix(1,0,0,-1,0.494922,172.502)" style="font-variant:normal;font-size:24px;font-family:Helvetica;-inkscape-font-specification:f-0-0;writing-mode:lr-tb;fill:#000;fill-opacity:1;fill-rule:nonzero;stroke:none"><tspan id="tspan124" x="0 16.008 32.016" y="0">SP&apos;</tspan></text></g><path id="path128" d="m 4027.5,1045.86 h 754.06" style="fill:none;stroke:#000;stroke-width:6.71173;stroke-linecap:butt;stroke-linejoin:miter;stroke-miterlimit:4;stroke-dasharray:20.1352,20.1352;stroke-dashoffset:0;stroke-opacity:1"/><path id="path130" d="m 4027.5,104.488 h 754.06" style="fill:none;stroke:#000;stroke-width:6.71173;stroke-linecap:butt;stroke-linejoin:miter;stroke-miterlimit:4;stroke-dasharray:20.1352,20.1352;stroke-dashoffset:0;stroke-opacity:1"/></g></g></svg>