<svg xmlns="http://www.w3.org/2000/svg" xmlns:svg="http://www.w3.org/2000/svg" id="svg2" width="442.667" height="177.333" version="1.1" viewBox="0 0 442.667 177.333" xml:space="preserve"><metadata id="metadata8"/><g id="g10" transform="matrix(1.3333333,0,0,-1.3333333,0,177.33333)"><g id="g12" transform="scale(0.1)"><path id="path14" d="m 3.75,1081.52 h 518.48 v 244.73 H 3.75 Z" style="fill:none;stroke:#000;stroke-width:7.51180983;stroke-linecap:butt;stroke-linejoin:miter;stroke-miterlimit:4;stroke-dasharray:none;stroke-opacity:1"/><path id="path16" d="m 3.75,1081.52 h 518.48 v 244.73 H 3.75 Z" style="fill:#fff;fill-opacity:1;fill-rule:nonzero;stroke:none"/><path id="path18" d="m 3.75,1081.52 h 518.48 v 244.73 H 3.75 Z" style="fill:none;stroke:#000;stroke-width:7.51180983;stroke-linecap:butt;stroke-linejoin:miter;stroke-miterlimit:4;stroke-dasharray:none;stroke-opacity:1"/><path id="path20" d="M 270.512,1058.32 V 921.449" style="fill:none;stroke:#000;stroke-width:7.5;stroke-linecap:butt;stroke-linejoin:miter;stroke-miterlimit:4;stroke-dasharray:none;stroke-opacity:1"/><path id="path22" d="M 270.512,770.66 269.801,494.609 H 741.879" style="fill:none;stroke:#000;stroke-width:7.5;stroke-linecap:butt;stroke-linejoin:miter;stroke-miterlimit:4;stroke-dasharray:none;stroke-opacity:1"/><path id="path24" d="m 702.66,512.77 49.141,-18.079 -49.141,-18.089 c 7.852,10.699 7.809,25.277 0,36.168 z" style="fill:#000;fill-opacity:1;fill-rule:evenodd;stroke:none"/><path id="path26" d="m 702.66,512.77 49.141,-18.079 -49.141,-18.089 c 7.852,10.699 7.809,25.269 0,36.168 z" style="fill:none;stroke:#000;stroke-width:2.8125;stroke-linecap:butt;stroke-linejoin:round;stroke-miterlimit:4;stroke-dasharray:none;stroke-opacity:1"/><g id="g28" transform="scale(10)"><text id="text34" transform="matrix(1,0,0,-1,24.3027,122.07)" style="font-variant:normal;font-size:6px;font-family:Helvetica;-inkscape-font-specification:f-0-0;writing-mode:lr-tb;fill:#000;fill-opacity:1;fill-rule:nonzero;stroke:none"><tspan id="tspan30" x="0" y="0">X</tspan><tspan id="tspan32" x="-10.893 -8.895 -2.805 1.215 5.217 9.549 12.885" y="6">(@VER1)</tspan></text></g><path id="path36" d="m 761.129,1081.52 h 518.48 v 244.73 h -518.48 z" style="fill:none;stroke:#000;stroke-width:7.51180983;stroke-linecap:butt;stroke-linejoin:miter;stroke-miterlimit:4;stroke-dasharray:none;stroke-opacity:1"/><path id="path38" d="m 761.129,1081.52 h 518.48 v 244.73 h -518.48 z" style="fill:#fff;fill-opacity:1;fill-rule:nonzero;stroke:none"/><path id="path40" d="m 761.129,1081.52 h 518.48 v 244.73 h -518.48 z" style="fill:none;stroke:#000;stroke-width:7.51180983;stroke-linecap:butt;stroke-linejoin:miter;stroke-miterlimit:4;stroke-dasharray:none;stroke-opacity:1"/><path id="path42" d="M 1027.93,1058.32 V 921.449" style="fill:none;stroke:#000;stroke-width:7.5;stroke-linecap:butt;stroke-linejoin:miter;stroke-miterlimit:4;stroke-dasharray:none;stroke-opacity:1"/><path id="path44" d="m 1027.93,770.66 -1.17,-114.801" style="fill:none;stroke:#000;stroke-width:7.5;stroke-linecap:butt;stroke-linejoin:miter;stroke-miterlimit:4;stroke-dasharray:none;stroke-opacity:1"/><path id="path46" d="m 1045.31,694.879 -18.59,-48.981 -17.58,49.372 c 10.59,-7.969 25.2,-8.079 36.17,-0.391 z" style="fill:#000;fill-opacity:1;fill-rule:evenodd;stroke:none"/><path id="path48" d="m 1045.31,694.887 -18.6,-48.989 -17.57,49.375 c 10.58,-7.968 25.19,-8.085 36.17,-0.386 z" style="fill:none;stroke:#000;stroke-width:2.8125;stroke-linecap:butt;stroke-linejoin:round;stroke-miterlimit:4;stroke-dasharray:none;stroke-opacity:1"/><g id="g50" transform="scale(10)"><text id="text56" transform="matrix(1,0,0,-1,100.042,122.07)" style="font-variant:normal;font-size:6px;font-family:Helvetica;-inkscape-font-specification:f-0-0;writing-mode:lr-tb;fill:#000;fill-opacity:1;fill-rule:nonzero;stroke:none"><tspan id="tspan52" x="0" y="0">Y</tspan><tspan id="tspan54" x="-13.94 -11.941 -5.851 .238 4.259 8.261 12.593 15.929" y="6">(@@VER1)</tspan></text></g><path id="path58" d="m 1580,1081.52 h 518.48 v 244.73 H 1580 Z" style="fill:none;stroke:#000;stroke-width:7.51180983;stroke-linecap:butt;stroke-linejoin:miter;stroke-miterlimit:4;stroke-dasharray:none;stroke-opacity:1"/><path id="path60" d="m 1580,1081.52 h 518.48 v 244.73 H 1580 Z" style="fill:#fff;fill-opacity:1;fill-rule:nonzero;stroke:none"/><path id="path62" d="m 1580,1081.52 h 518.48 v 244.73 H 1580 Z" style="fill:none;stroke:#000;stroke-width:7.51180983;stroke-linecap:butt;stroke-linejoin:miter;stroke-miterlimit:4;stroke-dasharray:none;stroke-opacity:1"/><path id="path64" d="M 1846.8,1058.32 V 921.449" style="fill:none;stroke:#000;stroke-width:7.5;stroke-linecap:butt;stroke-linejoin:miter;stroke-miterlimit:4;stroke-dasharray:none;stroke-opacity:1"/><path id="path66" d="m 1846.8,770.66 -1.18,-114.801" style="fill:none;stroke:#000;stroke-width:7.5;stroke-linecap:butt;stroke-linejoin:miter;stroke-miterlimit:4;stroke-dasharray:none;stroke-opacity:1"/><path id="path68" d="m 1864.18,694.879 -18.59,-48.981 -17.58,49.372 c 10.58,-7.969 25.19,-8.079 36.17,-0.391 z" style="fill:#000;fill-opacity:1;fill-rule:evenodd;stroke:none"/><path id="path70" d="M 1864.18,694.887 1845.59,645.898 1828,695.27 c 10.6,-7.965 25.21,-8.082 36.18,-0.383 z" style="fill:none;stroke:#000;stroke-width:2.8125;stroke-linecap:butt;stroke-linejoin:round;stroke-miterlimit:4;stroke-dasharray:none;stroke-opacity:1"/><g id="g72" transform="scale(10)"><text id="text78" transform="matrix(1,0,0,-1,181.928,122.07)" style="font-variant:normal;font-size:6px;font-family:Helvetica;-inkscape-font-specification:f-0-0;writing-mode:lr-tb;fill:#000;fill-opacity:1;fill-rule:nonzero;stroke:none"><tspan id="tspan74" x="0" y="0">X</tspan><tspan id="tspan76" x="-13.94 -11.941 -5.851 .238 4.259 8.261 12.593 15.929" y="6">(@@VER2)</tspan></text></g><path id="path80" d="m 761.129,385.578 h 518.48 v 244.73 h -518.48 z" style="fill:#fff;fill-opacity:1;fill-rule:nonzero;stroke:none"/><path id="path82" d="m 761.129,385.578 h 518.48 v 244.73 h -518.48 z" style="fill:none;stroke:#000;stroke-width:7.51180983;stroke-linecap:butt;stroke-linejoin:miter;stroke-miterlimit:4;stroke-dasharray:none;stroke-opacity:1"/><path id="path84" d="m 1580,385.578 h 518.48 v 244.73 H 1580 Z" style="fill:#fff;fill-opacity:1;fill-rule:nonzero;stroke:none"/><path id="path86" d="m 1580,385.578 h 518.48 v 244.73 H 1580 Z" style="fill:none;stroke:#000;stroke-width:7.51180983;stroke-linecap:butt;stroke-linejoin:miter;stroke-miterlimit:4;stroke-dasharray:none;stroke-opacity:1"/><path id="path88" d="m 760.469,11.4492 h 518.98 v 163.75 h -518.98 z" style="fill:#fff;fill-opacity:1;fill-rule:nonzero;stroke:none"/><path id="path90" d="m 760.469,11.4492 h 518.98 v 163.75 h -518.98 z" style="fill:none;stroke:#000;stroke-width:6.14760017;stroke-linecap:butt;stroke-linejoin:miter;stroke-miterlimit:4;stroke-dasharray:none;stroke-opacity:1"/><path id="path92" d="m 1580.16,11.4492 h 518.98 v 163.75 h -518.98 z" style="fill:#fff;fill-opacity:1;fill-rule:nonzero;stroke:none"/><path id="path94" d="m 1580.16,11.4492 h 518.98 v 163.75 h -518.98 z" style="fill:none;stroke:#000;stroke-width:6.14760017;stroke-linecap:butt;stroke-linejoin:miter;stroke-miterlimit:4;stroke-dasharray:none;stroke-opacity:1"/><path id="path96" d="m 1028.05,379.922 -1.17,-195.121" style="fill:none;stroke:#000;stroke-width:7.51180983;stroke-linecap:butt;stroke-linejoin:miter;stroke-miterlimit:4;stroke-dasharray:none;stroke-opacity:1"/><path id="path98" d="m 1045.27,223.98 -18.39,-49.101 -17.82,49.34 c 10.67,-7.93 25.28,-7.969 36.21,-0.239 z" style="fill:#000;fill-opacity:1;fill-rule:evenodd;stroke:none"/><path id="path100" d="m 1045.27,223.988 -18.4,-49.101 -17.81,49.336 c 10.67,-7.934 25.28,-7.969 36.21,-0.235 z" style="fill:none;stroke:#000;stroke-width:2.81693006;stroke-linecap:butt;stroke-linejoin:round;stroke-miterlimit:4;stroke-dasharray:none;stroke-opacity:1"/><path id="path102" d="m 1846.68,379.922 -1.17,-195.121" style="fill:none;stroke:#000;stroke-width:7.51180983;stroke-linecap:butt;stroke-linejoin:miter;stroke-miterlimit:4;stroke-dasharray:none;stroke-opacity:1"/><path id="path104" d="m 1863.91,223.98 -18.4,-49.101 -17.81,49.34 c 10.66,-7.93 25.27,-7.969 36.21,-0.239 z" style="fill:#000;fill-opacity:1;fill-rule:evenodd;stroke:none"/><path id="path106" d="m 1863.9,223.984 -18.39,-49.105 -17.82,49.34 c 10.67,-7.934 25.27,-7.973 36.21,-0.235 z" style="fill:none;stroke:#000;stroke-width:2.81693006;stroke-linecap:butt;stroke-linejoin:round;stroke-miterlimit:4;stroke-dasharray:none;stroke-opacity:1"/><path id="path108" d="m 1290.51,494.609 h 274.88" style="fill:none;stroke:#000;stroke-width:7.5;stroke-linecap:butt;stroke-linejoin:miter;stroke-miterlimit:4;stroke-dasharray:none;stroke-opacity:1"/><path id="path110" d="m 1526.13,512.77 49.18,-18.079 -49.18,-18.089 c 7.85,10.699 7.82,25.277 0,36.168 z" style="fill:#000;fill-opacity:1;fill-rule:evenodd;stroke:none"/><path id="path112" d="m 1526.13,512.77 49.18,-18.079 -49.18,-18.089 c 7.85,10.699 7.82,25.269 0,36.168 z" style="fill:none;stroke:#000;stroke-width:2.8125;stroke-linecap:butt;stroke-linejoin:round;stroke-miterlimit:4;stroke-dasharray:none;stroke-opacity:1"/><g id="g114" transform="scale(10)"><text id="text120" transform="matrix(1,0,0,-1,16.5469,82.6344)" style="font-variant:normal;font-size:6px;font-family:Helvetica;-inkscape-font-specification:f-0-0;writing-mode:lr-tb;fill:#000;fill-opacity:1;fill-rule:nonzero;stroke:none"><tspan id="tspan116" x="0 3.336 6.336 9.672 13.008 16.362 80.169 83.505 86.505 162.52 165.856 168.856" y="0">0x80020x20x3</tspan><tspan id="tspan118" x="76.306 78.436 82.438 86.44 90.79 94.126 157.381 159.511 163.513 167.515 171.865 175.201" y="74.927">&quot;VER1&quot;&quot;VER2&quot;</tspan></text></g><path id="path122" d="m 2327.11,11.4492 h 518.98 v 163.75 h -518.98 z" style="fill:#b3b3b3;fill-opacity:1;fill-rule:nonzero;stroke:none"/><path id="path124" d="m 2327.11,11.4492 h 518.98 v 163.75 h -518.98 z" style="fill:none;stroke:#000;stroke-width:6.14760017;stroke-linecap:butt;stroke-linejoin:miter;stroke-miterlimit:4;stroke-dasharray:none;stroke-opacity:1"/><g id="g126" transform="scale(10)"><text id="text142" transform="matrix(1,0,0,-1,248.739,7.70703)" style="font-variant:normal;font-size:6px;font-family:Helvetica;-inkscape-font-specification:f-0-0;writing-mode:lr-tb;fill:#000;fill-opacity:1;fill-rule:nonzero;stroke:none"><tspan id="tspan128" x="0 2.13 6.132 10.134 14.484 17.82" y="0">&quot;VER1&quot;</tspan><tspan id="tspan130" x="-160.945 -157.945 -154.609 -151.273 -147.937 -144.583 -141.583 -139.915 -136.411 -134.743 -77.785 -74.785 -71.449 -68.113 -64.777 -61.423 -58.423 -56.755 -53.251 -51.583" y="-41.175">vd_ndx = 2vd_ndx = 3</tspan><tspan id="tspan132" x="53.781 57.783 60.783 65.781 69.135 72.471" y="-115.175">Symbol</tspan><tspan id="tspan134" x="54.129 58.131 61.467 63.483 66.483 67.815 71.151" y="-77.595">Version</tspan><tspan id="tspan136" x="54.129 55.461 58.797 62.133 65.487" y="-71.595">index</tspan><tspan id="tspan138" x="54.129 58.131 61.467 63.483 67.815 71.151" y="-42.683">VerDef</tspan><tspan id="tspan140" x="54.129 58.131 61.467 63.483 67.815 71.151 72.819 76.821 80.157" y="2.32">VerDefAux</tspan></text></g><path id="path144" d="m 2110.78,96.7188 h 197.19" style="fill:none;stroke:#000;stroke-width:7.5;stroke-linecap:butt;stroke-linejoin:miter;stroke-miterlimit:4;stroke-dasharray:none;stroke-opacity:1"/><path id="path146" d="m 2268.71,114.879 49.18,-18.0782 -49.18,-18.0899 c 7.85,10.668 7.81,25.2691 0,36.1681 z" style="fill:#000;fill-opacity:1;fill-rule:evenodd;stroke:none"/><path id="path148" d="m 2268.71,114.879 49.18,-18.0782 -49.18,-18.0899 c 7.85,10.6602 7.81,25.2691 0,36.1681 z" style="fill:none;stroke:#000;stroke-width:2.8125;stroke-linecap:butt;stroke-linejoin:round;stroke-miterlimit:4;stroke-dasharray:none;stroke-opacity:1"/></g></g></svg>