<svg xmlns="http://www.w3.org/2000/svg" xmlns:svg="http://www.w3.org/2000/svg" id="svg2" width="437.333" height="350.667" version="1.1" viewBox="0 0 437.333 350.667" xml:space="preserve"><metadata id="metadata8"/><g id="g10" transform="matrix(1.3333333,0,0,-1.3333333,0,350.66667)"><g id="g12" transform="scale(0.1)"><path id="path14" d="m 137.93,1676.6 h 757.852 v 949.137 H 137.93 Z" style="fill:#fdffff;fill-opacity:1;fill-rule:nonzero;stroke:none"/><path id="path16" d="m 137.93,1676.6 h 757.852 v 949.137 H 137.93 Z" style="fill:none;stroke:#000;stroke-width:8.50393963;stroke-linecap:butt;stroke-linejoin:miter;stroke-miterlimit:4;stroke-dasharray:none;stroke-opacity:1"/><path id="path18" d="m 192.148,2204.69 h 640.863 v 284.02 H 192.148 Z" style="fill:none;stroke:#000;stroke-width:8.50393963;stroke-linecap:butt;stroke-linejoin:miter;stroke-miterlimit:4;stroke-dasharray:none;stroke-opacity:1"/><path id="path20" d="M 190.699,1815.08 H 833 v 349.652 H 190.699 Z" style="fill:none;stroke:#000;stroke-width:8.50393963;stroke-linecap:butt;stroke-linejoin:miter;stroke-miterlimit:4;stroke-dasharray:none;stroke-opacity:1"/><path id="path22" d="m 163.59,9.57031 h 760.738 v 650.82 H 163.59 Z" style="fill:#fdffff;fill-opacity:1;fill-rule:nonzero;stroke:none"/><path id="path24" d="m 163.59,9.57031 h 760.738 v 650.82 H 163.59 Z" style="fill:none;stroke:#000;stroke-width:8.50393963;stroke-linecap:butt;stroke-linejoin:miter;stroke-miterlimit:4;stroke-dasharray:none;stroke-opacity:1"/><path id="path26" d="m 1352.5,5.26953 h 760.738 v 653.711 H 1352.5 Z" style="fill:#fdffff;fill-opacity:1;fill-rule:nonzero;stroke:none"/><path id="path28" d="m 1352.5,5.26953 h 760.738 v 653.711 H 1352.5 Z" style="fill:none;stroke:#000;stroke-width:8.50393963;stroke-linecap:butt;stroke-linejoin:miter;stroke-miterlimit:4;stroke-dasharray:none;stroke-opacity:1"/><path id="path30" d="m 2517.19,15.2695 h 757.848 v 640.859 H 2517.19 Z" style="fill:#fdffff;fill-opacity:1;fill-rule:nonzero;stroke:none"/><path id="path32" d="m 2517.19,15.2695 h 757.848 v 640.859 H 2517.19 Z" style="fill:none;stroke:#000;stroke-width:8.50393963;stroke-linecap:butt;stroke-linejoin:miter;stroke-miterlimit:4;stroke-dasharray:none;stroke-opacity:1"/><path id="path34" d="m 1353.95,815.98 h 757.891 v 944.84 H 1353.95 Z" style="fill:#fdffff;fill-opacity:1;fill-rule:nonzero;stroke:none"/><path id="path36" d="m 1353.95,815.98 h 757.891 v 944.84 H 1353.95 Z" style="fill:none;stroke:#000;stroke-width:8.50393963;stroke-linecap:butt;stroke-linejoin:miter;stroke-miterlimit:4;stroke-dasharray:none;stroke-opacity:1"/><path id="path38" d="m 1409.61,1339.77 h 633.711 v 286.91 H 1409.61 Z" style="fill:none;stroke:#000;stroke-width:8.50393963;stroke-linecap:butt;stroke-linejoin:miter;stroke-miterlimit:4;stroke-dasharray:none;stroke-opacity:1"/><path id="path40" d="m 1411.05,1005.78 h 633.668 v 299.73 H 1411.05 Z" style="fill:none;stroke:#000;stroke-width:8.50393963;stroke-linecap:butt;stroke-linejoin:miter;stroke-miterlimit:4;stroke-dasharray:none;stroke-opacity:1"/><path id="path42" d="M 215,436.332 H 60.8594 V 1950.66 H 330.59" style="fill:none;stroke:#000;stroke-width:7.5;stroke-linecap:butt;stroke-linejoin:miter;stroke-miterlimit:4;stroke-dasharray:none;stroke-opacity:1"/><path id="path44" d="m 300.59,1950.66 -15,-15 52.5,15 -52.5,15 z" style="fill:#000;fill-opacity:1;fill-rule:evenodd;stroke:none"/><path id="path46" d="m 300.59,1950.66 -15,-15 52.5,15 -52.5,15 z" style="fill:none;stroke:#000;stroke-width:4;stroke-linecap:butt;stroke-linejoin:miter;stroke-miterlimit:4;stroke-dasharray:none;stroke-opacity:1"/><path id="path48" d="M 213.551,279.34 H 3.75 v 1995.31 h 335.391" style="fill:none;stroke:#000;stroke-width:7.5;stroke-linecap:butt;stroke-linejoin:miter;stroke-miterlimit:4;stroke-dasharray:none;stroke-opacity:1"/><path id="path50" d="m 309.141,2274.65 -15,-15 52.5,15 -52.5,15 z" style="fill:#000;fill-opacity:1;fill-rule:evenodd;stroke:none"/><path id="path52" d="m 309.141,2274.65 -15,-15 52.5,15 -52.5,15 z" style="fill:none;stroke:#000;stroke-width:4;stroke-linecap:butt;stroke-linejoin:miter;stroke-miterlimit:4;stroke-dasharray:none;stroke-opacity:1"/><path id="path54" d="m 658.871,1949.22 h 315.43 v 325.43 h -269.77" style="fill:none;stroke:#000;stroke-width:7.5;stroke-linecap:butt;stroke-linejoin:miter;stroke-miterlimit:4;stroke-dasharray:none;stroke-opacity:1"/><path id="path56" d="m 734.531,2274.65 15,15 -52.5,-15 52.5,-15 z" style="fill:#000;fill-opacity:1;fill-rule:evenodd;stroke:none"/><path id="path58" d="m 734.531,2274.65 15,15 -52.5,-15 52.5,-15 z" style="fill:none;stroke:#000;stroke-width:4;stroke-linecap:butt;stroke-linejoin:miter;stroke-miterlimit:4;stroke-dasharray:none;stroke-opacity:1"/><path id="path60" d="M 1379.65,279.34 H 1168.4 v 1133.24 h 353.94" style="fill:none;stroke:#000;stroke-width:7.5;stroke-linecap:butt;stroke-linejoin:miter;stroke-miterlimit:4;stroke-dasharray:none;stroke-opacity:1"/><path id="path62" d="m 1492.34,1412.58 -15,-15 52.5,15 -52.5,15 z" style="fill:#000;fill-opacity:1;fill-rule:evenodd;stroke:none"/><path id="path64" d="m 1492.34,1412.58 -15,-15 52.5,15 -52.5,15 z" style="fill:none;stroke:#000;stroke-width:4;stroke-linecap:butt;stroke-linejoin:miter;stroke-miterlimit:4;stroke-dasharray:none;stroke-opacity:1"/><path id="path66" d="m 1382.5,360.66 h -134.18 v 726.49 h 305.43" style="fill:none;stroke:#000;stroke-width:7.5;stroke-linecap:butt;stroke-linejoin:miter;stroke-miterlimit:4;stroke-dasharray:none;stroke-opacity:1"/><path id="path68" d="m 1523.75,1087.15 -15,-15 52.5,15 -52.5,15 z" style="fill:#000;fill-opacity:1;fill-rule:evenodd;stroke:none"/><path id="path70" d="m 1523.75,1087.15 -15,-15 52.5,15 -52.5,15 z" style="fill:none;stroke:#000;stroke-width:4;stroke-linecap:butt;stroke-linejoin:miter;stroke-miterlimit:4;stroke-dasharray:none;stroke-opacity:1"/><path id="path72" d="m 1874.88,1090 h 319.73 v 325.43 h -285.47" style="fill:none;stroke:#000;stroke-width:7.5;stroke-linecap:butt;stroke-linejoin:miter;stroke-miterlimit:4;stroke-dasharray:none;stroke-opacity:1"/><path id="path74" d="m 1939.14,1415.43 15,15 -52.5,-15 52.5,-15 z" style="fill:#000;fill-opacity:1;fill-rule:evenodd;stroke:none"/><path id="path76" d="m 1939.14,1415.43 15,15 -52.5,-15 52.5,-15 z" style="fill:none;stroke:#000;stroke-width:4;stroke-linecap:butt;stroke-linejoin:miter;stroke-miterlimit:4;stroke-dasharray:none;stroke-opacity:1"/><path id="path78" d="M 2542.85,279.34 H 2305.94 V 1090 h -74.22" style="fill:none;stroke:#000;stroke-width:7.5;stroke-linecap:butt;stroke-linejoin:miter;stroke-miterlimit:4;stroke-dasharray:none;stroke-opacity:1"/><path id="path80" d="m 2261.72,1090 15,15 -52.5,-15 52.5,-15 z" style="fill:#000;fill-opacity:1;fill-rule:evenodd;stroke:none"/><path id="path82" d="m 2261.72,1090 15,15 -52.5,-15 52.5,-15 z" style="fill:none;stroke:#000;stroke-width:4;stroke-linecap:butt;stroke-linejoin:miter;stroke-miterlimit:4;stroke-dasharray:none;stroke-opacity:1"/><path id="path84" d="M 2542.85,357.809 H 2385.86 V 1415.43 h -148.44" style="fill:none;stroke:#000;stroke-width:7.5;stroke-linecap:butt;stroke-linejoin:miter;stroke-miterlimit:4;stroke-dasharray:none;stroke-opacity:1"/><path id="path86" d="m 2267.42,1415.43 15,15 -52.5,-15 52.5,-15 z" style="fill:#000;fill-opacity:1;fill-rule:evenodd;stroke:none"/><path id="path88" d="m 2267.42,1415.43 15,15 -52.5,-15 52.5,-15 z" style="fill:none;stroke:#000;stroke-width:4;stroke-linecap:butt;stroke-linejoin:miter;stroke-miterlimit:4;stroke-dasharray:none;stroke-opacity:1"/><path id="path90" d="M 2544.3,440.59 H 2440.08 V 1869.3 H 399.102" style="fill:none;stroke:#000;stroke-width:7.5;stroke-linecap:butt;stroke-linejoin:miter;stroke-miterlimit:4;stroke-dasharray:none;stroke-opacity:1"/><path id="path92" d="m 429.102,1869.3 15,15 -52.5,-15 52.5,-15 z" style="fill:#000;fill-opacity:1;fill-rule:evenodd;stroke:none"/><path id="path94" d="m 429.102,1869.3 15,15 -52.5,-15 52.5,-15 z" style="fill:none;stroke:#000;stroke-width:4;stroke-linecap:butt;stroke-linejoin:miter;stroke-miterlimit:4;stroke-dasharray:none;stroke-opacity:1"/><path id="path96" d="M 627.461,1923.52 1441.02,1535.31" style="fill:none;stroke:red;stroke-width:7.51180983;stroke-linecap:butt;stroke-linejoin:miter;stroke-miterlimit:4;stroke-dasharray:22.5354,22.5354;stroke-dashoffset:0;stroke-opacity:1"/><path id="path98" d="m 1413.91,1548.24 -20.04,-7.07 53.9,-9.1 -40.97,36.21 z" style="fill:red;fill-opacity:1;fill-rule:evenodd;stroke:none"/><path id="path100" d="m 1413.91,1548.25 -20.04,-7.08 53.9,-9.1 -40.97,36.22 z" style="fill:none;stroke:red;stroke-width:4.00629997;stroke-linecap:butt;stroke-linejoin:miter;stroke-miterlimit:4;stroke-dasharray:none;stroke-opacity:1"/><g id="g102" transform="scale(10)"><text id="text158" transform="matrix(1,0,0,-1,41.8156,254.439)" style="font-variant:normal;font-size:6px;font-family:Helvetica;-inkscape-font-specification:f-0-0;writing-mode:lr-tb;fill:#000;fill-opacity:1;fill-rule:nonzero;stroke:none"><tspan id="tspan104" x="0 4.332 7.668 11.004 13.02" y="0">DLL-B</tspan><tspan id="tspan106" x="-1.257 3.075 4.407 7.743 10.743 13.743 15.411" y="16.699">Class A</tspan><tspan id="tspan108" x="-13.105 -11.107 -7.771 -4.435 -2.767 .233 3.569 6.569 8.237 9.905 13.241 16.577 19.577 21.245 22.577 25.931 29.267" y="22.699">(no key function)</tspan><tspan id="tspan110" x="-.589 3.743 7.409 11.075 12.743 14.741" y="28.699">RTTI-A</tspan><tspan id="tspan112" x="-.829 3.503 4.835 8.171 11.171 15.845" y="49.669">ClassB</tspan><tspan id="tspan114" x="-14.675 -12.677 -8.345 -7.013 -5.345 -2.009 -.341 2.659 5.995 8.995 10.663 12.331 15.667 19.003 22.003 23.671 25.003 28.357 31.693" y="55.669">(with key function)</tspan><tspan id="tspan116" x="-.161 4.171 7.837 11.503 13.171 15.169" y="61.669">RTTI-B</tspan><tspan id="tspan118" x="-2.987 1.015 3.013 6.367 9.703 11.701 15.037 20.053 21.721" y="197.819">Program B</tspan><tspan id="tspan120" x="-15.895 -11.563 -8.227 -6.559 -3.223 -1.225 2.129 5.465 8.465 11.801 13.469 15.137 18.473 20.141 24.473 28.139 31.805 33.473 35.471" y="213.091">Reference to RTTI-B</tspan><tspan id="tspan122" x="-16.323 -11.991 -8.655 -6.987 -3.651 -1.653 1.701 5.037 8.037 11.373 13.041 14.709 18.045 19.713 24.045 27.711 31.377 33.045 35.043" y="228.505">Reference to RTTI-A</tspan><tspan id="tspan124" x="-1.409 2.593 4.591 7.945 10.945 14.281 17.281 20.281 21.949" y="244.919">Process 1</tspan><tspan id="tspan126" x="117.167 121.169 123.167 126.521 129.857 131.855 135.191 140.207 141.875" y="198.39">Program C</tspan><tspan id="tspan128" x="103.118 107.45 110.786 112.454 115.79 117.788 121.142 124.478 127.478 130.814 132.482 134.15 137.486 139.154 143.486 147.152 150.818 152.486 154.484" y="220.37">Reference to RTTI-C</tspan><tspan id="tspan130" x="103.139 107.471 110.807 112.475 115.811 117.809 121.163 124.499 127.499 130.835 132.503 134.171 137.507 139.175 143.507 147.173 150.839 152.507 154.505" y="228.791">Reference to RTTI-A</tspan><tspan id="tspan132" x="117.198 121.2 123.198 126.551 129.551 132.887 135.887 138.887 140.555" y="244.491">Process 2</tspan><tspan id="tspan134" x="232.628 236.63 238.628 241.981 245.317 247.315 250.651 255.667 257.335 261.337" y="199.103">Program BC</tspan><tspan id="tspan136" x="219.89 224.222 227.558 229.226 232.562 234.56 237.913 241.249 244.249 247.585 249.253 250.921 254.257 255.925 260.257 263.923 267.589 269.257 271.255" y="212.663">Reference to RTTI-B</tspan><tspan id="tspan138" x="219.747 224.079 227.415 229.083 232.419 234.417 237.77 241.106 244.106 247.442 249.11 250.778 254.114 255.782 260.114 263.78 267.446 269.114 271.112" y="220.655">Reference to RTTI-A</tspan><tspan id="tspan140" x="219.297 223.629 226.965 228.633 231.969 233.967 237.321 240.657 243.657 246.993 248.661 250.329 253.665 255.333 259.665 263.331 266.997 268.665 270.663" y="228.363">Reference to RTTI-C</tspan><tspan id="tspan142" x="233.234 237.236 239.234 242.588 245.588 248.924 251.924 254.924 256.592" y="244.634">Process 3</tspan><tspan id="tspan144" x="122.295 126.627 129.963 133.299 135.315" y="87.634">DLL-C</tspan><tspan id="tspan146" x="119.489 123.821 125.153 128.489 131.489 134.489 136.157" y="103.334">Class A</tspan><tspan id="tspan148" x="107.642 109.64 112.976 116.312 117.98 120.98 124.316 127.316 128.984 130.652 133.988 137.324 140.324 141.992 143.324 146.678 150.014" y="109.334">(no key function)</tspan><tspan id="tspan150" x="120.157 124.489 128.155 131.821 133.489 135.487" y="115.334">RTTI-A</tspan><tspan id="tspan152" x="119.753 124.085 125.417 128.753 131.753 134.753 136.421" y="135.732">Class C</tspan><tspan id="tspan154" x="106.072 108.07 112.402 113.734 115.402 118.738 120.406 123.406 126.742 129.742 131.41 133.078 136.414 139.75 142.75 144.418 145.75 149.104 152.44" y="141.732">(with key function)</tspan><tspan id="tspan156" x="120.421 124.753 128.419 132.085 133.753 135.751" y="147.732">RTTI-C</tspan></text></g></g></g></svg>