<svg xmlns="http://www.w3.org/2000/svg" xmlns:svg="http://www.w3.org/2000/svg" id="svg2" width="446.667" height="393.333" version="1.1" viewBox="0 0 446.667 393.333" xml:space="preserve"><metadata id="metadata8"/><g id="g10" transform="matrix(1.3333333,0,0,-1.3333333,0,393.33333)"><g id="g12" transform="scale(0.1)"><path id="path14" d="m 4.26172,1841.83 h 809.098 V 2945.74 H 4.26172 Z" style="fill:#fec996;fill-opacity:1;fill-rule:nonzero;stroke:none"/><path id="path16" d="m 4.26172,1841.83 h 809.098 V 2945.74 H 4.26172 Z" style="fill:none;stroke:#090000;stroke-width:8.50393963;stroke-linecap:butt;stroke-linejoin:miter;stroke-miterlimit:4;stroke-dasharray:none;stroke-opacity:1"/><path id="path18" d="m 869.801,1841.84 h 1560.2 v 862.422 h -1560.2 z" style="fill:#fec996;fill-opacity:1;fill-rule:nonzero;stroke:none"/><path id="path20" d="m 869.801,1841.84 h 1560.2 v 862.422 h -1560.2 z" style="fill:none;stroke:#090000;stroke-width:8.50393963;stroke-linecap:butt;stroke-linejoin:miter;stroke-miterlimit:4;stroke-dasharray:none;stroke-opacity:1"/><path id="path22" d="m 2483.44,1841.95 h 860.617 V 2945.62 H 2483.44 Z" style="fill:#fec996;fill-opacity:1;fill-rule:nonzero;stroke:none"/><path id="path24" d="m 2483.44,1841.95 h 860.617 V 2945.62 H 2483.44 Z" style="fill:none;stroke:#090000;stroke-width:8.72789955;stroke-linecap:butt;stroke-linejoin:miter;stroke-miterlimit:4;stroke-dasharray:none;stroke-opacity:1"/><path id="path26" d="M 4.26172,844.57 H 3344.1817 V 1794.8 H 4.26172 Z" style="fill:#d6d6d6;fill-opacity:1;fill-rule:nonzero;stroke:none"/><path id="path28" d="M 4.26172,844.57 H 3344.1817 V 1794.8 H 4.26172 Z" style="fill:none;stroke:#090000;stroke-width:8.50393963;stroke-linecap:butt;stroke-linejoin:miter;stroke-miterlimit:4;stroke-dasharray:none;stroke-opacity:1"/><path id="path30" d="M 4.26172,8.82813 H 3344.1817 v 787.152 H 4.26172 Z" style="fill:#8ac0ff;fill-opacity:1;fill-rule:nonzero;stroke:none"/><path id="path32" d="M 4.26172,8.82813 H 3344.1817 v 787.152 H 4.26172 Z" style="fill:none;stroke:#090000;stroke-width:8.50393963;stroke-linecap:butt;stroke-linejoin:miter;stroke-miterlimit:4;stroke-dasharray:none;stroke-opacity:1"/><path id="path34" d="m 247.301,2316.96 h 539.41 v 578.629 h -539.41 z" style="fill:#fff;fill-opacity:1;fill-rule:nonzero;stroke:none"/><path id="path36" d="m 247.301,2316.96 h 539.41 v 578.629 h -539.41 z" style="fill:none;stroke:#090000;stroke-width:8.50393963;stroke-linecap:butt;stroke-linejoin:miter;stroke-miterlimit:4;stroke-dasharray:none;stroke-opacity:1"/><path id="path38" d="m 179.879,2189.96 h 537.813 v 577.027 H 179.879 Z" style="fill:#fff;fill-opacity:1;fill-rule:nonzero;stroke:none"/><path id="path40" d="m 179.879,2189.96 h 537.813 v 577.027 H 179.879 Z" style="fill:none;stroke:#090000;stroke-width:8.50393963;stroke-linecap:butt;stroke-linejoin:miter;stroke-miterlimit:4;stroke-dasharray:none;stroke-opacity:1"/><path id="path42" d="M 109.301,2058.24 H 651.84 V 2638.4 H 109.301 Z" style="fill:#fff;fill-opacity:1;fill-rule:nonzero;stroke:none"/><path id="path44" d="M 109.301,2058.24 H 651.84 V 2638.4 H 109.301 Z" style="fill:none;stroke:#090000;stroke-width:8.50393963;stroke-linecap:butt;stroke-linejoin:miter;stroke-miterlimit:4;stroke-dasharray:none;stroke-opacity:1"/><path id="path46" d="m 971.719,2059.8 h 539.41 v 567.621 h -539.41 z" style="fill:#fff;fill-opacity:1;fill-rule:nonzero;stroke:none"/><path id="path48" d="m 971.719,2059.8 h 539.41 v 567.621 h -539.41 z" style="fill:none;stroke:#090000;stroke-width:8.50393963;stroke-linecap:butt;stroke-linejoin:miter;stroke-miterlimit:4;stroke-dasharray:none;stroke-opacity:1"/><path id="path50" d="m 1783.98,2061.37 h 536.25 v 564.488 h -536.25 z" style="fill:#fff;fill-opacity:1;fill-rule:nonzero;stroke:none"/><path id="path52" d="m 1783.98,2061.37 h 536.25 v 564.488 h -536.25 z" style="fill:none;stroke:#090000;stroke-width:8.50393963;stroke-linecap:butt;stroke-linejoin:miter;stroke-miterlimit:4;stroke-dasharray:none;stroke-opacity:1"/><path id="path54" d="m 2705.98,2327.93 h 539.41 v 578.629 h -539.41 z" style="fill:#fff;fill-opacity:1;fill-rule:nonzero;stroke:none"/><path id="path56" d="m 2705.98,2327.93 h 539.41 v 578.629 h -539.41 z" style="fill:none;stroke:#090000;stroke-width:8.50393963;stroke-linecap:butt;stroke-linejoin:miter;stroke-miterlimit:4;stroke-dasharray:none;stroke-opacity:1"/><path id="path58" d="m 2640.12,2199.38 h 537.848 v 577.031 H 2640.12 Z" style="fill:#fff;fill-opacity:1;fill-rule:nonzero;stroke:none"/><path id="path60" d="m 2640.12,2199.38 h 537.848 v 577.031 H 2640.12 Z" style="fill:none;stroke:#090000;stroke-width:8.50393963;stroke-linecap:butt;stroke-linejoin:miter;stroke-miterlimit:4;stroke-dasharray:none;stroke-opacity:1"/><path id="path62" d="m 2574.26,2072.35 h 537.848 v 577.027 H 2574.26 Z" style="fill:#fff;fill-opacity:1;fill-rule:nonzero;stroke:none"/><path id="path64" d="m 2574.26,2072.35 h 537.848 v 577.027 H 2574.26 Z" style="fill:none;stroke:#090000;stroke-width:8.50393963;stroke-linecap:butt;stroke-linejoin:miter;stroke-miterlimit:4;stroke-dasharray:none;stroke-opacity:1"/><path id="path66" d="m 57.5781,1115.86 h 801.25 v 620.941 h -801.25 z" style="fill:#fff;fill-opacity:1;fill-rule:nonzero;stroke:none"/><path id="path68" d="m 57.5781,1115.86 h 801.25 v 620.941 h -801.25 z" style="fill:none;stroke:#090000;stroke-width:8.50393963;stroke-linecap:butt;stroke-linejoin:miter;stroke-miterlimit:4;stroke-dasharray:none;stroke-opacity:1"/><path id="path70" d="m 858.828,1115.86 h 804.41 v 620.941 h -804.41 z" style="fill:#fff;fill-opacity:1;fill-rule:nonzero;stroke:none"/><path id="path72" d="m 858.828,1115.86 h 804.41 v 620.941 h -804.41 z" style="fill:none;stroke:#090000;stroke-width:8.50393963;stroke-linecap:butt;stroke-linejoin:miter;stroke-miterlimit:4;stroke-dasharray:none;stroke-opacity:1"/><path id="path74" d="m 1661.68,1115.86 h 821.641 v 620.941 H 1661.68 Z" style="fill:#fff;fill-opacity:1;fill-rule:nonzero;stroke:none"/><path id="path76" d="m 1661.68,1115.86 h 821.641 v 620.941 H 1661.68 Z" style="fill:none;stroke:#090000;stroke-width:8.51189995;stroke-linecap:butt;stroke-linejoin:miter;stroke-miterlimit:4;stroke-dasharray:none;stroke-opacity:1"/><path id="path78" d="m 2483.32,1115.86 h 807.539 v 620.941 H 2483.32 Z" style="fill:#fff;fill-opacity:1;fill-rule:nonzero;stroke:none"/><path id="path80" d="m 2483.32,1115.86 h 807.539 v 620.941 H 2483.32 Z" style="fill:none;stroke:#090000;stroke-width:8.51461029;stroke-linecap:butt;stroke-linejoin:miter;stroke-miterlimit:4;stroke-dasharray:none;stroke-opacity:1"/><path id="path82" d="m 57.5391,980.98 h 1604.14 v 134.879 H 57.5391 Z" style="fill:#fff;fill-opacity:1;fill-rule:nonzero;stroke:none"/><path id="path84" d="m 57.5391,980.98 h 1604.14 v 134.879 H 57.5391 Z" style="fill:none;stroke:#090000;stroke-width:8.47593975;stroke-linecap:butt;stroke-linejoin:miter;stroke-miterlimit:4;stroke-dasharray:none;stroke-opacity:1"/><path id="path86" d="m 1661.68,981.02 h 1629.18 v 134.84 H 1661.68 Z" style="fill:#fff;fill-opacity:1;fill-rule:nonzero;stroke:none"/><path id="path88" d="m 1661.68,981.02 h 1629.18 v 134.84 H 1661.68 Z" style="fill:none;stroke:#090000;stroke-width:8.48351955;stroke-linecap:butt;stroke-linejoin:miter;stroke-miterlimit:4;stroke-dasharray:none;stroke-opacity:1"/><path id="path90" d="m 109.301,175.039 h 1052.19 V 742.66 H 109.301 Z" style="fill:#fff;fill-opacity:1;fill-rule:nonzero;stroke:none"/><path id="path92" d="m 109.301,175.039 h 1052.19 V 742.66 H 109.301 Z" style="fill:none;stroke:#090000;stroke-width:8.50393963;stroke-linecap:butt;stroke-linejoin:miter;stroke-miterlimit:4;stroke-dasharray:none;stroke-opacity:1"/><path id="path94" d="m 1161.48,171.879 h 997.27 V 742.66 h -997.27 z" style="fill:#fff;fill-opacity:1;fill-rule:nonzero;stroke:none"/><path id="path96" d="m 1161.48,171.879 h 997.27 V 742.66 h -997.27 z" style="fill:none;stroke:#090000;stroke-width:8.50393963;stroke-linecap:butt;stroke-linejoin:miter;stroke-miterlimit:4;stroke-dasharray:none;stroke-opacity:1"/><path id="path98" d="M 2158.75,171.879 H 3235.98 V 742.66 H 2158.75 Z" style="fill:#fff;fill-opacity:1;fill-rule:nonzero;stroke:none"/><path id="path100" d="M 2158.75,171.879 H 3235.98 V 742.66 H 2158.75 Z" style="fill:none;stroke:#090000;stroke-width:8.50393963;stroke-linecap:butt;stroke-linejoin:miter;stroke-miterlimit:4;stroke-dasharray:none;stroke-opacity:1"/><g id="g102" transform="scale(10)"><text id="text110" transform="matrix(1,0,0,-1,36.407,279.992)" style="font-variant:normal;font-size:6px;font-family:Helvetica;-inkscape-font-specification:f-0-0;writing-mode:lr-tb;fill:#000;fill-opacity:1;fill-rule:nonzero;stroke:none"><tspan id="tspan104" x="0 4.332 7.998 12.666 16.668 18.336 20.004 21.672 23.34 25.008" y="0">RTOS ... N</tspan><tspan id="tspan106" x="-4.955 -.623 3.043 7.711 11.713 13.381" y="12.544">RTOS 2</tspan><tspan id="tspan108" x="-9.973 -5.641 -1.975 2.693 6.695 8.363" y="26.855">RTOS 1</tspan></text><text id="text120" transform="matrix(1,0,0,-1,23.33981,235.4597)" style="font-variant:normal;font-size:6px;font-family:Helvetica;-inkscape-font-specification:f-1-0;writing-mode:lr-tb;fill:#000;fill-opacity:1;fill-rule:nonzero;stroke:none"><tspan id="tspan112" x="0 4.332 7.668 11.004 12.354 15.354 18.69 20.358 23.694" y="0">Choice of</tspan><tspan id="tspan114" x="1.664 5.666 9.668 13.688 18.02 22.022" y="6">AAPCS,</tspan><tspan id="tspan116" x="-5.672 -.674 2.662 7.678 11.014 13.012 16.012 17.68 22.678 26.014 29.368" y="12">memory map,</tspan><tspan id="tspan118" x="6.182 9.518 11.186 14.186 15.854 17.522" y="18">etc...</tspan></text><text id="text128" transform="matrix(1,0,0,-1,13.66833,196.3335)" style="font-variant:normal;font-size:6px;font-family:Helvetica;-inkscape-font-specification:f-0-0;writing-mode:lr-tb;fill:#000;fill-opacity:1;fill-rule:nonzero;stroke:none"><tspan id="tspan122" x="0 4.332 7.668 10.002 13.338 15.006 17.004 19.866 23.532 26.868 29.202 32.538 34.206 39.54 42.876 44.874 48.21 49.878 52.722" y="0">Bare (&quot;bare metal&quot;)</tspan><tspan id="tspan124" x="5.859 9.525 11.193 14.529 16.527 18.525 22.209 24.543 29.877 31.545 33.543 36.879 42.213 43.881 45.549" y="6">platform family</tspan><tspan id="tspan126" x="89.783 93.785 97.121 98.789 104.123 105.791 110.459 114.461 116.129 120.461 124.793" y="-56.804">Palm OS ABI</tspan></text><text id="text138" transform="matrix(1,0,0,-1,270.33551,237.4979)" style="font-variant:normal;font-size:6px;font-family:Helvetica;-inkscape-font-specification:f-1-0;writing-mode:lr-tb;fill:#000;fill-opacity:1;fill-rule:nonzero;stroke:none"><tspan id="tspan130" x="0 4.002 7.338 10.674 12.024 13.356 16.356 19.692 21.36 22.692 26.028" y="0">Application</tspan><tspan id="tspan132" x="-1.078 1.922 3.59 6.926 10.262 13.598 16.934 18.95 22.286 25.286 26.954" y="6">standards +</tspan><tspan id="tspan134" x="8.344 11.68 15.016 16.348 17.698" y="12">build</tspan><tspan id="tspan136" x="-.498 2.838 6.174 8.172 11.526 16.524 19.86 21.528 24.864 26.862" y="18">parameters</tspan></text><text id="text144" transform="matrix(1,0,0,-1,187.37696,253.137)" style="font-variant:normal;font-size:6px;font-family:Helvetica;-inkscape-font-specification:f-0-0;writing-mode:lr-tb;fill:#000;fill-opacity:1;fill-rule:nonzero;stroke:none"><tspan id="tspan140" x="0 4.002 7.338 12.672 16.338 18.006 21.342 25.008 26.676 31.344" y="0">Symbian OS</tspan><tspan id="tspan142" x="12.51 16.842 21.174" y="6">ABI</tspan></text><text id="text162" transform="matrix(1,0,0,-1,110.08016,238.57059)" style="font-variant:normal;font-size:6px;font-family:Helvetica;-inkscape-font-specification:f-1-0;writing-mode:lr-tb;fill:#000;fill-opacity:1;fill-rule:nonzero;stroke:none"><tspan id="tspan146" x="0 4.002 7.338 10.674 12.024 13.356 16.356 19.692 21.36 22.692 26.028" y="0">Application</tspan><tspan id="tspan148" x="-1.078 1.922 3.59 6.926 10.262 13.598 16.934 18.95 22.286 25.286 26.954" y="6">standards +</tspan><tspan id="tspan150" x="8.344 11.68 15.016 16.348 17.698" y="12">build</tspan><tspan id="tspan152" x="-.498 2.838 6.174 8.172 11.526 16.524 19.86 21.528 24.864 26.862" y="18">parameters</tspan><tspan id="tspan154" x="79.029 83.031 86.367 89.703 91.053 92.385 95.385 98.721 100.389 101.721 105.057" y=".157">Application</tspan><tspan id="tspan156" x="77.951 80.951 82.619 85.955 89.291 92.627 95.963 97.979 101.315 104.315 105.983" y="6.157">standards +</tspan><tspan id="tspan158" x="87.373 90.709 94.045 95.377 96.727" y="12.157">build</tspan><tspan id="tspan160" x="78.531 81.867 85.203 87.201 90.555 95.553 98.889 100.557 103.893 105.891" y="18.157">parameters</tspan></text><text id="text186" transform="matrix(1,0,0,-1,295.70036,281.08979)" style="font-variant:normal;font-size:6px;font-family:Helvetica;-inkscape-font-specification:f-0-0;writing-mode:lr-tb;fill:#000;fill-opacity:1;fill-rule:nonzero;stroke:none"><tspan id="tspan164" x="0 1.668 3.336" y="0">...</tspan><tspan id="tspan166" x="-11.064 -6.396 -2.064" y="13.329">QNX</tspan><tspan id="tspan168" x="-28.02 -23.688 -21.354 -16.02 -14.352 -10.686 -9.018 -5.352 -1.686" y="27.953">Arm Linux</tspan><tspan id="tspan170" x="-18.352 -14.02 -9.688" y="33.953">ABI</tspan><tspan id="tspan172" x="-272.474 -269.63 -265.298 -261.962 -259.628 -256.292 -254.624 -250.958 -249.29 -245.954 -243.938 -241.94 -238.274 -235.94 -230.606 -182.144 -177.812 -174.146 -170.48 -168.482 -166.814 -165.146 -161.81 -99.822 -95.49 -91.824 -88.158 -86.16 -84.492 -82.824 -79.488 -20.076 -16.074 -12.072 -9.738 -6.402 -4.386 -2.718 -1.05 2.286" y="118.224">&quot;Bare platform&quot;DLL-likeDLL-likeSVr4-like</tspan><tspan id="tspan174" x="-241.455 -237.453 -235.785 -232.119 -228.453 -226.785 -223.449 -221.781 -218.445 -214.779 -211.113 -208.779 -205.443 -202.089 -198.753 -197.085 -193.749 -190.083 -186.747 -183.411 -91.748 -86.75 -83.084 -81.416 -79.418 -77.75 -74.084 -72.416 -69.08 -67.412 -64.076 -62.408 -60.074 -58.076 -54.41 -51.074 -49.406 -47.738 -44.402 -40.736 -37.07 -34.736 -31.382 -28.046 -24.71 -23.042 -19.706 -16.04 -12.704 -9.368 -6.014" y="177.809">Single address spaceMultiple virtual address spaces</tspan><tspan id="tspan176" x="-180.382 -176.05 -172.384 -168.718 -166.384 -163.048 -159.712 -156.358 -154.69 -151.354 -147.688 -144.352 -141.016 -137.68 -136.012 -130.678 -127.342 -123.676 -120.322 -116.656 -113.32 -107.986 -104.65 -100.984 -98.986 -97.318 -95.302 -91.966 -88.3" y="191.928">Address space management type</tspan><tspan id="tspan178" x="-145.205 -140.873 -137.207 -133.541 -131.543 -127.859 -124.523 -121.187 -117.851" y="84.756">DLL-based</tspan><tspan id="tspan180" x="-151.199 -147.533 -145.865 -142.529 -140.531 -138.533 -134.849 -132.515 -127.181 -125.513 -123.515 -120.179 -114.845 -113.177 -111.509" y="90.756">platform family</tspan><tspan id="tspan182" x="-14.09 -10.088 -6.086 -3.752" y="84.756">SVr4</tspan><tspan id="tspan184" x="-28.756 -25.09 -23.422 -20.086 -18.088 -16.09 -12.406 -10.072 -4.738 -3.07 -1.072 2.264 7.598 9.266 10.934" y="90.756">platform family</tspan></text><text id="text242" transform="matrix(1,0,0,-1,12.97099,148.65319)" style="font-variant:normal;font-size:6px;font-family:Helvetica;-inkscape-font-specification:f-1-0;writing-mode:lr-tb;fill:#000;fill-opacity:1;fill-rule:nonzero;stroke:none"><tspan id="tspan188" x="0 4.332 7.668 9.336 12.672 15.672 19.008 22.362 27.36 28.692 31.692 35.028 36.36 37.71 40.71 42.378 43.71 47.046 50.382 53.718 57.072" y="0">No dynamically loaded</tspan><tspan id="tspan190" x="0 3.336 6.336 9.672 12.672 16.008 17.676 21.012 24.366 25.698 29.034 32.034 33.702 35.37 39.036 42.372" y="6">executables. The</tspan><tspan id="tspan192" x="0 4.332 7.998 12.666 16.668 18.336 19.668 22.668 24.336 27.336 29.004 32.34 34.008 35.34 38.34 41.676 43.008 44.358" y="12">RTOS is statically</tspan><tspan id="tspan194" x="0 1.332 2.664 6 9 12.354 15.69 17.358 21.69 23.022 24.69 29.694 31.362 34.698" y="18">linked withthe</tspan><tspan id="tspan196" x="0 3.336 6.336 9.672 12.672 16.008 17.676 21.012 24.366 25.698 29.034 30.702 32.034 35.37 37.038 41.37 46.038 51.036" y="24">executable in ROM.</tspan><tspan id="tspan198" x="80.284 84.286 85.954 88.954 92.29 95.626 97.641 100.977 104.313 105.981 107.313 108.645 111.981 113.997 117.333 119.331 122.331 123.999 125.997 130.347 133.683 137.019" y="0">A shared library (DLL)</tspan><tspan id="tspan200" x="80.284 83.284 86.62 89.956 91.624 94.96 98.296 99.964 101.632 104.968 106.966 110.32 113.656 116.992 120.328 123.664 125.332 128.668" y="6">can be threaded by</tspan><tspan id="tspan202" x="80.284 85.282 88.618 89.95 91.618 92.95 96.304 97.636 100.972 102.64 105.976 107.974 111.327 114.327 117.663 120.663 123.663 126.999 129.999 131.667 132.999" y="12">multiple processes in</tspan><tspan id="tspan204" x="80.284 83.62 86.956 90.292 91.96 95.296 98.65 101.986 103.984 107.32 110.32 113.32 114.988 117.988 121.324 124.66 127.66 131.014" y="18">one address space.</tspan><tspan id="tspan206" x="160.881 164.883 166.551 170.883 174.219 177.555 178.719 181.719 183.387 186.387 189.723 193.059 198.057 201.393 204.747 206.415 209.415 211.083 214.419 216.417" y="0">A DLL&apos;s segments are</tspan><tspan id="tspan208" x="160.881 165.879 169.215 172.551 175.905 179.241 182.577 184.245 187.581 189.249 190.917 192.585 195.921 199.257 200.925 203.925 207.261 212.259" y="6">mapped at the same</tspan><tspan id="tspan210" x="160.881 164.217 167.553 170.889 172.905 176.241 179.241 182.241 183.909 185.241 188.577 190.245 195.243 198.579 199.929 201.597 202.929 206.265 207.597" y="12">address in multiple</tspan><tspan id="tspan212" x="160.881 163.881 165.213 167.211 168.879 172.215 175.551 176.901 178.569 181.905 185.241 188.577 190.575 193.929 196.929 199.929 201.597 204.597 207.933 211.269 214.269 217.605 220.605" y="18">virtual address spaces.</tspan><tspan id="tspan214" x="242.262 246.264 247.932 252.264 256.266 260.934 262.602 265.602 268.938 272.274 273.942 277.278 280.632 282.3 287.298 290.634 293.97 297.306 300.642" y="0">A DSO can be mapped</tspan><tspan id="tspan216" x="242.262 245.598 247.266 248.934 252.27 253.938 257.274 258.606 260.274 261.942 265.278 267.276 270.612 273.948 275.616 277.284 280.62 283.956 287.31 289.308 292.644 295.644" y="6">at a different address</tspan><tspan id="tspan218" x="242.262 243.594 246.93 248.598 251.934 255.27 258.27 261.624 263.292 266.628 268.626 271.962 274.962 278.298 281.298 284.298 285.966 287.964 291.984" y="12">in each process (VA</tspan><tspan id="tspan220" x="242.262 245.262 248.598 251.934 254.934 258.27 260.286 261.954 263.622 266.958 270.294 271.962 273.63 275.298 278.634 280.632 283.968 287.304 290.64 293.64 295.308 296.64 298.308" y="18">space) that threads it.</tspan><tspan id="tspan222" x="4.391 8.723 12.059 13.727 17.063 18.731 22.067 24.065 27.419 29.087 32.423 35.759 39.095 41.093 44.447 47.447 50.447 53.783 57.119 58.787 62.123 63.455 65.471 68.807 71.807 73.475 74.807" y="102.103">Data are addressed directly</tspan><tspan id="tspan224" x="4.391 7.727 10.727 12.059 15.395 18.749 20.417 23.753 27.089 30.425 32.423 35.759 38.759 41.759 43.427 44.573 47.573 50.927 54.263 57.263 58.931 62.267 65.603 67.271 70.271 71.417 73.085 74.753 76.085 79.085 82.421" y="108.103">using address &apos;constants&apos; fixed</tspan><tspan id="tspan226" x="4.391 7.727 9.395 11.063 14.063 15.731 19.067 20.735 22.067 25.067 26.735 30.071 33.071 36.407 39.743 44.741 46.073 49.073 50.741 52.073 53.423 56.759 59.759 61.427 63.095 64.427 69.425 72.761" y="114.103">at static/dynamic link time.</tspan><tspan id="tspan228" x="109.136 113.468 116.804 118.472 121.808 123.476 126.812 128.81 132.164 133.832 137.168 140.504 143.84 145.838 149.192 152.192 155.192 158.528 161.864 163.532 166.868 169.868 171.2 174.536" y="102.103">Data are addressed using</tspan><tspan id="tspan230" x="109.136 112.472 114.14 115.808 118.808 122.144 123.812 126.812 128.48 130.148 132.146 135.482 140.48 142.148 143.294 146.63 149.966 151.982 155.318 156.464 158.132 159.8 164.468 166.136 167.786 170.786 174.122 175.79" y="108.103">offsets from &apos;here&apos;. Offsets</tspan><tspan id="tspan232" x="109.136 112.472 114.47 117.806 119.474 121.142 122.474 125.474 128.81 132.164 133.832 137.168 138.836 140.504 143.504 145.172 148.508 150.176 151.508 154.508 156.176 157.508 158.84 162.176 165.176 166.844 168.512 169.844 174.842 178.178" y="114.103">are fixed at static link time.</tspan><tspan id="tspan234" x="208.707 214.371 216.369 217.701 219.369 222.705 226.041 227.373 230.727 232.395 235.731 239.067 240.735 244.071 245.739 249.075 251.073 254.409 256.077 259.413 262.767 266.103 268.101 271.437 274.437 277.437 280.79" y="102.103">Writable data are addressed</tspan><tspan id="tspan236" x="208.707 212.043 215.043 216.375 219.711 223.065 224.733 228.069 229.737 231.405 234.405 237.741 239.409 242.409 244.077 245.727 247.725 251.061 256.077 257.745 261.747 265.749 267.417 269.085 270.753 274.089 277.425 279.093 282.093 283.761 287.097 288.765 290.097" y="108.103">using offsets from SB, the static</tspan><tspan id="tspan238" x="208.707 212.043 215.379 218.379 221.715 223.383 225.381 228.735 232.071 233.403 236.403 238.071 241.407 243.405 245.073 246.741 251.409 253.077 254.745 257.745 261.081 262.749 265.749 267.417 270.753 272.751 276.087 277.755 279.423 280.755 283.755 287.091" y="114.103">base register. Offsets are fixed</tspan><tspan id="tspan240" x="208.707 212.043 213.711 215.379 218.379 220.047 223.383 225.051 226.383 229.383 231.051 234.387 237.723 241.059 242.727 246.063 249.063 252.399 255.735 260.751 262.083 265.083 266.751 268.083 269.415 272.751 275.751 277.419 279.087 280.419 285.417 288.771 291.771" y="120.103">at static and dynamic link times.</tspan></text><text id="text248" transform="matrix(1,0,0,-1,32.20479,62.93489)" style="font-variant:normal;font-size:6px;font-family:Helvetica;-inkscape-font-specification:f-0-0;writing-mode:lr-tb;fill:#000;fill-opacity:1;fill-rule:nonzero;stroke:none"><tspan id="tspan244" x="0 4.332 7.998 11.334 15 16.668 20.334 22.35 25.686 27.354 30.69 34.356 38.022 40.356 43.692 47.028 50.364 52.032 55.698 100.65 104.652 108.984 110.982 113.316 116.67 118.338 121.674 123.672 125.34 128.676 132.012 133.68 137.016 140.682 144.348 146.682 150.018 153.372 156.708 158.376 162.042 204.453 208.455 212.787 214.803 217.137 220.473 222.141 225.477 227.475 229.143 232.479 235.815 237.483 240.819 244.485 248.151 250.485 253.821 257.175 260.511 262.179 265.845" y="0">Absolute addressingPC-relative addressingSB-relative addressing</tspan><tspan id="tspan246" x="56.609 60.611 62.945 66.611 69.947 73.283 76.967 80.633 82.967 86.303 87.971 91.307 94.643 96.311 97.979 99.647 102.983 104.981 108.317 111.983 115.649 118.985 121.319 124.985 126.653 128.321 129.989 133.655 137.321 141.989 143.657 146.993 150.659 154.325 157.661 159.329 162.665 166.331 169.997 172.331 175.685 179.021 182.357 185.693 189.029 190.697 194.033 196.049 199.385 201.383 203.051 206.387 208.055 211.721 215.057 217.073" y="55.938">Procedure call standard / how code addresses static data</tspan></text></g></g></g></svg>