<svg xmlns="http://www.w3.org/2000/svg" xmlns:svg="http://www.w3.org/2000/svg" id="svg2" width="466.667" height="233.333" version="1.1" viewBox="0 0 466.667 233.333" xml:space="preserve"><metadata id="metadata8"/><g id="g10" transform="matrix(1.3333333,0,0,-1.3333333,0,233.33333)"><g id="g12" transform="scale(0.1)"><path id="path14" d="m 4.26172,1187.62 h 358.398 v 375.777 H 4.26172 Z" style="fill:#fff;fill-opacity:1;fill-rule:nonzero;stroke:none"/><path id="path16" d="m 4.26172,1187.62 h 358.398 v 375.777 H 4.26172 Z" style="fill:none;stroke:#090000;stroke-width:8.50393963;stroke-linecap:butt;stroke-linejoin:miter;stroke-miterlimit:4;stroke-dasharray:none;stroke-opacity:1"/><path id="path18" d="m 541.289,1189.96 h 810.699 v 375.738 H 541.289 Z" style="fill:#c4ffc2;fill-opacity:1;fill-rule:nonzero;stroke:none"/><path id="path20" d="m 541.289,1189.96 h 810.699 v 375.738 H 541.289 Z" style="fill:none;stroke:#090000;stroke-width:8.52978992;stroke-linecap:butt;stroke-linejoin:miter;stroke-miterlimit:4;stroke-dasharray:none;stroke-opacity:1"/><path id="path22" d="m 1352.03,1189.96 h 270.23 v 375.738 h -270.23 z" style="fill:#fff;fill-opacity:1;fill-rule:nonzero;stroke:none"/><path id="path24" d="m 1352.03,1189.96 h 270.23 v 375.738 h -270.23 z" style="fill:none;stroke:#090000;stroke-width:8.52952957;stroke-linecap:butt;stroke-linejoin:miter;stroke-miterlimit:4;stroke-dasharray:25.5886,25.5886;stroke-dashoffset:0;stroke-opacity:1"/><path id="path26" d="m 1839.18,1188.79 h 813.051 v 375.781 H 1839.18 Z" style="fill:#c4ffc2;fill-opacity:1;fill-rule:nonzero;stroke:none"/><path id="path28" d="m 1839.18,1188.79 h 813.051 v 375.781 H 1839.18 Z" style="fill:none;stroke:#090000;stroke-width:8.51679993;stroke-linecap:butt;stroke-linejoin:miter;stroke-miterlimit:4;stroke-dasharray:none;stroke-opacity:1"/><path id="path30" d="m 2652.23,1188.79 h 264.449 v 375.781 H 2652.23 Z" style="fill:#fff;fill-opacity:1;fill-rule:nonzero;stroke:none"/><path id="path32" d="m 2652.23,1188.79 h 264.449 v 375.781 H 2652.23 Z" style="fill:none;stroke:#090000;stroke-width:8.51665974;stroke-linecap:butt;stroke-linejoin:miter;stroke-miterlimit:4;stroke-dasharray:25.55,25.55;stroke-dashoffset:0;stroke-opacity:1"/><path id="path34" d="m 2916.68,1188.79 h 542.809 v 375.781 H 2916.68 Z" style="fill:#c4ffc2;fill-opacity:1;fill-rule:nonzero;stroke:none"/><path id="path36" d="m 2916.68,1188.79 h 542.809 v 375.781 H 2916.68 Z" style="fill:none;stroke:#090000;stroke-width:8.51675987;stroke-linecap:butt;stroke-linejoin:miter;stroke-miterlimit:4;stroke-dasharray:25.5503,25.5503;stroke-dashoffset:0;stroke-opacity:1"/><path id="path38" d="m 543.59,10.3516 h 2944.88 v 938.32 H 543.59 Z" style="fill:#fec187;fill-opacity:1;fill-rule:nonzero;stroke:none"/><path id="path40" d="m 543.59,10.3516 h 2944.88 v 938.32 H 543.59 Z" style="fill:none;stroke:#090000;stroke-width:8.50393963;stroke-linecap:butt;stroke-linejoin:miter;stroke-miterlimit:4;stroke-dasharray:none;stroke-opacity:1"/><path id="path42" d="m 1124.69,579.84 705.19,597.35" style="fill:#fff;fill-opacity:1;fill-rule:nonzero;stroke:none"/><path id="path44" d="m 1124.69,579.84 705.19,597.35" style="fill:none;stroke:#000;stroke-width:7.5;stroke-linecap:butt;stroke-linejoin:miter;stroke-miterlimit:4;stroke-dasharray:none;stroke-opacity:1"/><path id="path46" d="m 1806.99,1157.77 -1.76,-21.13 30.36,45.39 -49.73,-22.5 z" style="fill:#fff;fill-opacity:1;fill-rule:evenodd;stroke:none"/><path id="path48" d="m 1806.99,1157.77 -1.75,-21.13 30.34,45.39 -49.72,-22.51 z" style="fill:none;stroke:#000;stroke-width:4;stroke-linecap:butt;stroke-linejoin:miter;stroke-miterlimit:4;stroke-dasharray:none;stroke-opacity:1"/><path id="path50" d="M 812.699,577.539 V 1167.89" style="fill:none;stroke:#000;stroke-width:7.5;stroke-linecap:butt;stroke-linejoin:miter;stroke-miterlimit:4;stroke-dasharray:none;stroke-opacity:1"/><path id="path52" d="m 812.699,1137.89 15,-15 -15,52.5 -15,-52.5 z" style="fill:#000;fill-opacity:1;fill-rule:evenodd;stroke:none"/><path id="path54" d="m 812.699,1137.89 15,-15 -15,52.5 -15,-52.5 z" style="fill:none;stroke:#000;stroke-width:4;stroke-linecap:butt;stroke-linejoin:miter;stroke-miterlimit:4;stroke-dasharray:none;stroke-opacity:1"/><path id="path56" d="m 679.301,676.141 h 2294.22 v 168.16 H 679.301 Z" style="fill:#fff;fill-opacity:1;fill-rule:nonzero;stroke:none"/><path id="path58" d="m 679.301,676.141 h 2294.22 v 168.16 H 679.301 Z" style="fill:none;stroke:#090000;stroke-width:8.50393963;stroke-linecap:butt;stroke-linejoin:miter;stroke-miterlimit:4;stroke-dasharray:none;stroke-opacity:1"/><path id="path60" d="M 678.121,411.68 H 1383.32 V 571.719 H 678.121 Z" style="fill:#fff;fill-opacity:1;fill-rule:nonzero;stroke:none"/><path id="path62" d="M 678.121,411.68 H 1383.32 V 571.719 H 678.121 Z" style="fill:none;stroke:#090000;stroke-width:8.50393963;stroke-linecap:butt;stroke-linejoin:miter;stroke-miterlimit:4;stroke-dasharray:25.5118,25.5118;stroke-dashoffset:0;stroke-opacity:1"/><path id="path64" d="m 1459.88,248.121 h 702.891 v 169.34 H 1459.88 Z" style="fill:#fff;fill-opacity:1;fill-rule:nonzero;stroke:none"/><path id="path66" d="m 1459.88,248.121 h 702.891 v 169.34 H 1459.88 Z" style="fill:none;stroke:#090000;stroke-width:8.50393963;stroke-linecap:butt;stroke-linejoin:miter;stroke-miterlimit:4;stroke-dasharray:25.5118,25.5118;stroke-dashoffset:0;stroke-opacity:1"/><path id="path68" d="m 2274.1,90.3906 h 695.938 v 158.91 H 2274.1 Z" style="fill:#fff;fill-opacity:1;fill-rule:nonzero;stroke:none"/><path id="path70" d="m 2274.1,90.3906 h 695.938 v 158.91 H 2274.1 Z" style="fill:none;stroke:#090000;stroke-width:8.50393963;stroke-linecap:butt;stroke-linejoin:miter;stroke-miterlimit:4;stroke-dasharray:25.5118,25.5118;stroke-dashoffset:0;stroke-opacity:1"/><path id="path72" d="M 217.66,1564.57 V 1696.8 H 1919.18 V 1583.12" style="fill:none;stroke:#000;stroke-width:7.51180983;stroke-linecap:butt;stroke-linejoin:miter;stroke-miterlimit:4;stroke-dasharray:none;stroke-opacity:1"/><path id="path74" d="m 1937.38,1622.42 -18.12,-49.22 -18.09,49.22 c 10.67,-7.85 25.31,-7.81 36.21,0 z" style="fill:#000;fill-opacity:1;fill-rule:evenodd;stroke:none"/><path id="path76" d="m 1937.38,1622.42 -18.12,-49.22 -18.09,49.22 c 10.67,-7.85 25.31,-7.81 36.21,0 z" style="fill:none;stroke:#000;stroke-width:2.81693006;stroke-linecap:butt;stroke-linejoin:round;stroke-miterlimit:4;stroke-dasharray:none;stroke-opacity:1"/><path id="path78" d="m 273.359,1564.57 v 78.87 H 598.09 v -56.84" style="fill:none;stroke:#000;stroke-width:7.5;stroke-linecap:butt;stroke-linejoin:miter;stroke-miterlimit:4;stroke-dasharray:none;stroke-opacity:1"/><path id="path80" d="m 598.09,1616.6 -15,15 15,-52.5 15,52.5 z" style="fill:#000;fill-opacity:1;fill-rule:evenodd;stroke:none"/><path id="path82" d="m 598.09,1616.6 -15,15 15,-52.5 15,52.5 z" style="fill:none;stroke:#000;stroke-width:4;stroke-linecap:butt;stroke-linejoin:miter;stroke-miterlimit:4;stroke-dasharray:none;stroke-opacity:1"/><path id="path84" d="M 975.078,848.949 V 1158.63" style="fill:none;stroke:#000;stroke-width:14.17319965;stroke-linecap:butt;stroke-linejoin:miter;stroke-miterlimit:4;stroke-dasharray:none;stroke-opacity:1"/><path id="path86" d="m 975.078,1141.6 14.141,-14.14 -14.141,49.57 -14.18,-49.57 z" style="fill:#000;fill-opacity:1;fill-rule:evenodd;stroke:none"/><path id="path88" d="m 975.078,1141.6 14.141,-14.14 -14.141,49.57 -14.18,-49.57 z" style="fill:none;stroke:#000;stroke-width:3.77953005;stroke-linecap:butt;stroke-linejoin:miter;stroke-miterlimit:4;stroke-dasharray:none;stroke-opacity:1"/><path id="path90" d="M 1487.73,848.949 V 1157.46" style="fill:none;stroke:#000;stroke-width:14.17319965;stroke-linecap:butt;stroke-linejoin:miter;stroke-miterlimit:4;stroke-dasharray:none;stroke-opacity:1"/><path id="path92" d="m 1487.73,1140.47 14.15,-14.18 -14.15,49.61 -14.18,-49.61 z" style="fill:#000;fill-opacity:1;fill-rule:evenodd;stroke:none"/><path id="path94" d="m 1487.73,1140.47 14.15,-14.18 -14.15,49.61 -14.18,-49.61 z" style="fill:none;stroke:#000;stroke-width:3.77953005;stroke-linecap:butt;stroke-linejoin:miter;stroke-miterlimit:4;stroke-dasharray:none;stroke-opacity:1"/><path id="path96" d="M 2299.61,846.602 V 1156.29" style="fill:none;stroke:#000;stroke-width:14.17319965;stroke-linecap:butt;stroke-linejoin:miter;stroke-miterlimit:4;stroke-dasharray:none;stroke-opacity:1"/><path id="path98" d="m 2299.61,1139.3 14.18,-14.18 -14.18,49.61 -14.14,-49.61 z" style="fill:#000;fill-opacity:1;fill-rule:evenodd;stroke:none"/><path id="path100" d="m 2299.61,1139.3 14.18,-14.18 -14.18,49.61 -14.14,-49.61 z" style="fill:none;stroke:#000;stroke-width:3.77953005;stroke-linecap:butt;stroke-linejoin:miter;stroke-miterlimit:4;stroke-dasharray:none;stroke-opacity:1"/><path id="path102" d="M 2784.45,846.602 V 1155.16" style="fill:none;stroke:#000;stroke-width:14.17319965;stroke-linecap:butt;stroke-linejoin:miter;stroke-miterlimit:4;stroke-dasharray:none;stroke-opacity:1"/><path id="path104" d="m 2784.45,1138.12 14.18,-14.17 -14.18,49.6 -14.18,-49.6 z" style="fill:#000;fill-opacity:1;fill-rule:evenodd;stroke:none"/><path id="path106" d="m 2784.45,1138.12 14.18,-14.17 -14.18,49.6 -14.18,-49.6 z" style="fill:none;stroke:#000;stroke-width:3.77953005;stroke-linecap:butt;stroke-linejoin:miter;stroke-miterlimit:4;stroke-dasharray:none;stroke-opacity:1"/><path id="path108" d="m 1655.9,1374.38 h 153.08" style="fill:none;stroke:#000;stroke-width:14.17319965;stroke-linecap:butt;stroke-linejoin:miter;stroke-miterlimit:4;stroke-dasharray:none;stroke-opacity:1"/><path id="path110" d="m 1672.89,1374.38 14.18,14.14 -49.61,-14.14 49.61,-14.18 z" style="fill:#000;fill-opacity:1;fill-rule:evenodd;stroke:none"/><path id="path112" d="m 1672.89,1374.38 14.18,14.14 -49.61,-14.14 49.61,-14.18 z" style="fill:none;stroke:#000;stroke-width:3.77953005;stroke-linecap:butt;stroke-linejoin:miter;stroke-miterlimit:4;stroke-dasharray:none;stroke-opacity:1"/><path id="path114" d="m 1791.99,1374.38 -14.18,-14.18 49.61,14.18 -49.61,14.14 z" style="fill:#000;fill-opacity:1;fill-rule:evenodd;stroke:none"/><path id="path116" d="m 1791.99,1374.37 -14.18,-14.17 49.61,14.17 -49.61,14.15 z" style="fill:none;stroke:#000;stroke-width:3.77953005;stroke-linecap:butt;stroke-linejoin:miter;stroke-miterlimit:4;stroke-dasharray:none;stroke-opacity:1"/><path id="path118" d="m 2184.8,1699.1 h 294.61" style="fill:none;stroke:#000;stroke-width:7.5;stroke-linecap:butt;stroke-linejoin:miter;stroke-miterlimit:4;stroke-dasharray:none;stroke-opacity:1"/><path id="path120" d="m 2449.41,1699.1 -15,-15 52.5,15 -52.5,15 z" style="fill:#000;fill-opacity:1;fill-rule:evenodd;stroke:none"/><path id="path122" d="m 2449.41,1699.1 -15,-15 52.5,15 -52.5,15 z" style="fill:none;stroke:#000;stroke-width:4;stroke-linecap:butt;stroke-linejoin:miter;stroke-miterlimit:4;stroke-dasharray:none;stroke-opacity:1"/><path id="path124" d="m 1387.97,491.719 h 1100.7 V 269.02" style="fill:none;stroke:#000;stroke-width:6.66141987;stroke-linecap:butt;stroke-linejoin:miter;stroke-miterlimit:4;stroke-dasharray:19.9842,19.9842;stroke-dashoffset:0;stroke-opacity:1"/><path id="path126" d="m 2488.67,295.66 -13.32,13.32 13.32,-46.64 13.32,46.64 z" style="fill:#000;fill-opacity:1;fill-rule:evenodd;stroke:none"/><path id="path128" d="m 2488.67,295.66 -13.32,13.32 13.32,-46.64 13.32,46.64 z" style="fill:none;stroke:#000;stroke-width:3.55275989;stroke-linecap:butt;stroke-linejoin:miter;stroke-miterlimit:4;stroke-dasharray:none;stroke-opacity:1"/><path id="path130" d="M 2167.38,330.469 H 2407.5 V 269.02" style="fill:none;stroke:#000;stroke-width:6.66141987;stroke-linecap:butt;stroke-linejoin:miter;stroke-miterlimit:4;stroke-dasharray:19.9842,19.9842;stroke-dashoffset:0;stroke-opacity:1"/><path id="path132" d="m 2407.5,295.66 -13.32,13.32 13.32,-46.64 13.32,46.64 z" style="fill:#000;fill-opacity:1;fill-rule:evenodd;stroke:none"/><path id="path134" d="m 2407.5,295.66 -13.32,13.32 13.32,-46.64 13.32,46.64 z" style="fill:none;stroke:#000;stroke-width:3.55275989;stroke-linecap:butt;stroke-linejoin:miter;stroke-miterlimit:4;stroke-dasharray:none;stroke-opacity:1"/><path id="path136" d="M 2567.54,670.309 V 269.02" style="fill:none;stroke:#000;stroke-width:6.66141987;stroke-linecap:butt;stroke-linejoin:miter;stroke-miterlimit:4;stroke-dasharray:19.9842,19.9842;stroke-dashoffset:0;stroke-opacity:1"/><path id="path138" d="m 2567.54,295.66 -13.32,13.32 13.32,-46.64 13.32,46.64 z" style="fill:#000;fill-opacity:1;fill-rule:evenodd;stroke:none"/><path id="path140" d="m 2567.54,295.66 -13.32,13.32 13.32,-46.64 13.32,46.64 z" style="fill:none;stroke:#000;stroke-width:3.55275989;stroke-linecap:butt;stroke-linejoin:miter;stroke-miterlimit:4;stroke-dasharray:none;stroke-opacity:1"/><path id="path142" d="M 274.488,1184.14 V 761.949 h 379.301" style="fill:none;stroke:#000;stroke-width:7.5;stroke-linecap:butt;stroke-linejoin:miter;stroke-miterlimit:4;stroke-dasharray:none;stroke-opacity:1"/><path id="path144" d="m 623.789,761.949 -15,-15 52.5,15 -52.5,15 z" style="fill:#000;fill-opacity:1;fill-rule:evenodd;stroke:none"/><path id="path146" d="m 623.789,761.949 -15,-15 52.5,15 -52.5,15 z" style="fill:none;stroke:#000;stroke-width:4;stroke-linecap:butt;stroke-linejoin:miter;stroke-miterlimit:4;stroke-dasharray:none;stroke-opacity:1"/><path id="path148" d="M 220,1184.14 V 492.852 h 434.922" style="fill:none;stroke:#000;stroke-width:7.5;stroke-linecap:butt;stroke-linejoin:miter;stroke-miterlimit:4;stroke-dasharray:none;stroke-opacity:1"/><path id="path150" d="m 624.922,492.852 -15,-15 52.5,15 -52.5,15 z" style="fill:#000;fill-opacity:1;fill-rule:evenodd;stroke:none"/><path id="path152" d="m 624.922,492.852 -15,-15 52.5,15 -52.5,15 z" style="fill:none;stroke:#000;stroke-width:4;stroke-linecap:butt;stroke-linejoin:miter;stroke-miterlimit:4;stroke-dasharray:none;stroke-opacity:1"/><path id="path154" d="M 165.469,1185.31 V 331.641 H 1435.51" style="fill:none;stroke:#000;stroke-width:7.5;stroke-linecap:butt;stroke-linejoin:miter;stroke-miterlimit:4;stroke-dasharray:none;stroke-opacity:1"/><path id="path156" d="m 1405.51,331.641 -15,-15 52.5,15 -52.5,15 z" style="fill:#000;fill-opacity:1;fill-rule:evenodd;stroke:none"/><path id="path158" d="m 1405.51,331.641 -15,-15 52.5,15 -52.5,15 z" style="fill:none;stroke:#000;stroke-width:4;stroke-linecap:butt;stroke-linejoin:miter;stroke-miterlimit:4;stroke-dasharray:none;stroke-opacity:1"/><path id="path160" d="M 113.281,1182.97 V 172.73 H 2249.77" style="fill:none;stroke:#000;stroke-width:7.5;stroke-linecap:butt;stroke-linejoin:miter;stroke-miterlimit:4;stroke-dasharray:none;stroke-opacity:1"/><path id="path162" d="m 2219.77,172.73 -15,-15 52.5,15 -52.5,15 z" style="fill:#000;fill-opacity:1;fill-rule:evenodd;stroke:none"/><path id="path164" d="m 2219.77,172.73 -15,-15 52.5,15 -52.5,15 z" style="fill:none;stroke:#000;stroke-width:4;stroke-linecap:butt;stroke-linejoin:miter;stroke-miterlimit:4;stroke-dasharray:none;stroke-opacity:1"/><path id="path166" d="M 1349.69,1164.41 559.84,975.352" style="fill:none;stroke:#000;stroke-width:7.5;stroke-linecap:butt;stroke-linejoin:miter;stroke-miterlimit:4;stroke-dasharray:22.5,22.5;stroke-dashoffset:0;stroke-opacity:1"/><path id="path168" d="M 1645.47,1169.06 3468.75,971.879" style="fill:none;stroke:#000;stroke-width:7.5;stroke-linecap:butt;stroke-linejoin:miter;stroke-miterlimit:4;stroke-dasharray:22.5,22.5;stroke-dashoffset:0;stroke-opacity:1"/><path id="path170" d="M 2917.85,1167.89 3460.66,997.422" style="fill:none;stroke:#000;stroke-width:7.5;stroke-linecap:butt;stroke-linejoin:miter;stroke-miterlimit:4;stroke-dasharray:22.5,22.5;stroke-dashoffset:0;stroke-opacity:1"/><path id="path172" d="M 2649.92,1165.59 620.16,973.051" style="fill:none;stroke:#000;stroke-width:7.5;stroke-linecap:butt;stroke-linejoin:miter;stroke-miterlimit:4;stroke-dasharray:22.5,22.5;stroke-dashoffset:0;stroke-opacity:1"/><g id="g174" transform="scale(10)"><text id="text204" transform="matrix(1,0,0,-1,13.2152,139.176)" style="font-variant:normal;font-size:6px;font-family:Helvetica;-inkscape-font-specification:f-0-0;writing-mode:lr-tb;fill:#000;fill-opacity:1;fill-rule:nonzero;stroke:none"><tspan id="tspan176" x="0 3.666 4.998 6.33" y="0">File</tspan><tspan id="tspan178" x="-4.512 -1.176 2.16 5.496 8.85 12.186" y="6">header</tspan><tspan id="tspan180" x="56.266 60.598 63.934 67.27 70.624 72.622 75.958 79.294 80.644 83.644 85.312 88.648 90.646 93.982 97.318 99.334 102.67" y="-7.307">Read-only program</tspan><tspan id="tspan182" x="73.621 75.619 78.955 82.291 83.641 86.977" y="-1.307">region</tspan><tspan id="tspan184" x="61.78 63.778 65.11 68.446 69.796 71.464 72.796 76.132 77.464 78.796 81.796 85.15 88.486 90.154 91.822 93.82 97.156" y="4.693">(initialized from</tspan><tspan id="tspan186" x="61.78 65.116 68.116 71.452 74.452 77.788 79.456 82.792 86.146 87.478 90.814 92.482 94.15 95.482 96.814 100.15" y="10.693">executable file)</tspan><tspan id="tspan188" x="185.571 189.903 193.239 196.575 199.929 201.927 206.258 208.256 209.607 211.275 214.611 216.279 219.615 221.613 224.949 228.285 230.301 233.637" y="-7.539">Read-write program</tspan><tspan id="tspan190" x="203.758 205.756 209.092 212.428 213.778 217.114" y="-1.539">region</tspan><tspan id="tspan192" x="191.916 193.914 195.246 198.582 199.932 201.6 202.932 206.268 207.6 208.932 211.932 215.286 218.622 220.29 221.958 223.956 227.292" y="4.461">(initialized from</tspan><tspan id="tspan194" x="191.916 195.252 198.252 201.588 204.588 207.924 209.592 212.928 216.282 217.614 220.95 222.618 224.286 225.618 226.95 230.286" y="10.461">executable file)</tspan><tspan id="tspan196" x="298.531 302.197 305.533 307.531 310.885" y="-7.191">Zero-</tspan><tspan id="tspan198" x="293.358 294.69 298.026 299.358 301.026 302.358 305.711 307.043 308.375 311.375 314.711" y="-1.191">initialized</tspan><tspan id="tspan200" x="297.36 299.358 302.694 306.03 307.379 310.715" y="4.809">region</tspan><tspan id="tspan202" x="299.035 301.033 304.369 307.369 310.369" y="10.809">(bss)</tspan></text><text id="text214" transform="matrix(0,1,1,0,147.91,122.563)" style="font-variant:normal;font-size:6px;font-family:Helvetica;-inkscape-font-specification:f-0-0;writing-mode:lr-tb;fill:#000;fill-opacity:1;fill-rule:nonzero;stroke:none"><tspan id="tspan206" x="0 4.002 6 9.354 12.354 15.69 19.026 22.362 24.378" y="0">Procedure</tspan><tspan id="tspan208" x="4.342 5.674 7.006 10.342 13.342 16.696 20.032" y="6">linkage</tspan><tspan id="tspan210" x=".417 4.419 6.417 9.771 12.771 16.107 19.443 22.779 24.795" y="129.422">Procedure</tspan><tspan id="tspan212" x="4.759 6.091 7.423 10.759 13.759 17.113 20.449" y="135.422">linkage</tspan></text><text id="text234" transform="matrix(1,0,0,-1,150.901,74.3391)" style="font-variant:normal;font-size:6px;font-family:Helvetica;-inkscape-font-specification:f-0-0;writing-mode:lr-tb;fill:#000;fill-opacity:1;fill-rule:nonzero;stroke:none"><tspan id="tspan216" x="0 4.332 7.332 10.668 14.004 19.02 20.352 23.352 25.02 27.018 30.354 31.686 35.04 38.04 41.376 43.044 44.376 47.712 51.048 52.716 56.052 59.388 61.056" y="0">Dynamic relocation data</tspan><tspan id="tspan218" x="-64.543 -60.541 -57.541 -54.205 -50.869 -48.853 -47.185 -45.517 -43.849 -40.513 -37.177 -35.845" y="26.445">Export table</tspan><tspan id="tspan220" x="14.498 16.166 21.164 24.5 27.836 29.852 31.52 33.188 34.856 38.192 41.528 42.86" y="42.799">Import table</tspan><tspan id="tspan222" x="94.414 98.416 101.416 106.414 109.768 113.104 114.436 116.104 117.772 121.108 124.444 125.776" y="59.153">Symbol table</tspan><tspan id="tspan224" x="129.393 133.725 136.725 140.061 143.397 148.413 149.745 152.745 154.413 157.413 160.749 165.747 169.083 172.437 175.773 179.109 182.445 184.113" y="21.573">Dynamic components</tspan><tspan id="tspan226" x="141.733 143.731 146.731 150.067 153.403 155.071 158.407 159.757 163.093 164.761 168.097 171.097 174.433 177.769 182.785 184.117" y="27.573">(contain dynamic</tspan><tspan id="tspan228" x="154.741 156.073 157.405 160.741 163.741 165.091 168.427 171.763 173.431 176.767 180.103 181.771 185.107" y="33.573">linking data)</tspan><tspan id="tspan230" x="108.522 112.524 115.86 117.528 120.864 122.88 124.878 128.214 132.546 134.214 137.55 140.886 144.24 147.576 149.244 152.58 155.58 157.248 160.584 162.252 164.25 167.586 169.254 172.59 174.606 177.942 181.278 184.278" y="-96.269">An arrow denotes a reference</tspan><tspan id="tspan232" x="108.522 111.858 115.194 118.53 120.198 121.53 123.198 126.198 127.866 131.202 132.534 134.55 137.886 140.886 142.554 143.886 147.222" y="-90.269">and its direction</tspan></text></g></g></g></svg>