<svg xmlns="http://www.w3.org/2000/svg" xmlns:svg="http://www.w3.org/2000/svg" id="svg2" width="469.333" height="290.667" version="1.1" viewBox="0 0 469.333 290.667" xml:space="preserve"><metadata id="metadata8"/><g id="g10" transform="matrix(1.3333333,0,0,-1.3333333,0,290.66667)"><g id="g12" transform="scale(0.1)"><path id="path14" d="m 2295.66,1971.13 h 741.879 v 204.609 H 2295.66 Z" style="fill:#b3b3b3;fill-opacity:1;fill-rule:nonzero;stroke:none"/><path id="path16" d="m 2295.66,1971.13 h 741.879 v 204.609 H 2295.66 Z" style="fill:none;stroke:#000;stroke-width:8.50393963;stroke-linecap:butt;stroke-linejoin:miter;stroke-miterlimit:4;stroke-dasharray:none;stroke-opacity:1"/><path id="path18" d="m 1150.55,1485.35 h 402.07 v 217.77 h -402.07 z" style="fill:#b3b3b3;fill-opacity:1;fill-rule:nonzero;stroke:none"/><path id="path20" d="m 1150.55,1485.35 h 402.07 v 217.77 h -402.07 z" style="fill:none;stroke:#000;stroke-width:8.50393963;stroke-linecap:butt;stroke-linejoin:miter;stroke-miterlimit:4;stroke-dasharray:none;stroke-opacity:1"/><path id="path22" d="m 4.26172,1159.88 h 392.457 v 140 H 4.26172 Z" style="fill:#fff;fill-opacity:1;fill-rule:nonzero;stroke:none"/><path id="path24" d="m 4.26172,1159.88 h 392.457 v 140 H 4.26172 Z" style="fill:none;stroke:#000;stroke-width:8.50393963;stroke-linecap:butt;stroke-linejoin:miter;stroke-miterlimit:4;stroke-dasharray:none;stroke-opacity:1"/><path id="path26" d="m 1283.83,1159.1 h 262.344 v 141.52 H 1283.83 Z" style="fill:#fff;fill-opacity:1;fill-rule:nonzero;stroke:none"/><path id="path28" d="m 1283.83,1159.1 h 262.344 v 141.52 H 1283.83 Z" style="fill:none;stroke:#000;stroke-width:6.99040985;stroke-linecap:butt;stroke-linejoin:miter;stroke-miterlimit:4;stroke-dasharray:none;stroke-opacity:1"/><g id="g30" transform="scale(10)"><text id="text34" transform="matrix(1,0,0,-1,10.6527,120.329)" style="font-variant:normal;font-size:6px;font-family:Helvetica;-inkscape-font-specification:f-0-0;writing-mode:lr-tb;fill:#000;fill-opacity:1;fill-rule:nonzero;stroke:none"><tspan id="tspan32" x="0 4.002 7.338 10.674 12.69 15.69 128.584 130.252" y="0">Source.o</tspan></text></g><path id="path36" d="m 4.26172,956.449 h 392.457 v 140 H 4.26172 Z" style="fill:#fff;fill-opacity:1;fill-rule:nonzero;stroke:none"/><path id="path38" d="m 4.26172,956.449 h 392.457 v 140 H 4.26172 Z" style="fill:none;stroke:#000;stroke-width:8.50393963;stroke-linecap:butt;stroke-linejoin:miter;stroke-miterlimit:4;stroke-dasharray:none;stroke-opacity:1"/><path id="path40" d="m 1283.83,955.711 h 262.344 v 141.52 H 1283.83 Z" style="fill:#fff;fill-opacity:1;fill-rule:nonzero;stroke:none"/><path id="path42" d="m 1283.83,955.711 h 262.344 v 141.52 H 1283.83 Z" style="fill:none;stroke:#000;stroke-width:6.99040985;stroke-linecap:butt;stroke-linejoin:miter;stroke-miterlimit:4;stroke-dasharray:none;stroke-opacity:1"/><g id="g44" transform="scale(10)"><text id="text48" transform="matrix(1,0,0,-1,10.6527,99.9879)" style="font-variant:normal;font-size:6px;font-family:Helvetica;-inkscape-font-specification:f-0-0;writing-mode:lr-tb;fill:#000;fill-opacity:1;fill-rule:nonzero;stroke:none"><tspan id="tspan46" x="0 4.002 7.338 10.674 12.69 15.69 128.584 130.252" y="0">Source.o</tspan></text></g><path id="path50" d="m 4.26172,754.219 h 392.457 v 140 H 4.26172 Z" style="fill:#fff;fill-opacity:1;fill-rule:nonzero;stroke:none"/><path id="path52" d="m 4.26172,754.219 h 392.457 v 140 H 4.26172 Z" style="fill:none;stroke:#000;stroke-width:8.50393963;stroke-linecap:butt;stroke-linejoin:miter;stroke-miterlimit:4;stroke-dasharray:none;stroke-opacity:1"/><path id="path54" d="m 1283.83,753.48 h 262.344 V 895 H 1283.83 Z" style="fill:#fff;fill-opacity:1;fill-rule:nonzero;stroke:none"/><path id="path56" d="m 1283.83,753.48 h 262.344 V 895 H 1283.83 Z" style="fill:none;stroke:#000;stroke-width:6.99040985;stroke-linecap:butt;stroke-linejoin:miter;stroke-miterlimit:4;stroke-dasharray:none;stroke-opacity:1"/><g id="g58" transform="scale(10)"><text id="text62" transform="matrix(1,0,0,-1,10.6527,79.766)" style="font-variant:normal;font-size:6px;font-family:Helvetica;-inkscape-font-specification:f-0-0;writing-mode:lr-tb;fill:#000;fill-opacity:1;fill-rule:nonzero;stroke:none"><tspan id="tspan60" x="0 4.002 7.338 10.674 12.69 15.69 128.584 130.252" y="0">Source.o</tspan></text></g><path id="path64" d="m 2360.27,902.609 h 542.031 v 240.512 H 2360.27 Z" style="fill:#fff;fill-opacity:1;fill-rule:nonzero;stroke:none"/><path id="path66" d="m 2360.27,902.609 h 542.031 v 240.512 H 2360.27 Z" style="fill:none;stroke:#000;stroke-width:8.50393963;stroke-linecap:butt;stroke-linejoin:miter;stroke-miterlimit:4;stroke-dasharray:none;stroke-opacity:1"/><path id="path68" d="m 2365.08,419.219 h 536.047 V 556.801 H 2365.08 Z" style="fill:#fff;fill-opacity:1;fill-rule:nonzero;stroke:none"/><path id="path70" d="m 2365.08,419.219 h 536.047 V 556.801 H 2365.08 Z" style="fill:none;stroke:#000;stroke-width:8.50393963;stroke-linecap:butt;stroke-linejoin:miter;stroke-miterlimit:4;stroke-dasharray:none;stroke-opacity:1"/><path id="path72" d="m 1282.19,416.801 h 264.41 v 140 h -264.41 z" style="fill:#fff;fill-opacity:1;fill-rule:nonzero;stroke:none"/><path id="path74" d="m 1282.19,416.801 h 264.41 v 140 h -264.41 z" style="fill:none;stroke:#000;stroke-width:8.50393963;stroke-linecap:butt;stroke-linejoin:miter;stroke-miterlimit:4;stroke-dasharray:none;stroke-opacity:1"/><g id="g76" transform="scale(10)"><text id="text80" transform="matrix(1,0,0,-1,137.063,45.8688)" style="font-variant:normal;font-size:6px;font-family:Helvetica;-inkscape-font-specification:f-0-0;writing-mode:lr-tb;fill:#000;fill-opacity:1;fill-rule:nonzero;stroke:none"><tspan id="tspan78" x="0 1.668 3 4.332" y="0">.lib</tspan></text></g><path id="path82" d="m 1282.19,214.57 h 264.41 v 140 h -264.41 z" style="fill:#fff;fill-opacity:1;fill-rule:nonzero;stroke:none"/><path id="path84" d="m 1282.19,214.57 h 264.41 v 140 h -264.41 z" style="fill:none;stroke:#000;stroke-width:8.50393963;stroke-linecap:butt;stroke-linejoin:miter;stroke-miterlimit:4;stroke-dasharray:none;stroke-opacity:1"/><g id="g86" transform="scale(10)"><text id="text90" transform="matrix(1,0,0,-1,137.063,25.6469)" style="font-variant:normal;font-size:6px;font-family:Helvetica;-inkscape-font-specification:f-0-0;writing-mode:lr-tb;fill:#000;fill-opacity:1;fill-rule:nonzero;stroke:none"><tspan id="tspan88" x="0 1.668 3 4.332" y="0">.lib</tspan></text></g><path id="path92" d="m 1282.19,11.1719 h 264.41 v 140 h -264.41 z" style="fill:#fff;fill-opacity:1;fill-rule:nonzero;stroke:none"/><path id="path94" d="m 1282.19,11.1719 h 264.41 v 140 h -264.41 z" style="fill:none;stroke:#000;stroke-width:8.50393963;stroke-linecap:butt;stroke-linejoin:miter;stroke-miterlimit:4;stroke-dasharray:none;stroke-opacity:1"/><g id="g96" transform="scale(10)"><text id="text140" transform="matrix(1,0,0,-1,137.063,5.30508)" style="font-variant:normal;font-size:6px;font-family:Helvetica;-inkscape-font-specification:f-0-0;writing-mode:lr-tb;fill:#000;fill-opacity:1;fill-rule:nonzero;stroke:none"><tspan id="tspan98" x="0 1.668 3 4.332" y="0">.lib</tspan><tspan id="tspan100" x="-118.331 -114.329 -112.997 -109.661 -107.993 -106.325 -102.989 -100.973 -95.975 -93.977 -90.977 -87.641 -84.287 -81.287 -79.955 -78.287 -76.955 -73.955 -72.287 -68.951 -65.615 -63.947 -60.611 -58.943 -57.611" y="-195.398">Platform-specific data is</tspan><tspan id="tspan102" x="-118.331 -114.995 -111.995 -108.659 -105.323 -103.655 -100.319 -97.319 -95.651 -93.983 -90.647 -87.311 -85.643 -82.307 -78.971 -75.971 -74.303 -72.635 -71.303 -69.953 -66.617 -63.617 -60.281 -58.283 -56.615 -54.947 -53.279 -49.943" y="-189.398">used by the post linker, for</tspan><tspan id="tspan104" x="-118.331 -114.995 -111.995 -108.659 -103.661 -100.307 -98.975 -95.639 -93.971 -92.303 -90.635 -87.299 -85.631 -82.295 -78.959 -77.627 -74.291 -72.623 -69.287 -65.951 -64.601 -63.269 -60.269 -56.933 -55.265 -53.597 -50.261" y="-183.398">example, to help police the</tspan><tspan id="tspan106" x="-118.331 -116.663 -113.327 -111.329 -107.993 -104.993 -101.657 -99.641 -96.305 -92.969 -89.969 -86.969 -85.301 -81.965 -80.297 -78.629 -74.297 -70.295" y="-177.398">foreverness of DSO</tspan><tspan id="tspan108" x="-118.331 -116.999 -113.663 -111.995 -108.659 -106.661 -104.993 -101.657 -98.657 -95.303" y="-171.398">interfaces</tspan><tspan id="tspan110" x="17.239 21.241 22.909 26.245 27.577 30.913 32.581 34.249 37.585 39.601 44.599 46.597 49.597 52.933 56.287 59.287 60.619 62.287 63.619" y="-205.09">A platform-specific</tspan><tspan id="tspan112" x="17.239 20.575 23.911 26.911 28.579 30.247 31.579 32.911 36.247 39.247 42.601 44.599 46.267 49.603 52.939 56.275 59.611 61.627 64.963 66.631 69.967" y="-199.09">post linker generates</tspan><tspan id="tspan114" x="17.239 18.907 22.243 25.579 27.247 30.583 31.915 35.251 36.919 38.587 41.923 43.921 48.937 50.935 53.935 57.271 60.607 63.607 64.957 66.625 67.957" y="-193.09">the platform-specific</tspan><tspan id="tspan116" x="17.239 20.575 23.575 26.911 29.911 33.247 34.915 38.251 41.605 42.937 46.273 47.941 49.609 52.945 54.943 59.941 63.295" y="-187.09">executable format</tspan><tspan id="tspan118" x="163.698 167.7 171.036 176.052 179.388 181.056 184.392 185.724 189.06 190.728 192.396 195.732 197.73 202.746" y="-113.793">Some platform-</tspan><tspan id="tspan120" x="163.698 166.698 170.034 173.37 176.37 177.702 179.37 180.702 183.702 185.37 188.706 191.706 195.06 198.396 201.396 203.064" y="-107.793">specific aspects</tspan><tspan id="tspan122" x="163.698 165.696 169.032 172.032 175.368 176.718 178.386 180.054 181.722 183.72 187.056 192.054 193.722 197.058 200.058 201.39 204.726" y="-101.793">result from using</tspan><tspan id="tspan124" x="163.698 167.034 168.366 171.702 173.37 175.038 178.374 180.372 185.388 187.386 190.386 193.722 197.058 200.058 201.408 203.076 204.408" y="-95.793">platform-specific</tspan><tspan id="tspan126" x="163.698 166.698 170.034 175.032 178.368 179.718 181.05 184.386 186.384 188.052 191.388 194.742 198.078 199.746 201.078 202.41 205.746 208.746 212.082" y="-89.793">compiler and linker</tspan><tspan id="tspan128" x="163.698 167.034 170.37 172.038 173.37 176.706 180.06 183.06 184.728 186.396" y="-83.793">options...</tspan><tspan id="tspan130" x="163.578 167.58 169.578 172.932 175.932 177.264 180.6 183.936 186.936 188.268" y="-41.042">Previously</tspan><tspan id="tspan132" x="163.578 164.91 166.242 169.578 172.578 175.932 179.268 180.936 185.268 189.27 193.938" y="-35.042">linked DSOs</tspan><tspan id="tspan134" x="163.578 166.914 169.914 173.25 176.586 178.254 181.59 184.59 186.258 187.926 191.262 192.594" y="-29.042">used by this</tspan><tspan id="tspan136" x="163.578 167.91 171.912 176.58 178.248 179.916" y="-23.042">DSO...</tspan><tspan id="tspan138" x="108.871 112.873 116.875 118.543 122.545 126.566 128.234 129.902 134.234 138.236" y="-41.042">BP ABI DSO</tspan></text></g><path id="path142" d="m 2365.08,215.781 h 536.047 V 353.398 H 2365.08 Z" style="fill:#fff;fill-opacity:1;fill-rule:nonzero;stroke:none"/><path id="path144" d="m 2365.08,215.781 h 536.047 V 353.398 H 2365.08 Z" style="fill:none;stroke:#000;stroke-width:8.50393963;stroke-linecap:butt;stroke-linejoin:miter;stroke-miterlimit:4;stroke-dasharray:none;stroke-opacity:1"/><g id="g146" transform="scale(10)"><text id="text154" transform="matrix(1,0,0,-1,245.935,26.0059)" style="font-variant:normal;font-size:6px;font-family:Helvetica;-inkscape-font-specification:f-0-0;writing-mode:lr-tb;fill:#000;fill-opacity:1;fill-rule:nonzero;stroke:none"><tspan id="tspan148" x="0 4.002 8.004 9.672 13.674 17.694 19.362 21.03 25.362 29.364" y="0">BP ABI DSO</tspan><tspan id="tspan150" x="-.359 3.643 7.645 9.313 13.315 17.335 19.003 20.671 25.003 29.005" y="-77.417">BP ABI DSO</tspan><tspan id="tspan152" x="-1.367 1.969 3.967 5.635 8.971 11.971 15.307 18.307 21.661 23.329 26.665 30.001 31.333" y="-71.417">or executable</tspan></text></g><path id="path156" d="m 1016.52,1024.65 c 0,-73.361 -90.782,-132.81 -202.809,-132.81 -111.992,0 -202.813,59.449 -202.813,132.81 0,73.36 90.821,132.81 202.813,132.81 112.027,0 202.809,-59.45 202.809,-132.81 z" style="fill:#fff;fill-opacity:1;fill-rule:nonzero;stroke:none"/><path id="path158" d="m 1016.52,1024.65 c 0,-73.361 -90.782,-132.81 -202.809,-132.81 -111.992,0 -202.813,59.449 -202.813,132.81 0,73.36 90.821,132.81 202.813,132.81 112.027,0 202.809,-59.45 202.809,-132.81 z" style="fill:none;stroke:#000;stroke-width:8.50393963;stroke-linecap:butt;stroke-linejoin:miter;stroke-miterlimit:4;stroke-dasharray:none;stroke-opacity:1"/><path id="path160" d="m 2162.85,1026.45 c 0,-78.329 -90.27,-141.802 -201.64,-141.802 -111.33,0 -201.6,63.473 -201.6,141.802 0,78.32 90.27,141.79 201.6,141.79 111.37,0 201.64,-63.47 201.64,-141.79 z" style="fill:#fff;fill-opacity:1;fill-rule:nonzero;stroke:none"/><path id="path162" d="m 2162.85,1026.45 c 0,-78.329 -90.27,-141.802 -201.64,-141.802 -111.33,0 -201.6,63.473 -201.6,141.802 0,78.32 90.27,141.79 201.6,141.79 111.37,0 201.64,-63.47 201.64,-141.79 z" style="fill:none;stroke:#000;stroke-width:8.50393963;stroke-linecap:butt;stroke-linejoin:miter;stroke-miterlimit:4;stroke-dasharray:none;stroke-opacity:1"/><path id="path164" d="m 2903.52,1599.61 c 0,-92.85 -121.06,-168.13 -270.43,-168.13 -149.34,0 -270.43,75.28 -270.43,168.13 0,92.85 121.09,168.12 270.43,168.12 149.37,0 270.43,-75.27 270.43,-168.12 z" style="fill:#b3b3b3;fill-opacity:1;fill-rule:nonzero;stroke:none"/><path id="path166" d="m 2903.52,1599.61 c 0,-92.85 -121.06,-168.13 -270.43,-168.13 -149.34,0 -270.43,75.28 -270.43,168.13 0,92.85 121.09,168.12 270.43,168.12 149.37,0 270.43,-75.27 270.43,-168.12 z" style="fill:none;stroke:#000;stroke-width:8.50393963;stroke-linecap:butt;stroke-linejoin:miter;stroke-miterlimit:4;stroke-dasharray:none;stroke-opacity:1"/><g id="g168" transform="scale(10)"><text id="text194" transform="matrix(1,0,0,-1,240.248,209.558)" style="font-variant:normal;font-size:6px;font-family:Helvetica;-inkscape-font-specification:f-0-0;writing-mode:lr-tb;fill:#000;fill-opacity:1;fill-rule:nonzero;stroke:none"><tspan id="tspan170" x="0 4.002 5.334 8.67 10.338 12.006 15.342 17.358 22.356 24.024 27.36 30.36 33.696 36.696 40.032 41.7 45.036 48.372 49.722" y="0">Platform executable</tspan><tspan id="tspan172" x="5.004 8.34 10.338 12.006 15.006 18.342 21.678 23.694 27.03 30.366 32.034 35.37 38.706 40.056 43.392 46.392" y="6">or shared object</tspan><tspan id="tspan174" x="16.338 20.34 23.676 26.676" y="48.7">Post</tspan><tspan id="tspan176" x="15.166 16.498 17.83 21.166 24.166 27.52" y="54.7">linker</tspan><tspan id="tspan178" x="-116.389 -112.387 -111.055 -107.719 -106.051 -104.383 -101.047 -99.032" y="49.777">Platform</tspan><tspan id="tspan180" x="-111.051 -107.715 -104.379 -102.711" y="55.777">data</tspan><tspan id="tspan182" x="-170.953 -166.621 -163.285 -158.287 -154.933 -153.601 -152.269 -148.933" y="109.006">Compiler</tspan><tspan id="tspan184" x="-52.289 -48.287 -46.619 -43.283 -41.615 -40.283" y="106.374">Static</tspan><tspan id="tspan186" x="-51.961 -50.629 -49.297 -45.961 -42.961 -39.607" y="112.374">linker</tspan><tspan id="tspan188" x="-170.183 -166.181 -164.513 -161.177 -159.509 -158.177 -155.177 -153.509 -152.177 -150.845 -147.509 -145.493 -142.157 -140.159 -138.809 -135.473" y="169.552">Static libraries</tspan><tspan id="tspan190" x="-170.183 -166.847 -163.511 -161.513 -159.845 -158.177 -156.845 -153.509 -150.509 -149.159 -145.823 -142.487 -139.151 -135.815 -134.147 -132.815" y="175.552">part included in</tspan><tspan id="tspan192" x="-170.183 -168.515 -165.179 -163.847 -160.847 -159.179 -154.847 -150.845 -146.177 -144.509 -142.841" y="181.552">this DSO...</tspan></text></g><path id="path196" d="m 405.078,1230.47 h 70.621 V 826.02 h -70.621" style="fill:none;stroke:#000;stroke-width:7.5;stroke-linecap:butt;stroke-linejoin:miter;stroke-miterlimit:4;stroke-dasharray:none;stroke-opacity:1"/><path id="path198" d="M 405.078,1028.24 H 592.969" style="fill:none;stroke:#000;stroke-width:7.51180983;stroke-linecap:butt;stroke-linejoin:miter;stroke-miterlimit:4;stroke-dasharray:none;stroke-opacity:1"/><path id="path200" d="m 553.672,1046.41 49.219,-18.09 -49.219,-18.12 c 7.848,10.7 7.808,25.31 0,36.21 z" style="fill:#000;fill-opacity:1;fill-rule:evenodd;stroke:none"/><path id="path202" d="m 553.672,1046.4 49.219,-18.08 -49.219,-18.13 c 7.848,10.71 7.808,25.32 0,36.21 z" style="fill:none;stroke:#000;stroke-width:2.81693006;stroke-linecap:butt;stroke-linejoin:round;stroke-miterlimit:4;stroke-dasharray:none;stroke-opacity:1"/><path id="path204" d="m 1033.28,1028.24 h 171.13" style="fill:none;stroke:#000;stroke-width:7.51180983;stroke-linecap:butt;stroke-linejoin:miter;stroke-miterlimit:4;stroke-dasharray:none;stroke-opacity:1"/><path id="path206" d="m 1165.12,1046.41 49.22,-18.09 -49.22,-18.12 c 7.85,10.7 7.81,25.31 0,36.21 z" style="fill:#000;fill-opacity:1;fill-rule:evenodd;stroke:none"/><path id="path208" d="m 1165.12,1046.41 49.22,-18.09 -49.22,-18.12 c 7.85,10.7 7.81,25.31 0,36.21 z" style="fill:none;stroke:#000;stroke-width:2.81693006;stroke-linecap:butt;stroke-linejoin:round;stroke-miterlimit:4;stroke-dasharray:none;stroke-opacity:1"/><path id="path210" d="M 1169.69,1028.24 H 1275" style="fill:none;stroke:#000;stroke-width:7.5;stroke-linecap:butt;stroke-linejoin:miter;stroke-miterlimit:4;stroke-dasharray:none;stroke-opacity:1"/><path id="path212" d="m 1275,1231.68 h -56.25 V 823.629 H 1275" style="fill:none;stroke:#000;stroke-width:7.5;stroke-linecap:butt;stroke-linejoin:miter;stroke-miterlimit:4;stroke-dasharray:none;stroke-opacity:1"/><path id="path214" d="m 1553.79,1231.68 h 68.2 V 823.629 h -68.2" style="fill:none;stroke:#000;stroke-width:7.5;stroke-linecap:butt;stroke-linejoin:miter;stroke-miterlimit:4;stroke-dasharray:none;stroke-opacity:1"/><path id="path216" d="m 1553.79,1028.24 h 187.85" style="fill:none;stroke:#000;stroke-width:7.51180983;stroke-linecap:butt;stroke-linejoin:miter;stroke-miterlimit:4;stroke-dasharray:none;stroke-opacity:1"/><path id="path218" d="m 1702.34,1046.45 49.26,-18.13 -49.26,-18.12 c 7.89,10.7 7.86,25.35 0,36.25 z" style="fill:#000;fill-opacity:1;fill-rule:evenodd;stroke:none"/><path id="path220" d="m 1702.35,1046.45 49.25,-18.13 -49.26,-18.12 c 7.9,10.69 7.86,25.35 0.01,36.25 z" style="fill:none;stroke:#000;stroke-width:2.81693006;stroke-linecap:butt;stroke-linejoin:round;stroke-miterlimit:4;stroke-dasharray:none;stroke-opacity:1"/><path id="path222" d="m 2173.59,1028.24 h 166.33" style="fill:none;stroke:#000;stroke-width:7.51180983;stroke-linecap:butt;stroke-linejoin:miter;stroke-miterlimit:4;stroke-dasharray:none;stroke-opacity:1"/><path id="path224" d="m 2300.62,1046.45 49.26,-18.13 -49.26,-18.12 c 7.9,10.7 7.86,25.35 0,36.25 z" style="fill:#000;fill-opacity:1;fill-rule:evenodd;stroke:none"/><path id="path226" d="m 2300.62,1046.45 49.26,-18.13 -49.26,-18.12 c 7.9,10.7 7.86,25.35 0,36.25 z" style="fill:none;stroke:#000;stroke-width:2.81693006;stroke-linecap:butt;stroke-linejoin:round;stroke-miterlimit:4;stroke-dasharray:none;stroke-opacity:1"/><path id="path228" d="m 1587.3,1584.65 h 745.47" style="fill:none;stroke:#000;stroke-width:7.51180983;stroke-linecap:butt;stroke-linejoin:miter;stroke-miterlimit:4;stroke-dasharray:none;stroke-opacity:1"/><path id="path230" d="m 1617.34,1584.65 15.04,15.04 -52.58,-15.04 52.58,-15.04 z" style="fill:#000;fill-opacity:1;fill-rule:evenodd;stroke:none"/><path id="path232" d="m 1617.34,1584.65 15.04,15.04 -52.58,-15.04 52.58,-15.04 z" style="fill:none;stroke:#000;stroke-width:4.00629997;stroke-linecap:butt;stroke-linejoin:miter;stroke-miterlimit:4;stroke-dasharray:none;stroke-opacity:1"/><path id="path234" d="m 2293.48,1602.81 49.22,-18.08 -49.22,-18.13 c 7.85,10.7 7.81,25.31 0,36.21 z" style="fill:#000;fill-opacity:1;fill-rule:evenodd;stroke:none"/><path id="path236" d="m 2293.48,1602.81 49.22,-18.08 -49.22,-18.13 c 7.85,10.7 7.81,25.31 0,36.21 z" style="fill:none;stroke:#000;stroke-width:2.81693006;stroke-linecap:butt;stroke-linejoin:round;stroke-miterlimit:4;stroke-dasharray:none;stroke-opacity:1"/><path id="path238" d="m 2631.91,1155.08 v 258.47" style="fill:none;stroke:#000;stroke-width:7.51180983;stroke-linecap:butt;stroke-linejoin:miter;stroke-miterlimit:4;stroke-dasharray:none;stroke-opacity:1"/><path id="path240" d="m 2613.71,1374.26 18.13,49.22 18.08,-49.22 c -10.66,7.85 -25.31,7.81 -36.21,0 z" style="fill:#000;fill-opacity:1;fill-rule:evenodd;stroke:none"/><path id="path242" d="m 2613.71,1374.26 18.13,49.22 18.08,-49.22 c -10.66,7.85 -25.31,7.81 -36.21,0 z" style="fill:none;stroke:#000;stroke-width:2.81693006;stroke-linecap:butt;stroke-linejoin:round;stroke-miterlimit:4;stroke-dasharray:none;stroke-opacity:1"/><path id="path244" d="m 2631.91,1778.48 v 173.51" style="fill:none;stroke:#000;stroke-width:7.51180983;stroke-linecap:butt;stroke-linejoin:miter;stroke-miterlimit:4;stroke-dasharray:none;stroke-opacity:1"/><path id="path246" d="m 2613.71,1912.7 18.13,49.25 18.08,-49.25 c -10.66,7.85 -25.31,7.81 -36.21,0 z" style="fill:#000;fill-opacity:1;fill-rule:evenodd;stroke:none"/><path id="path248" d="m 2613.71,1912.7 18.13,49.25 18.08,-49.25 c -10.66,7.85 -25.31,7.81 -36.21,0 z" style="fill:none;stroke:#000;stroke-width:2.81693006;stroke-linecap:butt;stroke-linejoin:round;stroke-miterlimit:4;stroke-dasharray:none;stroke-opacity:1"/><path id="path250" d="m 1555,489.801 h 63.4 V 81.7617 H 1555" style="fill:none;stroke:#000;stroke-width:7.5;stroke-linecap:butt;stroke-linejoin:miter;stroke-miterlimit:4;stroke-dasharray:none;stroke-opacity:1"/><path id="path252" d="m 1555,285.199 h 61.02" style="fill:none;stroke:#000;stroke-width:7.5;stroke-linecap:butt;stroke-linejoin:miter;stroke-miterlimit:4;stroke-dasharray:none;stroke-opacity:1"/><path id="path254" d="m 1618.4,489.801 213.01,399.648" style="fill:none;stroke:#000;stroke-width:7.51180983;stroke-linecap:butt;stroke-linejoin:miter;stroke-miterlimit:4;stroke-dasharray:none;stroke-opacity:1"/><path id="path256" d="m 1796.88,863.32 39.14,34.918 -7.19,-51.949 c -5.74,11.949 -18.67,18.789 -31.95,17.031 z" style="fill:#000;fill-opacity:1;fill-rule:evenodd;stroke:none"/><path id="path258" d="m 1796.87,863.324 39.14,34.918 -7.18,-51.949 c -5.74,11.945 -18.67,18.785 -31.96,17.031 z" style="fill:none;stroke:#000;stroke-width:2.81693006;stroke-linecap:butt;stroke-linejoin:round;stroke-miterlimit:4;stroke-dasharray:none;stroke-opacity:1"/><path id="path260" d="m 2355.51,487.422 h -58.63 V 286.371 h 58.63" style="fill:none;stroke:#000;stroke-width:7.5;stroke-linecap:butt;stroke-linejoin:miter;stroke-miterlimit:4;stroke-dasharray:none;stroke-opacity:1"/><path id="path262" d="M 2296.88,487.422 2037.19,875.078" style="fill:none;stroke:#000;stroke-width:7.51180983;stroke-linecap:butt;stroke-linejoin:miter;stroke-miterlimit:4;stroke-dasharray:none;stroke-opacity:1"/><path id="path264" d="m 2043.98,832.301 -12.38,51.019 42.46,-30.859 c -13.28,0.59 -25.39,-7.582 -30.08,-20.16 z" style="fill:#000;fill-opacity:1;fill-rule:evenodd;stroke:none"/><path id="path266" d="m 2043.98,832.301 -12.38,51.015 42.47,-30.851 c -13.28,0.578 -25.41,-7.582 -30.09,-20.164 z" style="fill:none;stroke:#000;stroke-width:2.81693006;stroke-linecap:butt;stroke-linejoin:round;stroke-miterlimit:4;stroke-dasharray:none;stroke-opacity:1"/></g></g></svg>